SplineFontDB: 3.0
FontName: Nunito-Light
FullName: Nunito Light
FamilyName: Nunito
Weight: Light
Copyright: Digitized data Copyright (c) 2011-2013, vernon adams.
Version: 2.0
ItalicAngle: 0
UnderlinePosition: 0
UnderlineWidth: 0
Ascent: 1638
Descent: 410
UFOAscent: 2030
UFODescent: -675
LayerCount: 2
Layer: 0 0 "Back"  1
Layer: 1 0 "Fore"  0
OS2Version: 0
OS2_WeightWidthSlopeOnly: 0
OS2_UseTypoMetrics: 0
CreationTime: 1392311443
ModificationTime: 1392313200
PfmFamily: 0
TTFWeight: 300
TTFWidth: 5
LineGap: 0
VLineGap: 0
OS2TypoAscent: 1999
OS2TypoAOffset: 0
OS2TypoDescent: 572
OS2TypoDOffset: 0
OS2TypoLinegap: 0
OS2WinAscent: 1999
OS2WinAOffset: 0
OS2WinDescent: -572
OS2WinDOffset: 0
HheadAscent: 0
HheadAOffset: 1
HheadDescent: 0
HheadDOffset: 1
OS2Vendor: 'NeWT'
Lookup: 258 0 0 "kernHorizontalKerninglookup0"  {"kernHorizontalKerninglookup0 subtable"  } ['kern' ('DFLT' <'dflt' > ) ]
Lookup: 258 0 0 "kernHorizontalKerninginLatinloo"  {"kernHorizontalKerninginLatinloo subtable"  } ['kern' ('latn' <'dflt' > ) ]
DEI: 91125
LangName: 1033 "" "" "" "" "" "Version 2.0" "" "Nunito is a trademark of Vernon Adams and may be registered in certain jurisdictions." "newtypography" "Vernon Adams" "" "newtypography.co.uk" "newtypography.co.uk" "Copyright (c) 2013, vernon adams.+AAoACgAA-This Font Software is licensed under the SIL Open Font License, Version 1.1.+AAoA-This license is copied below, and is also available with a FAQ at:+AAoA-http://scripts.sil.org/OFL+AAoA" "http://scripts.sil.org/OFL" "" "" "" "Nunito-Light" 
PickledData: "(dp1
S'com.typemytype.robofont.foreground.layerStrokeColor'
p2
(F0.5
I0
F0.5
F0.69999999999999996
tp3
sS'com.typemytype.robofont.guides'
p4
((dp5
S'angle'
p6
I0
sS'name'
p7
NsS'magnetic'
p8
I5
sS'isGlobal'
p9
I1
sS'y'
I1013
sS'x'
I587
s(dp10
g6
I0
sg7
Nsg8
I5
sg9
I1
sS'y'
I903
sS'x'
I595
s(dp11
g6
I0
sg7
Nsg8
I5
sg9
I1
sS'y'
I120
sS'x'
I780
s(dp12
g6
I0
sg7
Nsg8
I5
sg9
I1
sS'y'
S'-22'
p13
sS'x'
I907
s(dp14
g6
I0
sg7
Nsg8
I5
sg9
I1
sS'y'
I1296
sS'x'

StartChar: A
Encoding: 33 65 0
Width: 1405
VWidth: 0
GlyphClass: 2
Flags: HW
PickledData: "(dp1
S'segmentType'
p2
S'line'
p3
sS'b'
(dp4
sS'anchors'
p5
(tsS'lib'
p6
(dp7
sS'unicodes'
p8
(tsS'width'
p9
I1445
sS'points'
p10
(dp11
sS'contours'
p12
(dp13
sS'components'
p14
(tsS'y'
I1232
sS'x'
I718
sS'com.typemytype.robofont.layerData'
p15
(dp16
S'b'
(dp17
S'name'
p18
S'A'
sg6
(dp19
sg8
(tsg9
I1414
sg12
((dp20
g10
((dp21
g2
S'line'
p22
sS'x'
I403
sS'smooth'
p23
I0
sS'y'
I502
s(dp24
g2
S'line'
p25
sS'x'
I703
sg23
I0
sS'y'
I1275
s(dp26
g2
S'line'
p27
sS'x'
I705
sg23
I0
sS'y'
I1275
s(dp28
g2
S'line'
p29
sS'x'
I1004
sg23
I0
sS'y'
I502
stp30
s(dp31
g10
((dp32
g2
S'curve'
p33
sS'x'
I150
sg23
I1
sS'y'
I0
s(dp34
S'y'
I0
sS'x'
I181
sg23
I0
s(dp35
S'y'
I15
sS'x'
I214
sg23
I0
s(dp36
g2
S'curve'
p37
sS'x'
I229
sg23
I1
sS'y'
I53
s(dp38
g2
S'line'
p39
sS'x'
I356
sg23
I0
sS'y'
I373
s(dp40
g2
S'line'
p41
sS'x'
I1051
sg23
I0
sS'y'
I373
s(dp42
g2
S'line'
p43
sS'x'
I1179
sg23
I1
sS'y'
I53
s(dp44
S'y'
I17
sS'x'
I1193
sg23
I0
s(dp45
S'y'
I0
sS'x'
I1228
sg23
I0
s(dp46
g2
S'curve'
p47
sS'x'
I1260
sg23
I1
sS'y'
I0
s(dp48
S'y'
I0
sS'x'
I1306
sg23
I0
s(dp49
S'y'
I31
sS'x'
I1354
sg23
I0
s(dp50
g2
S'curve'
p51
sS'x'
I1354
sg23
I1
sS'y'
I80
s(dp52
S'y'
I87
sS'x'
I1354
sg23
I0
s(dp53
S'y'
I97
sS'x'
I1352
sg23
I0
s(dp54
g2
S'curve'
p55
sS'x'
I1349
sg23
I0
sS'y'
I108
s(dp56
g2
S'line'
p57
sS'x'
I871
sg23
I1
sS'y'
I1288
s(dp58
S'y'
I1420
sS'x'
I817
sg23
I0
s(dp59
S'y'
I1430
sS'x'
I777
sg23
I0
s(dp60
g2
S'curve'
p61
sS'x'
I710
sg23
I1
sS'y'
I1430
s(dp62
S'y'
I1430
sS'x'
I644
sg23
I0
s(dp63
S'y'
I1413
sS'x'
I596
sg23
I0
s(dp64
g2
S'curve'
p65
sS'x'
I542
sg23
I1
sS'y'
I1280
s(dp66
g2
S'line'
p67
sS'x'
I66
sg23
I1
sS'y'
I108
s(dp68
S'y'
I97
sS'x'
I62
sg23
I0
s(dp69
S'y'
I87
sS'x'
I60
sg23
I0
s(dp70
g2
S'curve'
p71
sS'x'
I60
sg23
I1
sS'y'
I78
s(dp72
S'y'
I32
sS'x'
I60
sg23
I0
s(dp73
S'y'
I0
sS'x'
I106
sg23
I0
stp74
stp75
sg14
(tsg5
(tsssg18
S'A'
s."
AnchorPoint: "ogonek" 1266 19 basechar 0
LayerCount: 2
Fore
SplineSet
1010 502 m 1
 392 502 l 1
 701 1279 l 5
 1010 502 l 1
1189 50 m 2
 1204 11 1235 -5 1265 -5 c 0
 1305 -5 1343 25 1343 68 c 0
 1343 78 1341 89 1336 101 c 2
 850 1294 l 6
 806 1405 764 1425 701 1425 c 4
 637 1425 596 1405 552 1294 c 6
 66 101 l 2
 61 89 59 78 59 68 c 0
 59 25 97 -5 137 -5 c 0
 167 -5 198 11 213 50 c 2
 345 384 l 1
 1057 384 l 1
 1189 50 l 2
EndSplineSet
EndChar

StartChar: AE
Encoding: 133 198 1
Width: 1961
VWidth: 0
GlyphClass: 2
Flags: HW
PickledData: "(dp1
S'com.typemytype.robofont.layerData'
p2
(dp3
S'b'
(dp4
S'name'
p5
S'AE'
p6
sS'lib'
p7
(dp8
sS'unicodes'
p9
(tsS'width'
p10
I1976
sS'contours'
p11
(tsS'components'
p12
(tsS'anchors'
p13
(tsss."
LayerCount: 2
Fore
SplineSet
1250 0 m 2
 1855 0 l 2
 1856 0 1856 0 1857 -0 c 0
 1897 0 1915 29 1915 58 c 0
 1915 95 1886 135 1836 135 c 2
 1312 135 l 1
 1224 667 l 1
 1803 667 l 2
 1845 667 1865 694 1865 724 c 0
 1865 762 1836 801 1786 801 c 2
 1204 801 l 1
 1126 1288 l 1
 1835 1288 l 2
 1876 1288 1895 1316 1895 1346 c 0
 1895 1383 1866 1424 1816 1424 c 2
 1000 1424 l 2
 943 1424 893 1409 821 1286 c 1
 65 99 l 2
 56 84 51 71 51 60 c 0
 51 23 81 -1 119 -1 c 0
 147 -1 177 12 196 47 c 1
 408 377 l 1
 1110 377 l 1
 1167 47 l 2
 1174 7 1213 0 1250 0 c 2
486 506 m 1
 965 1296 l 1
 968 1296 l 1
 1094 506 l 1
 486 506 l 1
EndSplineSet
EndChar

StartChar: B
Encoding: 34 66 13
Width: 1278
VWidth: 0
GlyphClass: 2
Flags: HW
PickledData: "(dp1
S'segmentType'
p2
S'curve'
p3
sS'b'
(dp4
sS'anchors'
p5
(tsS'lib'
p6
(dp7
sS'unicodes'
p8
(tsS'width'
p9
I1395
sS'points'
p10
(dp11
sS'contours'
p12
(dp13
sS'components'
p14
(tsS'y'
I1260
sS'x'
I676
sS'com.typemytype.robofont.layerData'
p15
(dp16
S'b'
(dp17
S'name'
p18
S'B'
sg6
(dp19
sg8
(tsg9
I1292
sg12
((dp20
g10
((dp21
g2
S'curve'
p22
sS'x'
I266
sS'smooth'
p23
I1
sS'y'
I0
s(dp24
g2
S'line'
p25
sS'x'
I1035
sg23
I1
sS'y'
I0
s(dp26
S'y'
I0
sS'x'
I1084
sg23
I0
s(dp27
S'y'
I36
sS'x'
I1108
sg23
I0
s(dp28
g2
S'curve'
p29
sS'x'
I1108
sg23
I1
sS'y'
I73
s(dp30
S'y'
I109
sS'x'
I1108
sg23
I0
s(dp31
S'y'
I145
sS'x'
I1084
sg23
I0
s(dp32
g2
S'curve'
p33
sS'x'
I1035
sg23
I1
sS'y'
I145
s(dp34
g2
S'line'
p35
sS'x'
I353
sg23
I0
sS'y'
I145
s(dp36
g2
S'line'
p37
sS'x'
I353
sg23
I0
sS'y'
I662
s(dp38
g2
S'line'
p39
sS'x'
I975
sg23
I1
sS'y'
I662
s(dp40
S'y'
I662
sS'x'
I1024
sg23
I0
s(dp41
S'y'
I698
sS'x'
I1049
sg23
I0
s(dp42
g2
S'curve'
p43
sS'x'
I1049
sg23
I1
sS'y'
I734
s(dp44
S'y'
I770
sS'x'
I1049
sg23
I0
s(dp45
S'y'
I806
sS'x'
I1026
sg23
I0
s(dp46
g2
S'curve'
p47
sS'x'
I975
sg23
I1
sS'y'
I806
s(dp48
g2
S'line'
p49
sS'x'
I353
sg23
I0
sS'y'
I806
s(dp50
g2
S'line'
p51
sS'x'
I353
sg23
I0
sS'y'
I1281
s(dp52
g2
S'line'
p53
sS'x'
I1007
sg23
I1
sS'y'
I1281
s(dp54
S'y'
I1281
sS'x'
I1056
sg23
I0
s(dp55
S'y'
I1317
sS'x'
I1080
sg23
I0
s(dp56
g2
S'curve'
p57
sS'x'
I1080
sg23
I1
sS'y'
I1354
s(dp58
S'y'
I1390
sS'x'
I1080
sg23
I0
s(dp59
S'y'
I1426
sS'x'
I1056
sg23
I0
s(dp60
g2
S'curve'
p61
sS'x'
I1007
sg23
I1
sS'y'
I1426
s(dp62
g2
S'line'
p63
sS'x'
I261
sg23
I1
sS'y'
I1426
s(dp64
S'y'
I1426
sS'x'
I213
sg23
I0
s(dp65
S'y'
I1383
sS'x'
I178
sg23
I0
s(dp66
g2
S'curve'
p67
sS'x'
I178
sg23
I1
sS'y'
I1340
s(dp68
g2
S'line'
p69
sS'x'
I178
sg23
I1
sS'y'
I86
s(dp70
S'y'
I41
sS'x'
I178
sg23
I0
s(dp71
S'y'
I0
sS'x'
I222
sg23
I0
stp72
stp73
sg14
(tsg5
(tsssg18
S'B'
s."
LayerCount: 2
Fore
SplineSet
260 0 m 2
 726 0 l 2
 1058 0 1194 186 1194 383 c 0
 1194 597 1050 722 833 741 c 1
 833 745 l 1
 1031 764 1135 913 1135 1065 c 0
 1135 1284 995 1424 641 1424 c 2
 260 1424 l 2
 216 1424 179 1390 179 1347 c 2
 179 77 l 2
 179 33 216 0 260 0 c 2
338 126 m 1
 338 673 l 1
 616 673 l 2
 884 673 1025 606 1025 403 c 0
 1025 187 915 126 687 126 c 2
 338 126 l 1
338 797 m 1
 338 1300 l 1
 645 1300 l 2
 815 1300 979 1264 979 1063 c 0
 979 876 860 797 628 797 c 2
 338 797 l 1
EndSplineSet
EndChar

StartChar: C
Encoding: 35 67 14
Width: 1354
VWidth: 0
GlyphClass: 2
Flags: HW
PickledData: "(dp1
S'b'
(dp2
sS'anchors'
p3
(tsS'lib'
p4
(dp5
sS'unicodes'
p6
(tsS'width'
p7
I1354
sS'contours'
p8
(tsS'components'
p9
(tsS'com.typemytype.robofont.layerData'
p10
(dp11
S'b'
(dp12
S'name'
p13
S'C'
sg4
(dp14
sg6
(tsg7
F1353.8900000000001
sg8
(tsg9
(tsg3
(tsssg13
S'C'
s."
LayerCount: 2
Fore
SplineSet
782 -22 m 0
 961 -22 1082 36 1158 86 c 0
 1193 109 1206 135 1206 157 c 0
 1206 189 1179 214 1146 214 c 0
 1134 214 1122 210 1110 203 c 0
 1020 149 935 107 801 107 c 0
 428 107 303 409 303 702 c 0
 303 994 433 1301 797 1301 c 0
 982 1301 1053 1252 1092 1231 c 0
 1104 1225 1115 1222 1125 1222 c 0
 1159 1222 1181 1252 1181 1283 c 0
 1181 1302 1172 1322 1152 1334 c 0
 1115 1357 1006 1430 794 1430 c 0
 350 1430 131 1075 131 701 c 0
 131 312 342 -22 782 -22 c 0
EndSplineSet
EndChar

StartChar: D
Encoding: 36 68 20
Width: 1493
VWidth: 0
GlyphClass: 2
Flags: HW
PickledData: "(dp1
S'b'
(dp2
sS'anchors'
p3
(tsS'lib'
p4
(dp5
sS'unicodes'
p6
(tsS'width'
p7
I1535
sS'contours'
p8
(tsS'components'
p9
(tsS'com.typemytype.robofont.layerData'
p10
(dp11
S'b'
(dp12
S'name'
p13
S'D'
sg4
(dp14
sg6
(tsg7
I1499
sg8
((dp15
S'points'
p16
((dp17
S'segmentType'
p18
S'curve'
p19
sS'x'
I266
sS'smooth'
p20
I1
sS'y'
I0
s(dp21
g18
S'line'
p22
sS'x'
I1035
sg20
I1
sS'y'
I0
s(dp23
S'y'
I0
sS'x'
I1084
sg20
I0
s(dp24
S'y'
I34
sS'x'
I1108
sg20
I0
s(dp25
g18
S'curve'
p26
sS'x'
I1108
sg20
I1
sS'y'
I71
s(dp27
S'y'
I107
sS'x'
I1108
sg20
I0
s(dp28
S'y'
I141
sS'x'
I1084
sg20
I0
s(dp29
g18
S'curve'
p30
sS'x'
I1035
sg20
I1
sS'y'
I141
s(dp31
g18
S'line'
p32
sS'x'
I356
sg20
I0
sS'y'
I141
s(dp33
g18
S'line'
p34
sS'x'
I356
sg20
I0
sS'y'
I665
s(dp35
g18
S'line'
p36
sS'x'
I975
sg20
I1
sS'y'
I665
s(dp37
S'y'
I665
sS'x'
I1024
sg20
I0
s(dp38
S'y'
I698
sS'x'
I1049
sg20
I0
s(dp39
g18
S'curve'
p40
sS'x'
I1049
sg20
I1
sS'y'
I734
s(dp41
S'y'
I770
sS'x'
I1049
sg20
I0
s(dp42
S'y'
I803
sS'x'
I1026
sg20
I0
s(dp43
g18
S'curve'
p44
sS'x'
I975
sg20
I1
sS'y'
I803
s(dp45
g18
S'line'
p46
sS'x'
I356
sg20
I0
sS'y'
I803
s(dp47
g18
S'line'
p48
sS'x'
I356
sg20
I0
sS'y'
I1285
s(dp49
g18
S'line'
p50
sS'x'
I1007
sg20
I1
sS'y'
I1285
s(dp51
S'y'
I1285
sS'x'
I1056
sg20
I0
s(dp52
S'y'
I1319
sS'x'
I1080
sg20
I0
s(dp53
g18
S'curve'
p54
sS'x'
I1080
sg20
I1
sS'y'
I1356
s(dp55
S'y'
I1392
sS'x'
I1080
sg20
I0
s(dp56
S'y'
I1426
sS'x'
I1056
sg20
I0
s(dp57
g18
S'curve'
p58
sS'x'
I1007
sg20
I1
sS'y'
I1426
s(dp59
g18
S'line'
p60
sS'x'
I261
sg20
I1
sS'y'
I1426
s(dp61
S'y'
I1426
sS'x'
I213
sg20
I0
s(dp62
S'y'
I1383
sS'x'
I178
sg20
I0
s(dp63
g18
S'curve'
p64
sS'x'
I178
sg20
I1
sS'y'
I1340
s(dp65
g18
S'line'
p66
sS'x'
I178
sg20
I1
sS'y'
I86
s(dp67
S'y'
I41
sS'x'
I178
sg20
I0
s(dp68
S'y'
I0
sS'x'
I222
sg20
I0
stp69
stp70
sg9
(tsg3
(tsssg13
S'D'
s."
AnchorPoint: "mid" 298 708 basechar 0
LayerCount: 2
Fore
SplineSet
260 0 m 2
 600 0 l 2
 1083 0 1361 242 1361 709 c 0
 1361 1178 1091 1424 599 1424 c 2
 260 1424 l 2
 215 1424 179 1388 179 1346 c 2
 179 78 l 2
 179 35 215 0 260 0 c 2
341 128 m 1
 341 1295 l 1
 568 1295 l 2
 989 1295 1192 1136 1192 711 c 0
 1192 334 1039 128 605 128 c 2
 341 128 l 1
EndSplineSet
EndChar

StartChar: Dcroat
Encoding: 207 272 22
Width: 1495
VWidth: 0
GlyphClass: 2
Flags: HW
LayerCount: 2
Fore
SplineSet
68 666 m 2
 536 666 l 2
 578 666 604 687 604 721 c 0
 604 756 578 778 536 778 c 2
 66 778 l 2
 24 778 -3 756 -3 721 c 0
 -3 687 25 666 68 666 c 2
EndSplineSet
Refer: 20 68 N 1 0 0 1 0 0 2
EndChar

StartChar: uni0394
Encoding: 413 916 23
Width: 1178
VWidth: 0
GlyphClass: 2
Flags: HW
LayerCount: 2
Fore
SplineSet
1 0 m 1
 1178 0 l 1
 643 1387 l 2
 632 1417 611 1432 591 1432 c 0
 571 1432 550 1417 538 1387 c 2
 1 0 l 1
163 84 m 1
 590 1240 l 1
 1021 84 l 1
 163 84 l 1
EndSplineSet
EndChar

StartChar: E
Encoding: 37 69 24
Width: 1230
VWidth: 0
GlyphClass: 2
Flags: HW
PickledData: "(dp1
S'b'
(dp2
sS'anchors'
p3
(tsS'lib'
p4
(dp5
sS'unicodes'
p6
(tsS'width'
p7
I1258
sS'contours'
p8
(tsS'components'
p9
(tsS'com.typemytype.robofont.layerData'
p10
(dp11
S'b'
(dp12
S'name'
p13
S'E'
sg4
(dp14
sg6
(tsg7
I1234
sg8
(tsg9
(tsg3
(tsssg13
S'E'
s."
AnchorPoint: "ogonek" 810 9 basechar 0
LayerCount: 2
Fore
SplineSet
259 0 m 2
 1032 0 l 2
 1078 0 1101 30 1101 65 c 0
 1101 99 1078 128 1032 128 c 2
 341 128 l 1
 341 671 l 1
 972 671 l 2
 1018 671 1042 700 1042 734 c 0
 1042 767 1020 797 972 797 c 2
 341 797 l 1
 341 1296 l 1
 1003 1296 l 2
 1049 1296 1072 1325 1072 1360 c 0
 1072 1394 1049 1424 1003 1424 c 2
 254 1424 l 2
 210 1424 179 1384 179 1346 c 2
 179 78 l 2
 179 38 219 0 259 0 c 2
EndSplineSet
EndChar

StartChar: Eng
Encoding: 265 330 33
Width: 1484
VWidth: 0
GlyphClass: 2
Flags: HW
PickledData: "(dp1
S'com.typemytype.robofont.layerData'
p2
(dp3
S'b'
(dp4
S'name'
p5
S'Eng'
p6
sS'lib'
p7
(dp8
sS'unicodes'
p9
(tsS'width'
p10
I1495
sS'contours'
p11
(tsS'components'
p12
(tsS'anchors'
p13
(tsss."
LayerCount: 2
Fore
SplineSet
637 -398 m 0
 753 -422 855 -437 942 -437 c 0
 1181 -437 1311 -322 1311 49 c 2
 1311 1350 l 2
 1311 1399 1274 1424 1236 1424 c 0
 1196 1424 1161 1399 1161 1350 c 0
 1161 219 l 1
 399 1343 l 2
 361 1399 314 1424 278 1424 c 0
 222 1424 182 1384 182 1313 c 2
 182 73 l 2
 182 24 217 0 257 0 c 0
 296 0 331 25 331 73 c 2
 331 1187 l 1
 1161 6.66333074231 l 1
 1161 -7 l 2
 1161 -217 1112 -316 937 -316 c 0
 867 -316 776 -300 658 -269 c 0
 650 -267 642 -266 635 -266 c 0
 594 -266 566 -297 566 -330 c 0
 566 -358 587 -388 637 -398 c 0
EndSplineSet
EndChar

StartChar: Euro
Encoding: 461 8364 36
Width: 1377
VWidth: 0
GlyphClass: 2
Flags: HW
LayerCount: 2
Fore
SplineSet
54 505 m 2
 953 505 l 2
 986 505 1002 532 1002 560 c 0
 1002 589 985 618 954 618 c 2
 54 618 l 2
 26 618 11 589 11 560 c 0
 11 532 25 505 54 505 c 2
54 740 m 2
 953 740 l 2
 986 740 1002 768 1002 796 c 0
 1002 825 985 854 954 854 c 2
 54 854 l 2
 26 854 11 824 11 795 c 0
 11 767 25 740 54 740 c 2
EndSplineSet
Refer: 14 67 N 1 0 0 1 47 0 2
EndChar

StartChar: F
Encoding: 38 70 37
Width: 1136
VWidth: 0
GlyphClass: 2
Flags: HW
PickledData: "(dp1
S'b'
(dp2
sS'anchors'
p3
(tsS'lib'
p4
(dp5
sS'unicodes'
p6
(tsS'width'
p7
I1175
sS'contours'
p8
(tsS'components'
p9
(tsS'com.typemytype.robofont.layerData'
p10
(dp11
S'b'
(dp12
S'name'
p13
S'F'
sg4
(dp14
sg6
(tsg7
I1142
sg8
((dp15
S'points'
p16
((dp17
S'segmentType'
p18
S'curve'
p19
sS'x'
I266
sS'smooth'
p20
I1
sS'y'
I0
s(dp21
g18
S'line'
p22
sS'x'
I1035
sg20
I1
sS'y'
I0
s(dp23
S'y'
I0
sS'x'
I1084
sg20
I0
s(dp24
S'y'
I34
sS'x'
I1108
sg20
I0
s(dp25
g18
S'curve'
p26
sS'x'
I1108
sg20
I1
sS'y'
I71
s(dp27
S'y'
I107
sS'x'
I1108
sg20
I0
s(dp28
S'y'
I141
sS'x'
I1084
sg20
I0
s(dp29
g18
S'curve'
p30
sS'x'
I1035
sg20
I1
sS'y'
I141
s(dp31
g18
S'line'
p32
sS'x'
I353
sg20
I0
sS'y'
I141
s(dp33
g18
S'line'
p34
sS'x'
I353
sg20
I0
sS'y'
I665
s(dp35
g18
S'line'
p36
sS'x'
I975
sg20
I1
sS'y'
I665
s(dp37
S'y'
I665
sS'x'
I1024
sg20
I0
s(dp38
S'y'
I698
sS'x'
I1049
sg20
I0
s(dp39
g18
S'curve'
p40
sS'x'
I1049
sg20
I1
sS'y'
I734
s(dp41
S'y'
I770
sS'x'
I1049
sg20
I0
s(dp42
S'y'
I803
sS'x'
I1026
sg20
I0
s(dp43
g18
S'curve'
p44
sS'x'
I975
sg20
I1
sS'y'
I803
s(dp45
g18
S'line'
p46
sS'x'
I353
sg20
I0
sS'y'
I803
s(dp47
g18
S'line'
p48
sS'x'
I353
sg20
I0
sS'y'
I1285
s(dp49
g18
S'line'
p50
sS'x'
I1007
sg20
I1
sS'y'
I1285
s(dp51
S'y'
I1285
sS'x'
I1056
sg20
I0
s(dp52
S'y'
I1319
sS'x'
I1080
sg20
I0
s(dp53
g18
S'curve'
p54
sS'x'
I1080
sg20
I1
sS'y'
I1356
s(dp55
S'y'
I1392
sS'x'
I1080
sg20
I0
s(dp56
S'y'
I1426
sS'x'
I1056
sg20
I0
s(dp57
g18
S'curve'
p58
sS'x'
I1007
sg20
I1
sS'y'
I1426
s(dp59
g18
S'line'
p60
sS'x'
I261
sg20
I1
sS'y'
I1426
s(dp61
S'y'
I1426
sS'x'
I213
sg20
I0
s(dp62
S'y'
I1383
sS'x'
I178
sg20
I0
s(dp63
g18
S'curve'
p64
sS'x'
I178
sg20
I1
sS'y'
I1340
s(dp65
g18
S'line'
p66
sS'x'
I178
sg20
I1
sS'y'
I86
s(dp67
S'y'
I41
sS'x'
I178
sg20
I0
s(dp68
S'y'
I0
sS'x'
I222
sg20
I0
stp69
stp70
sg9
(tsg3
(tsssg13
S'F'
s."
LayerCount: 2
Fore
SplineSet
261 0 m 0
 300 0 341 24 341 76 c 2
 341 676 l 1
 937 676 l 2
 983 676 1007 707 1007 741 c 0
 1007 775 983 803 937 803 c 2
 341 803 l 1
 341 1296 l 1
 963 1296 l 2
 1008 1296 1031 1325 1031 1360 c 0
 1031 1394 1008 1424 963 1424 c 2
 255 1424 l 2
 214 1424 179 1394 179 1347 c 2
 179 76 l 2
 179 25 220 0 261 0 c 0
EndSplineSet
EndChar

StartChar: G
Encoding: 39 71 38
Width: 1440
VWidth: 0
GlyphClass: 2
Flags: HW
PickledData: "(dp1
S'b'
(dp2
sS'anchors'
p3
(tsS'lib'
p4
(dp5
sS'unicodes'
p6
(tsS'width'
p7
I1538
sS'contours'
p8
(tsS'components'
p9
(tsS'com.typemytype.robofont.layerData'
p10
(dp11
S'b'
(dp12
S'name'
p13
S'G'
sg4
(dp14
sg6
(tsg7
I1448
sg8
((dp15
S'points'
p16
((dp17
S'segmentType'
p18
S'curve'
p19
sS'x'
I783
sS'smooth'
p20
I1
sS'y'
S'-22'
p21
s(dp22
S'y'
S'-22'
p23
sS'x'
I965
sg20
I0
s(dp24
S'y'
I34
sS'x'
I1086
sg20
I0
s(dp25
g18
S'curve'
p26
sS'x'
I1166
sg20
I1
sS'y'
I86
s(dp27
S'y'
I154
sS'x'
I1270
sg20
I0
s(dp28
S'y'
I258
sS'x'
I1186
sg20
I0
s(dp29
g18
S'curve'
p30
sS'x'
I1112
sg20
I1
sS'y'
I214
s(dp31
S'y'
I162
sS'x'
I1024
sg20
I0
s(dp32
S'y'
I120
sS'x'
I939
sg20
I0
s(dp33
g18
S'curve'
p34
sS'x'
I806
sg20
I1
sS'y'
I120
s(dp35
S'y'
I120
sS'x'
I446
sg20
I0
s(dp36
S'y'
I406
sS'x'
I316
sg20
I0
s(dp37
g18
S'curve'
p38
sS'x'
I316
sg20
I1
sS'y'
I706
s(dp39
S'y'
I1005
sS'x'
I316
sg20
I0
s(dp40
S'y'
I1296
sS'x'
I450
sg20
I0
s(dp41
g18
S'curve'
p42
sS'x'
I801
sg20
I1
sS'y'
I1296
s(dp43
S'y'
I1296
sS'x'
I980
sg20
I0
s(dp44
S'y'
I1246
sS'x'
I1053
sg20
I0
s(dp45
g18
S'curve'
p46
sS'x'
I1094
sg20
I1
sS'y'
I1225
s(dp47
S'y'
I1184
sS'x'
I1174
sg20
I0
s(dp48
S'y'
I1300
sS'x'
I1231
sg20
I0
s(dp49
g18
S'curve'
p50
sS'x'
I1156
sg20
I1
sS'y'
I1343
s(dp51
S'y'
I1372
sS'x'
I1106
sg20
I0
s(dp52
S'y'
I1438
sS'x'
I995
sg20
I0
s(dp53
g18
S'curve'
p54
sS'x'
I797
sg20
I1
sS'y'
I1438
s(dp55
S'y'
I1438
sS'x'
I359
sg20
I0
s(dp56
S'y'
I1093
sS'x'
I128
sg20
I0
s(dp57
g18
S'curve'
p58
sS'x'
I128
sg20
I1
sS'y'
I704
s(dp59
S'y'
I307
sS'x'
I128
sg20
I0
s(dp60
S'y'
S'-22'
p61
sS'x'
I350
sg20
I0
stp62
stp63
sg9
(tsg3
(tsssg13
S'G'
s."
LayerCount: 2
Fore
SplineSet
792 -22 m 0
 963 -22 1137 10 1257 56 c 0
 1288 69 1316 105 1316 147 c 2
 1316 665 l 2
 1316 707 1290 736 1248 736 c 2
 863 736 l 2
 820 736 799 701 799 672 c 0
 799 644 822 611 863 611 c 2
 1156 611 l 1
 1156 157 l 1
 1058 129 919 107 812 107 c 0
 445 107 303 379 303 704 c 0
 303 1055 481 1301 838 1301 c 0
 954 1301 1075 1273 1190 1237 c 0
 1192 1237 1204 1236 1204 1236 c 1
 1239 1236 1261 1270 1261 1303 c 0
 1261 1325 1252 1347 1227 1357 c 0
 1112 1405 974 1430 832 1430 c 0
 361 1430 131 1084 131 709 c 0
 131 216 421 -22 792 -22 c 0
EndSplineSet
EndChar

StartChar: H
Encoding: 40 72 44
Width: 1453
VWidth: 0
GlyphClass: 2
Flags: HW
PickledData: "(dp1
S'b'
(dp2
sS'anchors'
p3
(tsS'lib'
p4
(dp5
sS'unicodes'
p6
(tsS'width'
p7
I1524
sS'contours'
p8
(tsS'components'
p9
(tsS'com.typemytype.robofont.layerData'
p10
(dp11
S'b'
(dp12
S'name'
p13
S'H'
sg4
(dp14
sg6
(tsg7
I1464
sg8
(tsg9
(tsg3
(tsssg13
S'H'
s."
LayerCount: 2
Fore
SplineSet
259 0 m 0
 300 0 341 24 341 76 c 2
 341 674 l 1
 1112 674 l 1
 1112 76 l 2
 1112 25 1152 0 1192 0 c 0
 1233 0 1274 24 1274 76 c 2
 1274 1348 l 2
 1274 1399 1234 1424 1193 1424 c 0
 1152 1424 1112 1398 1112 1348 c 2
 1112 804 l 1
 341 804 l 1
 341 1348 l 2
 341 1399 301 1424 261 1424 c 0
 220 1424 179 1398 179 1348 c 2
 179 76 l 2
 179 25 219 0 259 0 c 0
EndSplineSet
EndChar

StartChar: Hbar
Encoding: 229 294 45
Width: 1456
VWidth: 0
GlyphClass: 2
Flags: HW
PickledData: "(dp1
S'com.typemytype.robofont.layerData'
p2
(dp3
S'b'
(dp4
S'name'
p5
S'Hbar'
p6
sS'lib'
p7
(dp8
sS'unicodes'
p9
(tsS'width'
p10
I1464
sS'contours'
p11
(tsS'components'
p12
(tsS'anchors'
p13
(tsss."
LayerCount: 2
Fore
SplineSet
123 1028 m 2
 1336 1028 l 2
 1375 1028 1400 1046 1400 1076 c 0
 1400 1107 1375 1125 1336 1125 c 2
 123 1125 l 2
 85 1125 60 1107 60 1076 c 0
 60 1046 85 1028 123 1028 c 2
EndSplineSet
Refer: 44 72 N 1 0 0 1 0 0 2
EndChar

StartChar: I
Encoding: 41 73 47
Width: 584
VWidth: 0
GlyphClass: 2
Flags: HW
PickledData: "(dp1
S'b'
(dp2
sS'anchors'
p3
(tsS'lib'
p4
(dp5
sS'unicodes'
p6
(tsS'width'
p7
I637
sS'contours'
p8
(tsS'components'
p9
(tsS'com.typemytype.robofont.layerData'
p10
(dp11
S'b'
(dp12
S'name'
p13
S'I'
sg4
(dp14
sg6
(tsg7
I592
sg8
(tsg9
(tsg3
(tsssg13
S'I'
s."
AnchorPoint: "ogonek" 288 23 basechar 0
LayerCount: 2
Fore
SplineSet
292 0 m 0
 333 0 374 24 374 76 c 2
 374 1346 l 2
 374 1398 334 1423 294 1423 c 0
 253 1423 212 1397 212 1346 c 2
 212 76 l 2
 212 25 252 0 292 0 c 0
EndSplineSet
EndChar

StartChar: J
Encoding: 42 74 58
Width: 993
VWidth: 0
GlyphClass: 2
Flags: HW
PickledData: "(dp1
S'b'
(dp2
sS'anchors'
p3
(tsS'lib'
p4
(dp5
sS'unicodes'
p6
(tsS'width'
p7
I1126
sS'contours'
p8
(tsS'components'
p9
(tsS'com.typemytype.robofont.layerData'
p10
(dp11
S'b'
(dp12
S'name'
p13
S'J'
sg4
(dp14
sg6
(tsg7
I1003
sg8
(tsg9
(tsg3
(tsssg13
S'J'
s."
LayerCount: 2
Fore
SplineSet
416 -20 m 0
 633 -20 852 103 852 441 c 2
 852 1349 l 2
 852 1400 812 1424 771 1424 c 0
 730 1424 689 1400 689 1349 c 2
 689 455 l 2
 689 217 593 114 422 114 c 0
 323 114 250 157 213 190 c 0
 185 213 161 222 141 222 c 0
 102 222 81 187 81 151 c 0
 81 132 86 117 94 105 c 0
 132 60 253 -20 416 -20 c 0
EndSplineSet
EndChar

StartChar: K
Encoding: 43 75 60
Width: 1226
VWidth: 0
GlyphClass: 2
Flags: HW
PickledData: "(dp1
S'b'
(dp2
sS'anchors'
p3
(tsS'lib'
p4
(dp5
sS'unicodes'
p6
(tsS'width'
p7
I1329
sS'contours'
p8
(tsS'components'
p9
(tsS'com.typemytype.robofont.layerData'
p10
(dp11
S'b'
(dp12
S'name'
p13
S'K'
sg4
(dp14
sg6
(tsg7
I1210
sg8
(tsg9
(tsg3
(tsssg13
S'K'
s."
LayerCount: 2
Fore
SplineSet
256 0 m 0
 296 0 337 24 337 75 c 2
 337 709 l 1
 1021 31 l 2
 1041 12 1062 0 1084 0 c 0
 1127 0 1160 29 1160 71 c 0
 1160 88 1155 107 1138 123 c 2
 503 738 l 1
 1085 1311 l 2
 1099 1325 1104 1343 1104 1359 c 0
 1104 1396 1076 1424 1036 1424 c 0
 1016 1424 997 1416 978 1398 c 2
 337 752 l 1
 337 1348 l 2
 337 1397 297 1424 258 1424 c 0
 218 1424 179 1398 179 1348 c 2
 179 75 l 2
 179 24 218 0 256 0 c 0
EndSplineSet
EndChar

StartChar: L
Encoding: 44 76 62
Width: 1089
VWidth: 0
GlyphClass: 2
Flags: HW
PickledData: "(dp1
S'b'
(dp2
sS'anchors'
p3
(tsS'lib'
p4
(dp5
sS'unicodes'
p6
(tsS'width'
p7
I1169
sS'contours'
p8
(tsS'components'
p9
(tsS'com.typemytype.robofont.layerData'
p10
(dp11
S'b'
(dp12
S'name'
p13
S'L'
sg4
(dp14
sg6
(tsg7
I1095
sg8
((dp15
S'points'
p16
((dp17
S'segmentType'
p18
S'curve'
p19
sS'x'
I266
sS'smooth'
p20
I1
sS'y'
I0
s(dp21
g18
S'line'
p22
sS'x'
I1035
sg20
I1
sS'y'
I0
s(dp23
S'y'
I0
sS'x'
I1084
sg20
I0
s(dp24
S'y'
I34
sS'x'
I1108
sg20
I0
s(dp25
g18
S'curve'
p26
sS'x'
I1108
sg20
I1
sS'y'
I71
s(dp27
S'y'
I107
sS'x'
I1108
sg20
I0
s(dp28
S'y'
I141
sS'x'
I1084
sg20
I0
s(dp29
g18
S'curve'
p30
sS'x'
I1035
sg20
I1
sS'y'
I141
s(dp31
g18
S'line'
p32
sS'x'
I356
sg20
I0
sS'y'
I141
s(dp33
g18
S'line'
p34
sS'x'
I356
sg20
I0
sS'y'
I665
s(dp35
g18
S'line'
p36
sS'x'
I975
sg20
I1
sS'y'
I665
s(dp37
S'y'
I665
sS'x'
I1024
sg20
I0
s(dp38
S'y'
I698
sS'x'
I1049
sg20
I0
s(dp39
g18
S'curve'
p40
sS'x'
I1049
sg20
I1
sS'y'
I734
s(dp41
S'y'
I770
sS'x'
I1049
sg20
I0
s(dp42
S'y'
I803
sS'x'
I1026
sg20
I0
s(dp43
g18
S'curve'
p44
sS'x'
I975
sg20
I1
sS'y'
I803
s(dp45
g18
S'line'
p46
sS'x'
I356
sg20
I0
sS'y'
I803
s(dp47
g18
S'line'
p48
sS'x'
I356
sg20
I0
sS'y'
I1285
s(dp49
g18
S'line'
p50
sS'x'
I1007
sg20
I1
sS'y'
I1285
s(dp51
S'y'
I1285
sS'x'
I1056
sg20
I0
s(dp52
S'y'
I1319
sS'x'
I1080
sg20
I0
s(dp53
g18
S'curve'
p54
sS'x'
I1080
sg20
I1
sS'y'
I1356
s(dp55
S'y'
I1392
sS'x'
I1080
sg20
I0
s(dp56
S'y'
I1426
sS'x'
I1056
sg20
I0
s(dp57
g18
S'curve'
p58
sS'x'
I1007
sg20
I1
sS'y'
I1426
s(dp59
g18
S'line'
p60
sS'x'
I261
sg20
I1
sS'y'
I1426
s(dp61
S'y'
I1426
sS'x'
I213
sg20
I0
s(dp62
S'y'
I1383
sS'x'
I178
sg20
I0
s(dp63
g18
S'curve'
p64
sS'x'
I178
sg20
I1
sS'y'
I1340
s(dp65
g18
S'line'
p66
sS'x'
I178
sg20
I1
sS'y'
I86
s(dp67
S'y'
I41
sS'x'
I178
sg20
I0
s(dp68
S'y'
I0
sS'x'
I222
sg20
I0
stp69
stp70
sg9
(tsg3
(tsssg13
S'L'
s."
AnchorPoint: "mid" 259 691 basechar 0
LayerCount: 2
Fore
SplineSet
261 0 m 2
 1000 0 l 2
 1046 0 1069 30 1069 64 c 0
 1069 98 1048 128 1000 128 c 2
 341 128 l 1
 341 1348 l 2
 341 1399 301 1424 261 1424 c 0
 220 1424 179 1398 179 1348 c 2
 179 79 l 2
 179 34 217 0 261 0 c 2
EndSplineSet
EndChar

StartChar: Lslash
Encoding: 256 321 67
Width: 1146
VWidth: 0
GlyphClass: 2
Flags: HW
LayerCount: 2
Fore
SplineSet
83 641 m 2
 668 833 l 2
 699 843 713 868 713 893 c 0
 713 926 690 958 652 958 c 0
 645 958 637 957 628 954 c 2
 43 763 l 2
 9 752 -6 726 -6 700 c 0
 -6 668 17 636 56 636 c 0
 64 636 73 638 83 641 c 2
EndSplineSet
Refer: 62 76 N 1 0 0 1 0 0 2
EndChar

StartChar: M
Encoding: 45 77 68
Width: 1895
VWidth: 0
GlyphClass: 2
Flags: HW
PickledData: "(dp1
S'b'
(dp2
sS'anchors'
p3
(tsS'lib'
p4
(dp5
sS'unicodes'
p6
(tsS'width'
p7
I1984
sS'contours'
p8
(tsS'components'
p9
(tsS'com.typemytype.robofont.layerData'
p10
(dp11
S'b'
(dp12
S'name'
p13
S'M'
sg4
(dp14
sg6
(tsg7
I1899
sg8
(tsg9
(tsg3
(tsssg13
S'M'
s."
LayerCount: 2
Fore
SplineSet
949 30 m 0
 986 30 1025 54 1048 103 c 2
 1568 1235 l 5
 1568 62 l 2
 1568 21 1605 1 1642 1 c 0
 1679 1 1716 21 1716 62 c 2
 1716 1305 l 6
 1716 1371 1658 1423 1594 1423 c 4
 1546 1423 1495 1395 1461 1322 c 6
 949 214 l 1
 438 1322 l 6
 404 1395 352 1423 304 1423 c 4
 240 1423 182 1371 182 1305 c 6
 182 62 l 2
 182 21 219 1 256 1 c 0
 293 1 331 21 331 62 c 2
 331 1235 l 5
 851 103 l 2
 873 54 913 30 949 30 c 0
EndSplineSet
EndChar

StartChar: N
Encoding: 46 78 69
Width: 1489
VWidth: 0
GlyphClass: 2
Flags: HW
PickledData: "(dp1
S'b'
(dp2
sS'anchors'
p3
(tsS'lib'
p4
(dp5
sS'unicodes'
p6
(tsS'width'
p7
I1557
sS'contours'
p8
(tsS'components'
p9
(tsS'com.typemytype.robofont.layerData'
p10
(dp11
S'b'
(dp12
S'name'
p13
S'N'
sg4
(dp14
sg6
(tsg7
I1499
sg8
(tsg9
(tsg3
(tsssg13
S'N'
s."
LayerCount: 2
Fore
SplineSet
255 0 m 0
 294 0 329 25 329 73 c 2
 329 1187 l 1
 1101 53 l 2
 1127 14 1163 0 1201 0 c 0
 1261 0 1309 40 1309 111 c 2
 1309 1350 l 2
 1309 1399 1272 1424 1234 1424 c 0
 1194 1424 1159 1399 1159 1350 c 2
 1159 219 l 1
 397 1343 l 2
 359 1399 312 1424 276 1424 c 0
 220 1424 180 1384 180 1313 c 2
 180 73 l 2
 180 24 215 0 255 0 c 0
EndSplineSet
EndChar

StartChar: O
Encoding: 47 79 74
Width: 1596
VWidth: 0
GlyphClass: 2
Flags: HW
PickledData: "(dp1
S'b'
(dp2
sS'anchors'
p3
(tsS'com.typemytype.robofont.layerData'
p4
(dp5
S'b'
(dp6
S'name'
p7
S'O'
sS'lib'
p8
(dp9
sS'unicodes'
p10
(tsS'width'
p11
I1597
sS'contours'
p12
(tsS'components'
p13
(tsg3
(tsssg10
(tsS'com.typemytype.robofont.guides'
p14
(tsg11
I1604
sg12
(tsg13
(tsg8
(dp15
sg7
S'O'
s."
LayerCount: 2
Fore
SplineSet
798 107 m 0
 497 107 306 330 306 704 c 0
 306 1079 497 1301 798 1301 c 0
 1100 1301 1290 1079 1290 704 c 0
 1290 330 1100 107 798 107 c 0
798 -22 m 4
 1202 -22 1461 256 1461 704 c 0
 1461 1152 1202 1430 798 1430 c 0
 393 1430 135 1152 135 704 c 0
 135 256 393 -22 798 -22 c 4
EndSplineSet
EndChar

StartChar: OE
Encoding: 273 338 75
Width: 1998
VWidth: 0
GlyphClass: 2
Flags: HW
LayerCount: 2
Fore
SplineSet
720 -30 m 0
 850 -30 1089 -1 1093 -1 c 2
 1799 -1 l 2
 1844 -1 1869 31 1869 65 c 0
 1869 100 1844 133 1799 133 c 2
 1241 133 l 1
 1241 666 l 1
 1742 666 l 2
 1790 666 1815 699 1815 733 c 0
 1815 767 1790 801 1742 801 c 2
 1241 801 l 1
 1241 1290 l 1
 1772 1290 l 2
 1818 1290 1843 1323 1843 1357 c 0
 1843 1392 1818 1424 1772 1424 c 2
 1098 1424 l 2
 1092 1424 859 1452 725 1452 c 0
 349 1452 121 1158 121 711 c 0
 121 266 350 -30 720 -30 c 0
724 103 m 0
 420 103 284 400 284 712 c 0
 284 1023 421 1319 724 1319 c 0
 956 1319 1080 1296 1082 1297 c 1
 1082 131 l 1
 1081 130 942 106 724 103 c 0
EndSplineSet
EndChar

StartChar: Omega
Encoding: 464 8486 83
Width: 1486
VWidth: 0
GlyphClass: 2
Flags: HW
LayerCount: 2
Fore
SplineSet
309 0 m 2
 772 0 l 1
 534 344 328 677 328 922 c 0
 328 1158 476 1314 856 1314 c 0
 1238 1314 1386 1158 1386 922 c 0
 1386 677 1180 344 942 0 c 1
 1405 0 l 2
 1435 0 1450 32 1450 65 c 0
 1450 98 1435 130 1405 130 c 2
 1130 130 l 1
 1351 378 1528 670 1528 922 c 0
 1528 1236 1380 1460 856 1460 c 0
 390 1460 186 1232 186 922 c 0
 186 670 364 373 584 130 c 1
 309 130 l 2
 279 130 264 98 264 65 c 0
 264 32 279 0 309 0 c 2
EndSplineSet
EndChar

StartChar: Oslash
Encoding: 151 216 84
Width: 1596
VWidth: 0
GlyphClass: 2
Flags: HW
PickledData: "(dp1
S'com.typemytype.robofont.layerData'
p2
(dp3
S'b'
(dp4
S'name'
p5
S'Oslash'
p6
sS'lib'
p7
(dp8
sS'unicodes'
p9
(tsS'width'
p10
I1597
sS'contours'
p11
(tsS'components'
p12
(tsS'anchors'
p13
(tsss."
LayerCount: 2
Fore
SplineSet
271 -112 m 0
 289 -112 308 -107 327 -81 c 2
 1386 1433 l 2
 1399 1453 1405 1471 1405 1486 c 0
 1405 1518 1381 1539 1352 1539 c 0
 1334 1539 1312 1533 1294 1506 c 2
 230 -27 l 2
 222 -39 219 -50 219 -61 c 0
 219 -89 243 -112 271 -112 c 0
EndSplineSet
Refer: 74 79 N 1 0 0 1 0 0 2
EndChar

StartChar: P
Encoding: 48 80 87
Width: 1190
VWidth: 0
GlyphClass: 2
Flags: HW
PickledData: "(dp1
S'b'
(dp2
sS'anchors'
p3
(tsS'lib'
p4
(dp5
sS'unicodes'
p6
(tsS'width'
p7
I1319
sS'contours'
p8
(tsS'components'
p9
(tsS'com.typemytype.robofont.layerData'
p10
(dp11
S'b'
(dp12
S'name'
p13
S'P'
sg4
(dp14
sg6
(tsg7
I1201
sg8
((dp15
S'points'
p16
((dp17
S'segmentType'
p18
S'curve'
p19
sS'x'
I266
sS'smooth'
p20
I1
sS'y'
I0
s(dp21
g18
S'line'
p22
sS'x'
I1035
sg20
I1
sS'y'
I0
s(dp23
S'y'
I0
sS'x'
I1084
sg20
I0
s(dp24
S'y'
I34
sS'x'
I1108
sg20
I0
s(dp25
g18
S'curve'
p26
sS'x'
I1108
sg20
I1
sS'y'
I71
s(dp27
S'y'
I107
sS'x'
I1108
sg20
I0
s(dp28
S'y'
I141
sS'x'
I1084
sg20
I0
s(dp29
g18
S'curve'
p30
sS'x'
I1035
sg20
I1
sS'y'
I141
s(dp31
g18
S'line'
p32
sS'x'
I356
sg20
I0
sS'y'
I141
s(dp33
g18
S'line'
p34
sS'x'
I356
sg20
I0
sS'y'
I665
s(dp35
g18
S'line'
p36
sS'x'
I975
sg20
I1
sS'y'
I665
s(dp37
S'y'
I665
sS'x'
I1024
sg20
I0
s(dp38
S'y'
I698
sS'x'
I1049
sg20
I0
s(dp39
g18
S'curve'
p40
sS'x'
I1049
sg20
I1
sS'y'
I734
s(dp41
S'y'
I770
sS'x'
I1049
sg20
I0
s(dp42
S'y'
I803
sS'x'
I1026
sg20
I0
s(dp43
g18
S'curve'
p44
sS'x'
I975
sg20
I1
sS'y'
I803
s(dp45
g18
S'line'
p46
sS'x'
I356
sg20
I0
sS'y'
I803
s(dp47
g18
S'line'
p48
sS'x'
I356
sg20
I0
sS'y'
I1285
s(dp49
g18
S'line'
p50
sS'x'
I1007
sg20
I1
sS'y'
I1285
s(dp51
S'y'
I1285
sS'x'
I1056
sg20
I0
s(dp52
S'y'
I1319
sS'x'
I1080
sg20
I0
s(dp53
g18
S'curve'
p54
sS'x'
I1080
sg20
I1
sS'y'
I1356
s(dp55
S'y'
I1392
sS'x'
I1080
sg20
I0
s(dp56
S'y'
I1426
sS'x'
I1056
sg20
I0
s(dp57
g18
S'curve'
p58
sS'x'
I1007
sg20
I1
sS'y'
I1426
s(dp59
g18
S'line'
p60
sS'x'
I261
sg20
I1
sS'y'
I1426
s(dp61
S'y'
I1426
sS'x'
I213
sg20
I0
s(dp62
S'y'
I1383
sS'x'
I178
sg20
I0
s(dp63
g18
S'curve'
p64
sS'x'
I178
sg20
I1
sS'y'
I1340
s(dp65
g18
S'line'
p66
sS'x'
I178
sg20
I1
sS'y'
I86
s(dp67
S'y'
I41
sS'x'
I178
sg20
I0
s(dp68
S'y'
I0
sS'x'
I222
sg20
I0
stp69
stp70
sg9
(tsg3
(tsssg13
S'P'
s."
LayerCount: 2
Fore
SplineSet
260 0 m 0
 300 0 341 24 341 76 c 2
 341 636 l 1
 659 636 l 2
 945 636 1167 727 1167 1029 c 0
 1167 1324 980 1424 672 1424 c 2
 261 1424 l 2
 214 1424 179 1389 179 1345 c 2
 179 76 l 2
 179 25 219 0 260 0 c 0
341 761 m 1
 341 1295 l 1
 678 1295 l 2
 917 1295 1009 1212 1009 1029 c 0
 1009 841 901 761 662 761 c 2
 341 761 l 1
EndSplineSet
EndChar

StartChar: Q
Encoding: 49 81 88
Width: 1596
VWidth: 0
GlyphClass: 2
Flags: HW
PickledData: "(dp1
S'b'
(dp2
sS'anchors'
p3
(tsS'lib'
p4
(dp5
sS'unicodes'
p6
(tsS'width'
p7
I1604
sS'contours'
p8
(tsS'components'
p9
(tsS'com.typemytype.robofont.layerData'
p10
(dp11
S'b'
(dp12
S'name'
p13
S'Q'
sg4
(dp14
sg6
(tsg7
I1597
sg8
(tsg9
(tsg3
(tsssg13
S'Q'
s."
LayerCount: 2
Fore
SplineSet
1345 -234 m 0
 1379 -234 1409 -207 1409 -168 c 0
 1409 -144 1397 -119 1369 -107 c 2
 989 56 l 1
 730 27 l 1
 1315 -228 l 2
 1325 -232 1336 -234 1345 -234 c 0
EndSplineSet
Refer: 74 79 N 1 0 0 1 0 0 2
EndChar

StartChar: R
Encoding: 50 82 89
Width: 1337
VWidth: 0
GlyphClass: 2
Flags: HW
PickledData: "(dp1
S'b'
(dp2
sS'anchors'
p3
(tsS'com.typemytype.robofont.layerData'
p4
(dp5
S'b'
(dp6
S'name'
p7
S'R'
sS'lib'
p8
(dp9
sS'unicodes'
p10
(tsS'width'
p11
I1363
sS'contours'
p12
((dp13
S'points'
p14
((dp15
S'segmentType'
p16
S'curve'
p17
sS'x'
I267
sS'smooth'
p18
I1
sS'y'
I0
s(dp19
S'y'
I0
sS'x'
I311
sg18
I0
s(dp20
S'y'
I27
sS'x'
I356
sg18
I0
s(dp21
g16
S'curve'
p22
sS'x'
I356
sg18
I1
sS'y'
I84
s(dp23
g16
S'line'
p24
sS'x'
I356
sg18
I0
sS'y'
I628
s(dp25
g16
S'line'
p26
sS'x'
I669
sg18
I1
sS'y'
I628
s(dp27
S'y'
I628
sS'x'
I962
sg18
I0
s(dp28
S'y'
I722
sS'x'
I1182
sg18
I0
s(dp29
g16
S'curve'
p30
sS'x'
I1182
sg18
I1
sS'y'
I1026
s(dp31
S'y'
I1324
sS'x'
I1182
sg18
I0
s(dp32
S'y'
I1426
sS'x'
I993
sg18
I0
s(dp33
g16
S'curve'
p34
sS'x'
I684
sg18
I1
sS'y'
I1426
s(dp35
g16
S'line'
p36
sS'x'
I268
sg18
I1
sS'y'
I1426
s(dp37
S'y'
I1426
sS'x'
I217
sg18
I0
s(dp38
S'y'
I1387
sS'x'
I178
sg18
I0
s(dp39
g16
S'curve'
p40
sS'x'
I178
sg18
I1
sS'y'
I1339
s(dp41
g16
S'line'
p42
sS'x'
I178
sg18
I1
sS'y'
I84
s(dp43
S'y'
I28
sS'x'
I178
sg18
I0
s(dp44
S'y'
I0
sS'x'
I222
sg18
I0
stp45
s(dp46
g14
((dp47
g16
S'line'
p48
sS'x'
I356
sg18
I0
sS'y'
I764
s(dp49
g16
S'line'
p50
sS'x'
I356
sg18
I0
sS'y'
I1285
s(dp51
g16
S'line'
p52
sS'x'
I684
sg18
I1
sS'y'
I1285
s(dp53
S'y'
I1285
sS'x'
I914
sg18
I0
s(dp54
S'y'
I1210
sS'x'
I1008
sg18
I0
s(dp55
g16
S'curve'
p56
sS'x'
I1008
sg18
I1
sS'y'
I1026
s(dp57
S'y'
I838
sS'x'
I1008
sg18
I0
s(dp58
S'y'
I764
sS'x'
I901
sg18
I0
s(dp59
g16
S'curve'
p60
sS'x'
I670
sg18
I1
sS'y'
I764
stp61
stp62
sS'components'
p63
(tsg3
(tsssg10
(tsS'com.typemytype.robofont.guides'
p64
(tsg11
I1408
sg12
(tsg63
(tsg8
(dp65
sg7
S'R'
s."
LayerCount: 2
Fore
SplineSet
259 0 m 0
 299 0 341 24 341 76 c 2
 341 671 l 1
 711 671 l 1
 926 670 967 624 996 363 c 2
 1029 75 l 2
 1035 24 1078 0 1118 0 c 0
 1160 0 1192 31 1192 77 c 0
 1192 81 1191 85 1191 89 c 2
 1152 431 l 1
 1131 604 1057 709 902 740 c 1
 902 744 l 1
 1099 786 1188 912 1188 1069 c 0
 1188 1371 925 1424 684 1424 c 2
 260 1424 l 2
 215 1424 179 1388 179 1346 c 2
 179 76 l 2
 179 25 219 0 259 0 c 0
341 796 m 1
 341 1295 l 1
 692 1295 l 2
 836 1295 1028 1273 1028 1059 c 0
 1028 844 862 796 680 796 c 2
 341 796 l 1
EndSplineSet
EndChar

StartChar: S
Encoding: 51 83 93
Width: 1266
VWidth: 0
GlyphClass: 2
Flags: HW
PickledData: "(dp1
S'b'
(dp2
sS'anchors'
p3
(tsS'lib'
p4
(dp5
sS'unicodes'
p6
(tsS'width'
p7
I1317
sS'contours'
p8
(tsS'components'
p9
(tsS'com.typemytype.robofont.layerData'
p10
(dp11
S'b'
(dp12
S'name'
p13
S'S'
sg4
(dp14
sg6
(tsg7
I1274
sg8
(tsg9
(tsg3
(tsssg13
S'S'
s."
LayerCount: 2
Fore
SplineSet
625 -22 m 0
 940 -22 1143 117 1143 381 c 0
 1143 598 1000 684 801 750 c 2
 539 836 l 2
 384 886 304 943 304 1066 c 0
 304 1206 435 1301 648 1301 c 0
 818 1301 955 1219 1002 1184 c 0
 1015 1174 1028 1170 1041 1170 c 0
 1075 1170 1106 1200 1106 1232 c 0
 1106 1246 1100 1261 1086 1274 c 0
 1012 1345 833 1430 635 1430 c 0
 363 1430 148 1289 148 1062 c 0
 148 862 276 773 462 711 c 2
 722 623 l 1
 902 564 986 516 986 354 c 0
 986 190 831 107 638 107 c 0
 465 107 330 178 253 244 c 0
 246 250 238 253 229 253 c 0
 193 253 148 212 148 179 c 0
 148 170 151 162 158 155 c 0
 261 55 415 -22 625 -22 c 0
EndSplineSet
EndChar

StartChar: Sigma
Encoding: 414 931 99
Width: 1368
VWidth: 0
GlyphClass: 2
Flags: HW
LayerCount: 2
Fore
SplineSet
232 -94 m 2
 1161 -94 l 2
 1199 -94 1218 -56 1218 -19 c 0
 1218 19 1199 56 1161 56 c 2
 310 56 l 1
 811 567 l 2
 849 606 868 637 868 667 c 0
 868 698 849 729 811 768 c 2
 311 1279 l 1
 1161 1280 l 2
 1199 1280 1218 1318 1218 1355 c 0
 1218 1392 1199 1429 1161 1429 c 2
 250 1429 l 2
 191 1429 139 1384 139 1321 c 0
 139 1287 155 1247 193 1207 c 2
 711 672 l 1
 193 118 l 2
 154 76 138 35 138 1 c 0
 138 -55 181 -94 232 -94 c 2
EndSplineSet
EndChar

StartChar: T
Encoding: 52 84 100
Width: 1151
VWidth: 0
GlyphClass: 2
Flags: HW
PickledData: "(dp1
S'b'
(dp2
sS'anchors'
p3
(tsS'lib'
p4
(dp5
sS'unicodes'
p6
(tsS'width'
p7
I1199
sS'contours'
p8
(tsS'components'
p9
(tsS'com.typemytype.robofont.layerData'
p10
(dp11
S'b'
(dp12
S'name'
p13
S'T'
sg4
(dp14
sg6
(tsg7
I1158
sg8
((dp15
S'points'
p16
((dp17
S'segmentType'
p18
S'curve'
p19
sS'x'
I581
sS'smooth'
p20
I1
sS'y'
I0
s(dp21
g18
S'line'
p22
sS'x'
I1350
sg20
I1
sS'y'
I0
s(dp23
S'y'
I0
sS'x'
I1399
sg20
I0
s(dp24
S'y'
I34
sS'x'
I1423
sg20
I0
s(dp25
g18
S'curve'
p26
sS'x'
I1423
sg20
I1
sS'y'
I71
s(dp27
S'y'
I107
sS'x'
I1423
sg20
I0
s(dp28
S'y'
I141
sS'x'
I1399
sg20
I0
s(dp29
g18
S'curve'
p30
sS'x'
I1350
sg20
I1
sS'y'
I141
s(dp31
g18
S'line'
p32
sS'x'
I671
sg20
I0
sS'y'
I141
s(dp33
g18
S'line'
p34
sS'x'
I671
sg20
I0
sS'y'
I665
s(dp35
g18
S'line'
p36
sS'x'
I1290
sg20
I1
sS'y'
I665
s(dp37
S'y'
I665
sS'x'
I1339
sg20
I0
s(dp38
S'y'
I698
sS'x'
I1364
sg20
I0
s(dp39
g18
S'curve'
p40
sS'x'
I1364
sg20
I1
sS'y'
I734
s(dp41
S'y'
I770
sS'x'
I1364
sg20
I0
s(dp42
S'y'
I803
sS'x'
I1341
sg20
I0
s(dp43
g18
S'curve'
p44
sS'x'
I1290
sg20
I1
sS'y'
I803
s(dp45
g18
S'line'
p46
sS'x'
I671
sg20
I0
sS'y'
I803
s(dp47
g18
S'line'
p48
sS'x'
I671
sg20
I0
sS'y'
I1285
s(dp49
g18
S'line'
p50
sS'x'
I1322
sg20
I1
sS'y'
I1285
s(dp51
S'y'
I1285
sS'x'
I1371
sg20
I0
s(dp52
S'y'
I1319
sS'x'
I1395
sg20
I0
s(dp53
g18
S'curve'
p54
sS'x'
I1395
sg20
I1
sS'y'
I1356
s(dp55
S'y'
I1392
sS'x'
I1395
sg20
I0
s(dp56
S'y'
I1426
sS'x'
I1371
sg20
I0
s(dp57
g18
S'curve'
p58
sS'x'
I1322
sg20
I1
sS'y'
I1426
s(dp59
g18
S'line'
p60
sS'x'
I576
sg20
I1
sS'y'
I1426
s(dp61
S'y'
I1426
sS'x'
I528
sg20
I0
s(dp62
S'y'
I1383
sS'x'
I493
sg20
I0
s(dp63
g18
S'curve'
p64
sS'x'
I493
sg20
I1
sS'y'
I1340
s(dp65
g18
S'line'
p66
sS'x'
I493
sg20
I1
sS'y'
I86
s(dp67
S'y'
I41
sS'x'
I493
sg20
I0
s(dp68
S'y'
I0
sS'x'
I537
sg20
I0
stp69
stp70
sg9
(tsg3
(tsssg13
S'T'
s."
AnchorPoint: "mid" 585 746 basechar 0
LayerCount: 2
Fore
SplineSet
579 0 m 0
 619 0 660 26 660 77 c 2
 660 1296 l 1
 1053 1296 l 2
 1099 1296 1123 1326 1123 1359 c 0
 1123 1394 1101 1424 1053 1424 c 2
 96 1424 l 2
 51 1424 27 1394 27 1359 c 0
 27 1326 51 1296 96 1296 c 2
 498 1296 l 1
 498 77 l 2
 498 26 538 0 579 0 c 0
EndSplineSet
EndChar

StartChar: Thorn
Encoding: 157 222 105
Width: 1268
VWidth: 0
GlyphClass: 2
Flags: HW
LayerCount: 2
Fore
SplineSet
280 -1 m 0
 319 -1 360 23 360 75 c 2
 360 419 l 1
 626 419 l 2
 909 419 1200 501 1200 826 c 0
 1200 1148 911 1234 631 1234 c 2
 360 1234 l 1
 360 1355 l 2
 360 1405 319 1431 278 1431 c 0
 238 1431 199 1406 199 1355 c 2
 199 75 l 2
 199 24 238 -1 280 -1 c 0
360 551 m 1
 360 1101 l 1
 668 1101 l 2
 861 1101 1029 1042 1029 826 c 0
 1029 610 861 551 666 551 c 2
 360 551 l 1
EndSplineSet
EndChar

StartChar: U
Encoding: 53 85 106
Width: 1486
VWidth: 0
GlyphClass: 2
Flags: HW
PickledData: "(dp1
S'b'
(dp2
sS'anchors'
p3
(tsS'lib'
p4
(dp5
sS'unicodes'
p6
(tsS'width'
p7
I1513
sS'contours'
p8
(tsS'components'
p9
(tsS'com.typemytype.robofont.layerData'
p10
(dp11
S'b'
(dp12
S'name'
p13
S'U'
sg4
(dp14
sg6
(tsg7
I1490
sg8
(tsg9
(tsg3
(tsssg13
S'U'
s."
AnchorPoint: "ogonek" 851 9 basechar 0
LayerCount: 2
Fore
SplineSet
743 -22 m 0
 1025 -22 1294 144 1294 495 c 2
 1294 1345 l 2
 1294 1397 1254 1422 1214 1422 c 0
 1172 1422 1132 1396 1132 1345 c 2
 1132 499 l 2
 1132 235 937 107 743 107 c 0
 549 107 355 235 355 499 c 2
 355 1345 l 2
 355 1397 315 1422 275 1422 c 0
 233 1422 193 1396 193 1345 c 2
 193 495 l 2
 193 144 461 -22 743 -22 c 0
EndSplineSet
EndChar

StartChar: V
Encoding: 54 86 117
Width: 1275
VWidth: 0
GlyphClass: 2
Flags: HW
PickledData: "(dp1
S'b'
(dp2
sS'anchors'
p3
(tsS'com.typemytype.robofont.layerData'
p4
(dp5
S'b'
(dp6
S'name'
p7
S'V'
sS'lib'
p8
(dp9
sS'unicodes'
p10
(tsS'width'
p11
I1289
sS'contours'
p12
((dp13
S'points'
p14
((dp15
S'segmentType'
p16
S'curve'
p17
sS'x'
I644
sS'smooth'
p18
I1
sS'y'
S'-5'
p19
s(dp20
S'y'
S'-5'
p21
sS'x'
I712
sg18
I0
s(dp22
S'y'
I38
sS'x'
I764
sg18
I0
s(dp23
g16
S'curve'
p24
sS'x'
I793
sg18
I1
sS'y'
I117
s(dp25
g16
S'line'
p26
sS'x'
I1243
sg18
I1
sS'y'
I1324
s(dp27
S'y'
I1335
sS'x'
I1247
sg18
I0
s(dp28
S'y'
I1342
sS'x'
I1248
sg18
I0
s(dp29
g16
S'curve'
p30
sS'x'
I1248
sg18
I1
sS'y'
I1351
s(dp31
S'y'
I1395
sS'x'
I1248
sg18
I0
s(dp32
S'y'
I1427
sS'x'
I1203
sg18
I0
s(dp33
g16
S'curve'
p34
sS'x'
I1160
sg18
I1
sS'y'
I1427
s(dp35
S'y'
I1427
sS'x'
I1125
sg18
I0
s(dp36
S'y'
I1408
sS'x'
I1090
sg18
I0
s(dp37
g16
S'curve'
p38
sS'x'
I1076
sg18
I1
sS'y'
I1369
s(dp39
g16
S'line'
p40
sS'x'
I651
sg18
I0
sS'y'
I192
s(dp41
g16
S'line'
p42
sS'x'
I650
sg18
I0
sS'y'
I190
s(dp43
g16
S'line'
p44
sS'x'
I214
sg18
I1
sS'y'
I1370
s(dp45
S'y'
I1407
sS'x'
I200
sg18
I0
s(dp46
S'y'
I1427
sS'x'
I170
sg18
I0
s(dp47
g16
S'curve'
p48
sS'x'
I135
sg18
I1
sS'y'
I1427
s(dp49
S'y'
I1427
sS'x'
I90
sg18
I0
s(dp50
S'y'
I1392
sS'x'
I43
sg18
I0
s(dp51
g16
S'curve'
p52
sS'x'
I43
sg18
I1
sS'y'
I1344
s(dp53
S'y'
I1336
sS'x'
I43
sg18
I0
s(dp54
S'y'
I1326
sS'x'
I44
sg18
I0
s(dp55
g16
S'curve'
p56
sS'x'
I48
sg18
I0
sS'y'
I1318
s(dp57
g16
S'line'
p58
sS'x'
I501
sg18
I1
sS'y'
I117
s(dp59
S'y'
I35
sS'x'
I532
sg18
I0
s(dp60
S'y'
S'-5'
p61
sS'x'
I581
sg18
I0
stp62
stp63
sS'components'
p64
(tsg3
(tsssg10
(tsS'com.typemytype.robofont.guides'
p65
(tsg11
I1365
sg12
(tsg64
(tsg8
(dp66
sg7
S'V'
s."
LayerCount: 2
Fore
SplineSet
645 -3 m 0
 699 -3 750 37 777 107 c 2
 1243 1322 l 2
 1247 1331 1248 1340 1248 1348 c 0
 1248 1390 1206 1422 1165 1422 c 0
 1137 1422 1109 1407 1095 1371 c 2
 645 179 l 1
 194 1371 l 2
 180 1407 152 1422 124 1422 c 0
 83 1422 41 1390 41 1348 c 0
 41 1340 42 1331 46 1322 c 2
 512 107 l 1
 540 37 590 -3 645 -3 c 0
EndSplineSet
EndChar

StartChar: W
Encoding: 55 87 118
Width: 2136
VWidth: 0
GlyphClass: 2
Flags: HW
PickledData: "(dp1
S'b'
(dp2
sS'anchors'
p3
(tsS'lib'
p4
(dp5
sS'unicodes'
p6
(tsS'width'
p7
I2070
sS'contours'
p8
(tsS'components'
p9
(tsS'com.typemytype.robofont.layerData'
p10
(dp11
S'b'
(dp12
S'name'
p13
S'W'
sg4
(dp14
sg6
(tsg7
I2126
sg8
(tsg9
(tsg3
(tsssg13
S'W'
s."
LayerCount: 2
Fore
SplineSet
1706 87 m 2
 2045 1321 l 6
 2048 1331 2049 1341 2049 1350 c 4
 2049 1398 2011 1425 1972 1425 c 4
 1939 1425 1906 1406 1896 1366 c 6
 1577 153 l 1
 1187 1295 l 2
 1148 1410 1115 1424 1064 1424 c 0
 1013 1424 977 1400 940 1295 c 1
 550 153 l 1
 232 1366 l 6
 222 1406 189 1425 156 1425 c 4
 117 1425 79 1398 79 1350 c 4
 79 1341 80 1332 83 1321 c 6
 422 87 l 2
 439 23 488 -8 538 -8 c 0
 590 -8 643 25 665 88 c 2
 1064 1240 l 1
 1462 88 l 2
 1485 22 1535 -8 1585 -8 c 0
 1637 -8 1689 25 1706 87 c 2
EndSplineSet
EndChar

StartChar: X
Encoding: 56 88 123
Width: 1265
VWidth: 0
GlyphClass: 2
Flags: HW
PickledData: "(dp1
S'b'
(dp2
sS'anchors'
p3
(tsS'lib'
p4
(dp5
sS'unicodes'
p6
(tsS'width'
p7
I1322
sS'contours'
p8
(tsS'components'
p9
(tsS'com.typemytype.robofont.layerData'
p10
(dp11
S'b'
(dp12
S'name'
p13
S'X'
sg4
(dp14
sg6
(tsg7
I1274
sg8
((dp15
S'points'
p16
((dp17
S'segmentType'
p18
S'curve'
p19
sS'x'
I151
sS'smooth'
p20
I1
sS'y'
I0
s(dp21
S'y'
I0
sS'x'
I176
sg20
I0
s(dp22
S'y'
I12
sS'x'
I201
sg20
I0
s(dp23
g18
S'curve'
p24
sS'x'
I222
sg20
I1
sS'y'
I41
s(dp25
g18
S'line'
p26
sS'x'
I641
sg20
I0
sS'y'
I616
s(dp27
g18
S'line'
p28
sS'x'
I746
sg20
I0
sS'y'
I734
s(dp29
g18
S'line'
p30
sS'x'
I1175
sg20
I1
sS'y'
I1310
s(dp31
S'y'
I1325
sS'x'
I1186
sg20
I0
s(dp32
S'y'
I1338
sS'x'
I1190
sg20
I0
s(dp33
g18
S'curve'
p34
sS'x'
I1190
sg20
I1
sS'y'
I1353
s(dp35
S'y'
I1393
sS'x'
I1190
sg20
I0
s(dp36
S'y'
I1426
sS'x'
I1153
sg20
I0
s(dp37
g18
S'curve'
p38
sS'x'
I1110
sg20
I1
sS'y'
I1426
s(dp39
S'y'
I1426
sS'x'
I1083
sg20
I0
s(dp40
S'y'
I1414
sS'x'
I1058
sg20
I0
s(dp41
g18
S'curve'
p42
sS'x'
I1037
sg20
I1
sS'y'
I1385
s(dp43
g18
S'line'
p44
sS'x'
I648
sg20
I0
sS'y'
I844
s(dp45
g18
S'line'
p46
sS'x'
I542
sg20
I0
sS'y'
I732
s(dp47
g18
S'line'
p48
sS'x'
I84
sg20
I1
sS'y'
I121
s(dp49
S'y'
I106
sS'x'
I73
sg20
I0
s(dp50
S'y'
I91
sS'x'
I68
sg20
I0
s(dp51
g18
S'curve'
p52
sS'x'
I68
sg20
I1
sS'y'
I76
s(dp53
S'y'
I35
sS'x'
I68
sg20
I0
s(dp54
S'y'
I0
sS'x'
I108
sg20
I0
stp55
s(dp56
g16
((dp57
g18
S'curve'
p58
sS'x'
I1104
sg20
I1
sS'y'
I0
s(dp59
S'y'
I0
sS'x'
I1151
sg20
I0
s(dp60
S'y'
I40
sS'x'
I1200
sg20
I0
s(dp61
g18
S'curve'
p62
sS'x'
I1200
sg20
I1
sS'y'
I85
s(dp63
S'y'
I98
sS'x'
I1200
sg20
I0
s(dp64
S'y'
I113
sS'x'
I1195
sg20
I0
s(dp65
g18
S'curve'
p66
sS'x'
I1186
sg20
I0
sS'y'
I126
s(dp67
g18
S'line'
p68
sS'x'
I272
sg20
I0
sS'y'
I1385
s(dp69
S'y'
I1414
sS'x'
I252
sg20
I0
s(dp70
S'y'
I1426
sS'x'
I225
sg20
I0
s(dp71
g18
S'curve'
p72
sS'x'
I197
sg20
I1
sS'y'
I1426
s(dp73
S'y'
I1426
sS'x'
I149
sg20
I0
s(dp74
S'y'
I1388
sS'x'
I100
sg20
I0
s(dp75
g18
S'curve'
p76
sS'x'
I100
sg20
I1
sS'y'
I1343
s(dp77
S'y'
I1328
sS'x'
I100
sg20
I0
s(dp78
S'y'
I1315
sS'x'
I105
sg20
I0
s(dp79
g18
S'curve'
p80
sS'x'
I114
sg20
I0
sS'y'
I1303
s(dp81
g18
S'line'
p82
sS'x'
I1033
sg20
I0
sS'y'
I40
s(dp83
S'y'
I13
sS'x'
I1052
sg20
I0
s(dp84
S'y'
I0
sS'x'
I1076
sg20
I0
stp85
stp86
sg9
(tsg3
(tsssg13
S'X'
s."
LayerCount: 2
Fore
SplineSet
1037 40 m 2
 1053 17 1075 7 1097 7 c 0
 1138 7 1180 40 1180 79 c 0
 1180 91 1176 103 1168 115 c 2
 728 725 l 1
 1161 1323 l 6
 1171 1336 1175 1350 1175 1362 c 4
 1175 1397 1142 1424 1106 1424 c 4
 1084 1424 1060 1414 1041 1388 c 6
 645 840 l 1
 253 1390 l 6
 235 1414 214 1424 192 1424 c 4
 149 1424 107 1386 107 1349 c 4
 107 1339 110 1329 117 1320 c 6
 544 722 l 1
 92 114 l 2
 83 101 79 88 79 75 c 0
 79 37 111 3 149 3 c 0
 170 3 193 13 212 40 c 2
 627 607 l 1
 1037 40 l 2
EndSplineSet
EndChar

StartChar: Y
Encoding: 57 89 124
Width: 1274
VWidth: 0
GlyphClass: 2
Flags: HW
PickledData: "(dp1
S'b'
(dp2
sS'anchors'
p3
(tsS'com.typemytype.robofont.layerData'
p4
(dp5
S'b'
(dp6
S'name'
p7
S'Y'
sS'lib'
p8
(dp9
sS'unicodes'
p10
(tsS'width'
p11
I1278
sS'contours'
p12
((dp13
S'points'
p14
((dp15
S'segmentType'
p16
S'curve'
p17
sS'x'
I641
sS'smooth'
p18
I1
sS'y'
I0
s(dp19
S'y'
I0
sS'x'
I685
sg18
I0
s(dp20
S'y'
I29
sS'x'
I730
sg18
I0
s(dp21
g16
S'curve'
p22
sS'x'
I730
sg18
I1
sS'y'
I85
s(dp23
g16
S'line'
p24
sS'x'
I730
sg18
I0
sS'y'
I1285
s(dp25
g16
S'line'
p26
sS'x'
I1115
sg18
I1
sS'y'
I1285
s(dp27
S'y'
I1285
sS'x'
I1164
sg18
I0
s(dp28
S'y'
I1319
sS'x'
I1190
sg18
I0
s(dp29
g16
S'curve'
p30
sS'x'
I1190
sg18
I1
sS'y'
I1355
s(dp31
S'y'
I1392
sS'x'
I1190
sg18
I0
s(dp32
S'y'
I1426
sS'x'
I1166
sg18
I0
s(dp33
g16
S'curve'
p34
sS'x'
I1115
sg18
I1
sS'y'
I1426
s(dp35
g16
S'line'
p36
sS'x'
I160
sg18
I1
sS'y'
I1426
s(dp37
S'y'
I1426
sS'x'
I111
sg18
I0
s(dp38
S'y'
I1392
sS'x'
I86
sg18
I0
s(dp39
g16
S'curve'
p40
sS'x'
I86
sg18
I1
sS'y'
I1355
s(dp41
S'y'
I1319
sS'x'
I86
sg18
I0
s(dp42
S'y'
I1285
sS'x'
I111
sg18
I0
s(dp43
g16
S'curve'
p44
sS'x'
I160
sg18
I1
sS'y'
I1285
s(dp45
g16
S'line'
p46
sS'x'
I552
sg18
I0
sS'y'
I1285
s(dp47
g16
S'line'
p48
sS'x'
I552
sg18
I1
sS'y'
I85
s(dp49
S'y'
I29
sS'x'
I552
sg18
I0
s(dp50
S'y'
I0
sS'x'
I596
sg18
I0
stp51
stp52
sS'components'
p53
(tsg3
(tsssg10
(tsS'com.typemytype.robofont.guides'
p54
(tsg11
I1321
sg12
(tsg53
(tsg8
(dp55
sg7
S'Y'
s."
LayerCount: 2
Fore
SplineSet
559 77 m 2
 559 27 600 1 640 1 c 0
 680 1 721 27 721 77 c 2
 721 610 l 1
 1188 1316 l 2
 1197 1329 1201 1343 1201 1356 c 0
 1201 1393 1169 1422 1134 1422 c 0
 1112 1422 1088 1410 1070 1382 c 2
 649 734 l 1
 225 1386 l 2
 208 1411 184 1422 160 1422 c 0
 119 1422 78 1391 78 1350 c 0
 78 1337 82 1322 92 1308 c 2
 559 606 l 1
 559 77 l 2
EndSplineSet
EndChar

StartChar: Z
Encoding: 58 90 129
Width: 1159
VWidth: 0
GlyphClass: 2
Flags: HW
PickledData: "(dp1
S'b'
(dp2
sS'anchors'
p3
(tsS'lib'
p4
(dp5
sS'unicodes'
p6
(tsS'width'
p7
I1222
sS'contours'
p8
(tsS'components'
p9
(tsS'com.typemytype.robofont.layerData'
p10
(dp11
S'b'
(dp12
S'name'
p13
S'Z'
sg4
(dp14
sg6
(tsg7
I1165
sg8
((dp15
S'points'
p16
((dp17
S'segmentType'
p18
S'curve'
p19
sS'x'
I266
sS'smooth'
p20
I1
sS'y'
I0
s(dp21
g18
S'line'
p22
sS'x'
I1035
sg20
I1
sS'y'
I0
s(dp23
S'y'
I0
sS'x'
I1084
sg20
I0
s(dp24
S'y'
I34
sS'x'
I1108
sg20
I0
s(dp25
g18
S'curve'
p26
sS'x'
I1108
sg20
I1
sS'y'
I71
s(dp27
S'y'
I107
sS'x'
I1108
sg20
I0
s(dp28
S'y'
I141
sS'x'
I1084
sg20
I0
s(dp29
g18
S'curve'
p30
sS'x'
I1035
sg20
I1
sS'y'
I141
s(dp31
g18
S'line'
p32
sS'x'
I356
sg20
I0
sS'y'
I141
s(dp33
g18
S'line'
p34
sS'x'
I356
sg20
I0
sS'y'
I665
s(dp35
g18
S'line'
p36
sS'x'
I975
sg20
I1
sS'y'
I665
s(dp37
S'y'
I665
sS'x'
I1024
sg20
I0
s(dp38
S'y'
I698
sS'x'
I1049
sg20
I0
s(dp39
g18
S'curve'
p40
sS'x'
I1049
sg20
I1
sS'y'
I734
s(dp41
S'y'
I770
sS'x'
I1049
sg20
I0
s(dp42
S'y'
I803
sS'x'
I1026
sg20
I0
s(dp43
g18
S'curve'
p44
sS'x'
I975
sg20
I1
sS'y'
I803
s(dp45
g18
S'line'
p46
sS'x'
I356
sg20
I0
sS'y'
I803
s(dp47
g18
S'line'
p48
sS'x'
I356
sg20
I0
sS'y'
I1285
s(dp49
g18
S'line'
p50
sS'x'
I1007
sg20
I1
sS'y'
I1285
s(dp51
S'y'
I1285
sS'x'
I1056
sg20
I0
s(dp52
S'y'
I1319
sS'x'
I1080
sg20
I0
s(dp53
g18
S'curve'
p54
sS'x'
I1080
sg20
I1
sS'y'
I1356
s(dp55
S'y'
I1392
sS'x'
I1080
sg20
I0
s(dp56
S'y'
I1426
sS'x'
I1056
sg20
I0
s(dp57
g18
S'curve'
p58
sS'x'
I1007
sg20
I1
sS'y'
I1426
s(dp59
g18
S'line'
p60
sS'x'
I261
sg20
I1
sS'y'
I1426
s(dp61
S'y'
I1426
sS'x'
I213
sg20
I0
s(dp62
S'y'
I1383
sS'x'
I178
sg20
I0
s(dp63
g18
S'curve'
p64
sS'x'
I178
sg20
I1
sS'y'
I1340
s(dp65
g18
S'line'
p66
sS'x'
I178
sg20
I1
sS'y'
I86
s(dp67
S'y'
I41
sS'x'
I178
sg20
I0
s(dp68
S'y'
I0
sS'x'
I222
sg20
I0
stp69
stp70
sg9
(tsg3
(tsssg13
S'Z'
s."
LayerCount: 2
Fore
SplineSet
208 0 m 2
 1026 0 l 2
 1072 0 1096 30 1096 65 c 0
 1096 98 1072 128 1026 128 c 2
 281 128 l 1
 1082 1277 l 2
 1098 1300 1105 1325 1105 1345 c 0
 1105 1391 1072 1424 1018 1424 c 2
 179 1424 l 2
 133 1424 111 1394 111 1360 c 0
 111 1325 134 1296 179 1296 c 2
 925 1296 l 1
 123 147 l 2
 110 129 104 109 104 87 c 0
 104 43 134 0 208 0 c 2
EndSplineSet
EndChar

StartChar: a
Encoding: 65 97 133
Width: 1035
VWidth: 0
GlyphClass: 2
Flags: HW
PickledData: "(dp1
S'b'
(dp2
sS'anchors'
p3
(tsS'lib'
p4
(dp5
sS'unicodes'
p6
(tsS'width'
p7
I1101
sS'contours'
p8
(tsS'components'
p9
(tsS'com.typemytype.robofont.layerData'
p10
(dp11
S'b'
(dp12
S'name'
p13
S'a'
sg4
(dp14
sg6
(tsg7
I1040
sg8
(tsg9
(tsg3
(tsssg13
S'a'
s."
AnchorPoint: "ogonek" 818 6 basechar 0
LayerCount: 2
Fore
SplineSet
420 -21 m 0
 590 -21 686 68 745 193 c 1
 745 60 l 2
 745 18 778 -2 813 -2 c 0
 851 -2 890 21 890 63 c 2
 890 678 l 2
 890 912 741 1013 510 1013 c 0
 355 1013 234 980 138 920 c 0
 124 911 119 898 119 885 c 0
 119 858 144 828 173 828 c 0
 180 828 187 830 195 834 c 0
 283 876 368 912 507 912 c 0
 647 912 746 848 746 692 c 2
 746 566 l 1
 229 566 66 517 66 267 c 0
 66 77 214 -21 420 -21 c 0
438 78 m 0
 299 78 206 133 206 273 c 0
 206 441 308 479 746 479 c 1
 746 446 l 2
 746 225 597 78 438 78 c 0
EndSplineSet
EndChar

StartChar: acute
Encoding: 115 180 137
Width: 569
VWidth: 0
GlyphClass: 4
Flags: HW
LayerCount: 2
Fore
SplineSet
87 1203 m 0
 99 1203 111 1209 126 1220 c 2
 451 1467 l 1
 466 1477 471 1493 471 1508 c 0
 471 1549 428 1591 385 1591 c 0
 368 1591 353 1586 339 1571 c 2
 64 1269 l 2
 54 1258 53 1247 53 1239 c 0
 53 1220 65 1203 87 1203 c 0
EndSplineSet
EndChar

StartChar: ae
Encoding: 165 230 139
Width: 1693
VWidth: 0
GlyphClass: 2
Flags: HW
PickledData: "(dp1
S'com.typemytype.robofont.layerData'
p2
(dp3
S'b'
(dp4
S'name'
p5
S'ae'
p6
sS'lib'
p7
(dp8
sS'unicodes'
p9
(tsS'width'
p10
I1734
sS'contours'
p11
(tsS'components'
p12
(tsS'anchors'
p13
(tsss."
LayerCount: 2
Fore
SplineSet
418 -29 m 0
 559 -29 735 35 813 202 c 1
 876 65 987 -29 1153 -29 c 0
 1342 -29 1546 74 1546 162 c 0
 1546 189 1526 210 1498 210 c 0
 1486 210 1472 206 1456 194 c 0
 1394 144 1292 92 1194 92 c 0
 980 92 898 259 895 464 c 1
 1522 464 l 2
 1567 464 1584 495 1584 525 c 0
 1575 802 1455 1019 1170 1019 c 0
 1021 1019 910 945 838 836 c 1
 787 963 676 1019 512 1019 c 0
 361 1019 232 974 148 896 c 0
 134 883 128 869 128 853 c 0
 128 823 153 797 184 797 c 0
 195 797 206 801 220 809 c 0
 300 859 369 897 508 897 c 0
 647 897 741 848 741 692 c 2
 741 607 l 1
 703 608 663 609 626 611 c 0
 298 611 71 521 71 276 c 0
 71 84 222 -29 418 -29 c 0
443 87 m 1
 323 90 223 150 223 278 c 0
 223 520 562 484 740 493 c 1
 740 396 l 1
 732 191 603 90 443 87 c 1
898 577 m 1
 912 747 1001 902 1172 902 c 0
 1344 902 1424 763 1437 577 c 1
 898 577 l 1
EndSplineSet
EndChar

StartChar: ampersand
Encoding: 6 38 144
Width: 1507
VWidth: 0
GlyphClass: 2
Flags: HW
LayerCount: 2
Fore
SplineSet
973 1242 m 0
 973 1429 865 1510 651 1510 c 0
 446 1510 278 1421 278 1235 c 0
 278 1091 384 970 479 866 c 1
 295 767 108 634 108 407 c 0
 108 132 327 -29 659 -29 c 0
 848 -29 992 48 1115 189 c 1
 1264 24 l 1
 1282 2 1303 -7 1323 -7 c 0
 1365 -7 1405 33 1405 77 c 0
 1405 97 1396 109 1379 130 c 1
 1218 305 l 1
 1342 514 1383 748 1383 849 c 0
 1383 898 1347 924 1308 924 c 0
 1273 924 1241 902 1238 857 c 0
 1236 708 1177 539 1117 407 c 1
 698 852 l 1
 833 954 973 1069 973 1242 c 0
647 101 m 0
 453 101 274 224 274 432 c 0
 274 554 396 671 576 767 c 1
 1028 284 l 1
 914 169 805 101 647 101 c 0
603 945 m 1
 533 1019 445 1131 445 1232 c 0
 445 1336 534 1376 628 1376 c 0
 717 1376 806 1330 806 1232 c 0
 806 1109 689 1025 603 945 c 1
EndSplineSet
EndChar

StartChar: uni02BC
Encoding: 65540 700 146
Width: 600
VWidth: 0
GlyphClass: 4
Flags: HW
AnchorPoint: "top.2" 246 256 mark 0
LayerCount: 2
Fore
SplineSet
202 311 m 2
 237 311 l 2
 238 311 239 311 240 311 c 0
 267 311 282 323 293 354 c 2
 452 821 l 2
 453 825 455 832 455 839 c 0
 455 855 447 875 418 877 c 1
 335 877 l 1
 303 876 270 868 262 821 c 2
 178 354 l 2
 177 351 177 347 177 342 c 0
 177 329 181 312 202 311 c 2
EndSplineSet
EndChar

StartChar: approxequal
Encoding: 477 8776 147
Width: 1169
VWidth: 0
GlyphClass: 2
Flags: HW
LayerCount: 2
Fore
SplineSet
820 319 m 0
 897 319 963 372 963 475 c 0
 963 505 933 526 907 526 c 0
 835 526 856 450 813 450 c 0
 764 450 414 526 321 526 c 0
 263 526 175 485 175 372 c 0
 175 344 198 322 227 322 c 0
 240 322 252 322 262 331 c 0
 306 363 297 397 337 397 c 0
 392 393 735 319 820 319 c 0
820 657 m 0
 897 657 963 709 963 811 c 0
 963 843 933 864 907 864 c 0
 835 864 856 787 813 787 c 0
 764 787 414 864 321 864 c 0
 263 864 175 822 175 709 c 0
 175 681 198 659 227 659 c 0
 240 659 252 660 262 668 c 0
 306 701 297 735 337 735 c 0
 392 731 735 657 820 657 c 0
EndSplineSet
EndChar

StartChar: asciicircum
Encoding: 62 94 149
Width: 1345
VWidth: 0
GlyphClass: 2
Flags: HW
LayerCount: 2
Fore
SplineSet
257 488 m 0
 278 488 302 496 314 524 c 1
 669 1237 l 1
 1022 524 l 2
 1034 498 1056 488 1079 488 c 0
 1113 488 1147 515 1147 550 c 0
 1147 556 1146 563 1143 571 c 2
 747 1339 l 2
 730 1371 700 1387 669 1387 c 0
 640 1387 609 1372 591 1339 c 2
 193 571 l 1
 190 563 190 556 190 549 c 0
 190 512 224 488 257 488 c 0
EndSplineSet
EndChar

StartChar: asciitilde
Encoding: 94 126 150
Width: 1345
VWidth: 0
GlyphClass: 2
Flags: HW
LayerCount: 2
Fore
SplineSet
765 1184 m 0
 850 1184 899 1227 928 1293 c 0
 931 1298 932 1303 932 1308 c 0
 932 1330 908 1352 884 1352 c 0
 871 1352 857 1346 847 1330 c 0
 832 1307 803 1296 778 1296 c 0
 712 1296 624 1358 537 1358 c 0
 459 1358 409 1322 373 1255 c 0
 369 1248 367 1241 367 1234 c 0
 367 1209 393 1190 417 1190 c 0
 431 1190 445 1197 453 1212 c 0
 470 1244 500 1250 529 1250 c 0
 600 1250 691 1184 765 1184 c 0
EndSplineSet
EndChar

StartChar: asterisk
Encoding: 10 42 151
Width: 1118
VWidth: 0
GlyphClass: 2
Flags: HW
LayerCount: 2
Fore
SplineSet
437 761 m 2
 558 978 l 1
 679 761 l 2
 692 737 710 727 728 727 c 0
 761 727 794 761 794 795 c 0
 794 803 792 812 788 820 c 2
 657 1033 l 1
 909 1023 l 1
 951 1023 973 1054 973 1084 c 0
 973 1114 951 1144 909 1144 c 1
 659 1135 l 1
 790 1346 l 2
 795 1355 797 1365 797 1374 c 0
 797 1408 768 1441 734 1441 c 0
 716 1441 696 1431 680 1407 c 1
 558 1184 l 1
 435 1406 l 2
 421 1430 402 1440 383 1440 c 0
 350 1440 318 1410 318 1376 c 0
 318 1367 320 1356 326 1347 c 2
 456 1135 l 1
 209 1144 l 1
 167 1144 146 1114 146 1084 c 0
 146 1054 167 1023 209 1023 c 1
 459 1033 l 1
 328 822 l 2
 322 813 320 803 320 794 c 0
 320 760 353 729 387 729 c 0
 405 729 424 738 437 761 c 2
EndSplineSet
EndChar

StartChar: at
Encoding: 32 64 152
Width: 1638
VWidth: 0
GlyphClass: 2
Flags: HW
LayerCount: 2
Fore
SplineSet
807 -25 m 0
 911 -25 1019 -7 1131 27 c 0
 1154 34 1164 54 1164 74 c 0
 1164 101 1148 124 1114 124 c 0
 1105 124 1096 123 1088 120 c 0
 999 93 910 79 825 79 c 0
 482 79 190 298 190 729 c 0
 190 1157 560 1402 894 1402 c 0
 1170 1402 1418 1237 1418 871 c 0
 1418 652 1284 426 1123 426 c 0
 1078 426 1066 445 1066 477 c 0
 1066 505 1076 542 1090 585 c 2
 1241 1065 l 1
 1245 1073 1246 1081 1246 1090 c 0
 1246 1125 1216 1144 1185 1144 c 0
 1155 1144 1120 1127 1111 1093 c 2
 1102 1062 l 1
 1061 1149 967 1195 872 1195 c 0
 574 1195 390 894 390 622 c 0
 390 452 496 314 675 314 c 0
 758 314 856 349 919 409 c 1
 947 341 1021 310 1093 310 c 0
 1306 310 1547 548 1547 870 c 0
 1547 1310 1230 1512 891 1512 c 0
 491 1512 59 1235 59 742 c 0
 59 261 381 -25 807 -25 c 0
702 431 m 0
 600 431 538 516 538 622 c 0
 538 834 678 1072 880 1072 c 0
 992 1072 1061 930 1061 930 c 1
 972 627 l 2
 936 505 798 431 702 431 c 0
EndSplineSet
EndChar

StartChar: b
Encoding: 66 98 154
Width: 1175
VWidth: 0
GlyphClass: 2
Flags: HW
PickledData: "(dp1
S'b'
(dp2
sS'anchors'
p3
(tsS'lib'
p4
(dp5
sS'unicodes'
p6
(tsS'width'
p7
I1203
sS'contours'
p8
(tsS'components'
p9
(tsS'com.typemytype.robofont.layerData'
p10
(dp11
S'b'
(dp12
S'name'
p13
S'b'
sg4
(dp14
sg6
(tsg7
I1181
sg8
((dp15
S'points'
p16
((dp17
S'segmentType'
p18
S'curve'
p19
sS'x'
I238
sS'smooth'
p20
I1
sS'y'
I1425
s(dp21
S'y'
I1425
sS'x'
I198
sg20
I0
s(dp22
S'y'
I1400
sS'x'
I158
sg20
I0
s(dp23
g18
S'curve'
p24
sS'x'
I158
sg20
I1
sS'y'
I1351
s(dp25
g18
S'line'
p26
sS'x'
I158
sg20
I1
sS'y'
I76
s(dp27
S'y'
I27
sS'x'
I158
sg20
I0
s(dp28
S'y'
I3
sS'x'
I197
sg20
I0
s(dp29
g18
S'curve'
p30
sS'x'
I237
sg20
I1
sS'y'
I3
s(dp31
S'y'
I3
sS'x'
I297
sg20
I0
s(dp32
S'y'
I38
sS'x'
I318
sg20
I0
s(dp33
g18
S'curve'
p34
sS'x'
I318
sg20
I1
sS'y'
I76
s(dp35
g18
S'line'
p36
sS'x'
I318
sg20
I0
sS'y'
I183
s(dp37
S'y'
I46
sS'x'
I384
sg20
I0
s(dp38
S'y'
S'-20'
p39
sS'x'
I516
sg20
I0
s(dp40
g18
S'curve'
p41
sS'x'
I666
sg20
I1
sS'y'
S'-20'
p42
s(dp43
S'y'
S'-20'
p44
sS'x'
I957
sg20
I0
s(dp45
S'y'
I225
sS'x'
I1095
sg20
I0
s(dp46
g18
S'curve'
p47
sS'x'
I1095
sg20
I1
sS'y'
I502
s(dp48
S'y'
I777
sS'x'
I1095
sg20
I0
s(dp49
S'y'
I1013
sS'x'
I939
sg20
I0
s(dp50
g18
S'curve'
p51
sS'x'
I650
sg20
I1
sS'y'
I1013
s(dp52
S'y'
I1013
sS'x'
I503
sg20
I0
s(dp53
S'y'
I942
sS'x'
I376
sg20
I0
s(dp54
g18
S'curve'
p55
sS'x'
I318
sg20
I0
sS'y'
I814
s(dp56
g18
S'line'
p57
sS'x'
I318
sg20
I1
sS'y'
I1351
s(dp58
S'y'
I1400
sS'x'
I318
sg20
I0
s(dp59
S'y'
I1425
sS'x'
I278
sg20
I0
stp60
s(dp61
g16
((dp62
g18
S'curve'
p63
sS'x'
I632
sg20
I1
sS'y'
I903
s(dp64
S'y'
I903
sS'x'
I859
sg20
I0
s(dp65
S'y'
I685
sS'x'
I935
sg20
I0
s(dp66
g18
S'curve'
p67
sS'x'
I935
sg20
I1
sS'y'
I496
s(dp68
S'y'
I316
sS'x'
I935
sg20
I0
s(dp69
S'y'
I93
sS'x'
I869
sg20
I0
s(dp70
g18
S'curve'
p71
sS'x'
I645
sg20
I0
sS'y'
I90
s(dp72
S'y'
I90
sS'x'
I395
sg20
I0
s(dp73
S'y'
I279
sS'x'
I319
sg20
I0
s(dp74
g18
S'curve'
p75
sS'x'
I319
sg20
I1
sS'y'
I501
s(dp76
S'y'
I701
sS'x'
I319
sg20
I0
s(dp77
S'y'
I903
sS'x'
I407
sg20
I0
stp78
stp79
sg9
(tsg3
(tsssg13
S'b'
s."
LayerCount: 2
Fore
SplineSet
660 -21 m 0
 953 -21 1088 224 1088 501 c 0
 1088 771 935 1013 644 1013 c 0
 496 1013 365 938 309 806 c 1
 309 1355 l 2
 309 1400 272 1423 235 1423 c 0
 199 1423 162 1400 162 1355 c 2
 162 69 l 2
 162 25 197 4 234 4 c 0
 293 4 309 39 309 69 c 2
 309 188 l 1
 374 47 510 -21 660 -21 c 0
645 80 m 0
 388 80 310 279 310 501 c 0
 310 705 401 912 630 912 c 0
 863 912 941 688 941 494 c 0
 941 309 874 83 645 80 c 0
EndSplineSet
EndChar

StartChar: backslash
Encoding: 60 92 155
Width: 581
VWidth: 0
GlyphClass: 2
Flags: HW
LayerCount: 2
Fore
SplineSet
537 -109 m 0
 571 -109 602 -86 602 -47 c 0
 602 -38 601 -29 598 -20 c 2
 113 1450 l 2
 102 1484 73 1498 47 1498 c 0
 12 1498 -22 1475 -22 1436 c 0
 -22 1430 -20 1421 -17 1410 c 2
 472 -61 l 2
 483 -94 509 -109 537 -109 c 0
EndSplineSet
EndChar

StartChar: bar
Encoding: 92 124 156
Width: 455
VWidth: 0
GlyphClass: 2
Flags: HW
LayerCount: 2
Fore
SplineSet
227 -463 m 0
 261 -463 294 -441 294 -396 c 2
 294 1410 l 2
 294 1456 262 1477 228 1477 c 0
 194 1477 161 1456 161 1410 c 2
 161 -396 l 2
 161 -441 193 -463 227 -463 c 0
EndSplineSet
EndChar

StartChar: braceleft
Encoding: 91 123 157
Width: 595
VWidth: 0
GlyphClass: 2
Flags: HW
LayerCount: 2
Fore
SplineSet
412 -203 m 2
 527 -203 l 2
 562 -203 579 -174 579 -146 c 0
 579 -117 564 -86 526 -86 c 2
 460 -86 l 2
 407 -86 378 -33 378 60 c 2
 378 353 l 2
 378 544 264 623 239 636 c 1
 266 651 378 692 378 918 c 2
 378 1218 l 2
 378 1310 407 1362 461 1362 c 2
 528 1362 l 2
 564 1362 579 1392 579 1421 c 0
 579 1446 565 1479 528 1479 c 2
 412 1479 l 2
 328 1479 227 1391 227 1254 c 2
 227 955 l 2
 227 806 206 712 80 698 c 0
 79 698 79 698 78 698 c 0
 37 698 17 667 17 635 c 0
 17 606 36 572 80 572 c 1
 206 559 227 467 227 318 c 2
 227 24 l 2
 227 -111 324 -203 412 -203 c 2
EndSplineSet
EndChar

StartChar: braceright
Encoding: 93 125 158
Width: 595
VWidth: 0
GlyphClass: 2
Flags: HW
LayerCount: 2
Fore
SplineSet
66 -203 m 2
 180 -203 l 2
 266 -203 366 -114 366 23 c 2
 366 318 l 2
 366 466 386 558 512 572 c 1
 554 572 576 604 576 635 c 0
 576 665 557 698 515 698 c 0
 514 698 514 698 513 698 c 0
 387 712 366 805 366 955 c 2
 366 1253 l 2
 366 1386 269 1479 180 1479 c 2
 66 1479 l 2
 30 1479 14 1448 14 1420 c 0
 14 1393 29 1362 65 1362 c 2
 132 1362 l 2
 186 1362 215 1311 215 1217 c 2
 215 921 l 2
 215 723 329 660 353 636 c 1
 332 623 215 546 215 353 c 2
 215 62 l 2
 215 -32 187 -86 132 -86 c 2
 66 -86 l 2
 31 -86 14 -116 14 -145 c 0
 14 -173 29 -203 66 -203 c 2
EndSplineSet
EndChar

StartChar: bracketleft
Encoding: 59 91 159
Width: 596
VWidth: 0
GlyphClass: 2
Flags: HW
LayerCount: 2
Fore
SplineSet
250 -196 m 2
 426 -196 l 2
 427 -196 427 -196 428 -196 c 0
 465 -196 485 -166 485 -138 c 1
 485 -109 466 -81 426 -81 c 2
 326 -81 l 1
 326 1309 l 1
 426 1309 l 2
 464 1309 483 1338 483 1367 c 0
 483 1396 466 1424 426 1424 c 2
 250 1424 l 2
 206 1424 173 1391 173 1349 c 2
 173 -122 l 2
 173 -163 206 -196 250 -196 c 2
EndSplineSet
EndChar

StartChar: bracketright
Encoding: 61 93 160
Width: 596
VWidth: 0
GlyphClass: 2
Flags: HW
LayerCount: 2
Fore
SplineSet
168 -196 m 2
 345 -196 l 2
 387 -196 422 -163 422 -122 c 2
 422 1349 l 2
 422 1391 387 1424 345 1424 c 2
 168 1424 l 2
 128 1424 110 1396 110 1367 c 0
 110 1338 130 1309 168 1309 c 2
 270 1309 l 1
 270 -81 l 1
 168 -81 l 2
 130 -81 110 -109 110 -138 c 0
 110 -166 129 -196 166 -196 c 0
 167 -196 167 -196 168 -196 c 2
EndSplineSet
EndChar

StartChar: breve
Encoding: 401 728 161
Width: 569
VWidth: 0
GlyphClass: 4
Flags: HW
LayerCount: 2
Fore
SplineSet
285 1255 m 0
 410 1255 503 1310 545 1404 c 0
 549 1412 551 1419 551 1426 c 0
 551 1452 529 1468 504 1468 c 0
 486 1468 472 1459 460 1444 c 0
 414 1383 374 1361 285 1361 c 0
 195 1361 154 1383 110 1444 c 0
 99 1459 83 1468 66 1468 c 0
 41 1468 19 1452 19 1426 c 0
 19 1419 21 1412 25 1404 c 0
 67 1310 160 1255 285 1255 c 0
EndSplineSet
EndChar

StartChar: uni0311
Encoding: 409 785 162
Width: 569
VWidth: 0
GlyphClass: 4
Flags: HW
LayerCount: 2
Fore
SplineSet
69 1270 m 0
 88 1270 104 1278 116 1296 c 0
 158 1356 199 1377 285 1377 c 0
 371 1377 410 1356 454 1296 c 0
 467 1278 482 1270 501 1270 c 0
 527 1270 549 1286 549 1314 c 0
 549 1320 548 1329 544 1338 c 0
 502 1432 409 1487 285 1487 c 0
 161 1487 68 1432 26 1338 c 0
 22 1329 21 1320 21 1314 c 0
 21 1286 43 1270 69 1270 c 0
EndSplineSet
EndChar

StartChar: brokenbar
Encoding: 101 166 163
Width: 455
VWidth: 0
GlyphClass: 2
Flags: HW
LayerCount: 2
Fore
SplineSet
216 -153 m 0
 271 -153 281 -109 281 -67 c 2
 281 452 l 2
 281 504 263 539 217 539 c 0
 178 539 152 512 152 476 c 2
 152 -67 l 2
 152 -120 169 -153 216 -153 c 0
216 777 m 0
 270 777 280 821 280 863 c 2
 280 1427 l 2
 280 1476 263 1512 216 1512 c 0
 178 1512 151 1488 151 1447 c 2
 151 863 l 2
 151 811 169 777 216 777 c 0
EndSplineSet
EndChar

StartChar: bullet
Encoding: 454 8226 164
Width: 1024
VWidth: 0
GlyphClass: 2
Flags: HW
LayerCount: 2
Fore
SplineSet
510 357 m 0
 715 357 881 520 881 711 c 0
 881 908 715 1066 510 1066 c 0
 309 1066 143 908 143 711 c 0
 143 520 309 357 510 357 c 0
EndSplineSet
EndChar

StartChar: c
Encoding: 67 99 165
Width: 954
VWidth: 0
GlyphClass: 2
Flags: HW
PickledData: "(dp1
S'b'
(dp2
sS'anchors'
p3
(tsS'lib'
p4
(dp5
sS'unicodes'
p6
(tsS'width'
p7
I992
sS'contours'
p8
(tsS'components'
p9
(tsS'com.typemytype.robofont.layerData'
p10
(dp11
S'b'
(dp12
S'name'
p13
S'c'
sg4
(dp14
sg6
(tsg7
F956.14099999999996
sg8
(tsg9
(tsg3
(tsssg13
S'c'
s."
LayerCount: 2
Fore
SplineSet
545 -24 m 0
 676 -24 783 12 848 63 c 0
 871 81 880 100 880 116 c 0
 880 141 858 160 832 160 c 0
 822 160 811 157 800 150 c 0
 725 99 642 80 556 80 c 0
 313 80 234 307 234 489 c 0
 234 763 387 913 579 913 c 0
 652 913 728 892 794 845 c 0
 807 835 822 831 834 831 c 0
 859 831 878 848 878 872 c 0
 878 887 870 905 851 922 c 0
 794 975 689 1013 578 1013 c 0
 277 1013 87 791 87 495 c 0
 87 200 253 -24 545 -24 c 0
EndSplineSet
EndChar

StartChar: caron
Encoding: 399 711 167
Width: 569
VWidth: 0
GlyphClass: 4
Flags: HW
LayerCount: 2
Fore
SplineSet
285 1114 m 0
 313 1114 343 1129 367 1163 c 2
 555 1432 l 2
 566 1446 570 1461 570 1476 c 0
 570 1505 546 1528 517 1528 c 0
 498 1528 478 1519 460 1495 c 2
 285 1260 l 1
 109 1495 l 2
 91 1519 71 1528 52 1528 c 0
 22 1528 -1 1505 -1 1475 c 0
 -1 1463 2 1448 14 1432 c 2
 202 1163 l 2
 224 1131 255 1114 285 1114 c 0
EndSplineSet
EndChar

StartChar: caron.alt
Encoding: 65541 -1 168
Width: 595
VWidth: 0
GlyphClass: 4
Flags: HW
LayerCount: 2
Fore
SplineSet
294 305 m 2
 310 305 l 2
 311 305 312 305 313 305 c 0
 340 305 355 317 366 348 c 2
 492 733 l 2
 493 737 495 744 495 751 c 0
 495 767 487 787 458 789 c 1
 406 789 l 1
 374 788 341 780 333 733 c 2
 270 348 l 2
 269 345 269 341 269 336 c 0
 269 323 273 306 294 305 c 2
EndSplineSet
EndChar

StartChar: cedilla
Encoding: 119 184 173
Width: 569
VWidth: 0
GlyphClass: 4
Flags: HW
LayerCount: 2
Fore
SplineSet
303 -387 m 0
 392 -387 486 -340 486 -243 c 0
 486 -128 395 -101 299 -101 c 0
 290 -101 284 -102 276 -102 c 1
 309 10 l 1
 255 10 l 1
 211 -122 l 2
 209 -128 208 -132 208 -137 c 0
 208 -153 218 -166 241 -166 c 0
 244 -166 249 -165 252 -165 c 0
 308 -165 365 -185 365 -238 c 0
 365 -292 343 -322 272 -322 c 0
 211 -322 162 -306 110 -287 c 0
 105 -285 100 -284 97 -284 c 0
 82 -284 73 -299 73 -314 c 0
 73 -355 192 -387 303 -387 c 0
EndSplineSet
EndChar

StartChar: cent
Encoding: 97 162 174
Width: 1028
VWidth: 0
GlyphClass: 2
Flags: HW
PickledData: "(dp1
S'com.typemytype.robofont.layerData'
p2
(dp3
S'b'
(dp4
S'name'
p5
S'cent'
p6
sS'lib'
p7
(dp8
sS'unicodes'
p9
(tsS'width'
p10
I1046
sS'contours'
p11
(tsS'components'
p12
(tsS'anchors'
p13
(tsss."
LayerCount: 2
Fore
SplineSet
543 -270 m 0
 565 -270 588 -255 588 -223 c 2
 588 23 l 1
 498 24 l 1
 498 -223 l 2
 498 -254 521 -270 543 -270 c 0
498 961 m 1
 588 962 l 1
 588 1208 l 2
 588 1240 565 1255 543 1255 c 0
 521 1255 498 1239 498 1208 c 2
 498 961 l 1
EndSplineSet
Refer: 165 99 N 1 0 0 1 0 0 2
EndChar

StartChar: circumflex
Encoding: 398 710 175
Width: 569
VWidth: 0
GlyphClass: 4
Flags: HW
LayerCount: 2
Fore
SplineSet
53 1176 m 0
 71 1176 95 1184 113 1209 c 2
 289 1445 l 1
 464 1209 l 1
 483 1187 504 1177 522 1177 c 0
 552 1177 575 1198 575 1228 c 0
 575 1243 569 1256 558 1272 c 2
 371 1540 l 1
 345 1575 318 1589 288 1589 c 0
 255 1589 227 1573 206 1540 c 1
 17 1272 l 2
 6 1256 2 1242 2 1227 c 0
 2 1197 24 1176 53 1176 c 0
EndSplineSet
EndChar

StartChar: colon
Encoding: 26 58 176
Width: 578
VWidth: 0
GlyphClass: 2
Flags: HW
LayerCount: 2
Fore
SplineSet
289 -1 m 0
 355 -1 391 45 391 92 c 0
 391 135 355 182 289 182 c 0
 223 182 187 136 187 92 c 0
 187 45 222 -1 289 -1 c 0
289 812 m 0
 354 812 391 856 391 903 c 0
 391 949 355 995 289 995 c 0
 223 995 187 950 187 903 c 0
 187 856 222 812 289 812 c 0
EndSplineSet
EndChar

StartChar: comma
Encoding: 12 44 177
Width: 578
VWidth: 0
GlyphClass: 2
Flags: HW
PickledData: "(dp1
S'b'
(dp2
sS'anchors'
p3
(tsS'lib'
p4
(dp5
sS'unicodes'
p6
(tsS'width'
p7
I615
sS'contours'
p8
(tsS'components'
p9
(tsS'com.typemytype.robofont.layerData'
p10
(dp11
S'b'
(dp12
S'name'
p13
S'comma'
p14
sg4
(dp15
sg6
(tsg7
I584
sg8
(tsg9
(tsg3
(tsssg13
S'comma'
p16
s."
LayerCount: 2
Fore
SplineSet
159 -343 m 2
 194 -343 l 2
 195 -343 196 -343 197 -343 c 0
 224 -343 239 -331 250 -300 c 2
 409 167 l 2
 410 171 412 178 412 185 c 0
 412 201 404 221 375 223 c 1
 292 223 l 1
 260 222 227 214 219 167 c 2
 135 -300 l 2
 134 -303 134 -307 134 -312 c 0
 134 -325 138 -342 159 -343 c 2
EndSplineSet
EndChar

StartChar: uni0326
Encoding: 411 806 178
Width: 578
VWidth: 0
GlyphClass: 4
Flags: HW
PickledData: "(dp1
S'b'
(dp2
sS'anchors'
p3
(tsS'lib'
p4
(dp5
sS'unicodes'
p6
(tsS'width'
p7
I615
sS'contours'
p8
(tsS'components'
p9
(tsS'com.typemytype.robofont.layerData'
p10
(dp11
S'b'
(dp12
S'name'
p13
S'uni0326'
p14
sg4
(dp15
sg6
(tsg7
I584
sg8
(tsg9
(tsg3
(tsssg13
S'uni0326'
p16
s."
LayerCount: 2
Fore
SplineSet
160 -588 m 2
 175 -588 l 2
 176 -588 177 -588 178 -588 c 0
 205 -588 220 -576 231 -545 c 2
 358 -160 l 2
 359 -156 361 -149 361 -142 c 0
 361 -126 353 -106 324 -104 c 1
 271 -104 l 1
 239 -105 206 -113 198 -160 c 2
 136 -545 l 2
 135 -548 135 -552 135 -557 c 0
 135 -570 139 -587 160 -588 c 2
EndSplineSet
EndChar

StartChar: uni0312
Encoding: 410 786 179
Width: 600
VWidth: 0
GlyphClass: 4
Flags: HW
LayerCount: 2
Fore
SplineSet
233 1211 m 1
 316 1211 l 1
 348 1212 381 1220 389 1267 c 2
 473 1734 l 2
 474 1737 474 1741 474 1746 c 0
 474 1759 470 1776 449 1777 c 2
 414 1777 l 2
 413 1777 412 1777 411 1777 c 0
 384 1777 369 1765 358 1734 c 2
 199 1267 l 2
 198 1263 196 1256 196 1249 c 0
 196 1233 204 1213 233 1211 c 1
EndSplineSet
EndChar

StartChar: copyright
Encoding: 104 169 180
Width: 1650
VWidth: 0
GlyphClass: 2
Flags: HW
LayerCount: 2
Fore
SplineSet
845 401 m 0
 923 401 1100 439 1100 510 c 0
 1100 533 1083 552 1060 552 c 0
 1050 552 1044 550 1040 547 c 0
 981 515 924 496 864 496 c 0
 711 496 575 604 575 800 c 0
 575 1001 703 1092 854 1092 c 0
 918 1092 989 1075 1050 1041 c 0
 1058 1038 1064 1036 1069 1036 c 0
 1095 1036 1113 1061 1113 1086 c 0
 1113 1153 915 1188 842 1188 c 0
 638 1188 457 1057 457 798 c 0
 457 540 645 401 845 401 c 0
834 242 m 0
 501 242 260 472 260 792 c 0
 260 1110 501 1341 834 1341 c 0
 1165 1341 1403 1110 1403 792 c 0
 1403 472 1165 242 834 242 c 0
834 132 m 0
 1212 132 1519 428 1519 792 c 0
 1519 1155 1212 1452 834 1452 c 0
 453 1452 144 1155 144 792 c 0
 144 428 453 132 834 132 c 0
EndSplineSet
EndChar

StartChar: currency
Encoding: 99 164 181
Width: 1154
VWidth: 0
GlyphClass: 2
Flags: HW
LayerCount: 2
Fore
SplineSet
194 159 m 0
 207 159 219 164 229 175 c 2
 317 262 l 1
 385 212 473 182 582 182 c 0
 692 182 779 211 847 263 c 1
 936 175 l 2
 946 165 956 159 967 159 c 0
 994 159 1020 181 1020 210 c 0
 1020 221 1016 234 1005 245 c 2
 918 330 l 1
 978 406 1009 503 1009 600 c 0
 1009 695 980 790 919 866 c 1
 1005 951 l 2
 1016 961 1020 974 1020 984 c 0
 1020 1012 996 1035 970 1035 c 0
 958 1035 946 1030 935 1019 c 2
 851 935 l 1
 783 986 693 1019 582 1019 c 0
 469 1019 381 987 313 935 c 1
 229 1019 l 2
 219 1030 207 1035 195 1035 c 0
 168 1035 145 1012 145 986 c 0
 145 973 150 961 161 951 c 2
 244 866 l 1
 184 790 155 696 155 600 c 0
 155 503 185 406 246 330 c 1
 161 245 l 2
 150 234 145 222 145 210 c 0
 145 182 168 159 194 159 c 0
582 282 m 0
 378 282 275 441 275 600 c 0
 275 758 378 919 582 919 c 0
 786 919 888 758 888 600 c 0
 888 441 786 282 582 282 c 0
EndSplineSet
EndChar

StartChar: d
Encoding: 68 100 182
Width: 1175
VWidth: 0
GlyphClass: 2
Flags: HW
PickledData: "(dp1
S'b'
(dp2
sS'anchors'
p3
(tsS'lib'
p4
(dp5
sS'unicodes'
p6
(tsS'width'
p7
I1207
sS'contours'
p8
(tsS'components'
p9
(tsS'com.typemytype.robofont.layerData'
p10
(dp11
S'b'
(dp12
S'name'
p13
S'd'
sg4
(dp14
sg6
(tsg7
I1181
sg8
(tsg9
(tsg3
(tsssg13
S'd'
s."
AnchorPoint: "mid" 884 1199 basechar 0
LayerCount: 2
Fore
SplineSet
515 -21 m 0
 666 -21 801 47 867 188 c 1
 867 69 l 2
 867 39 882 4 941 4 c 0
 978 4 1013 25 1013 69 c 2
 1013 1355 l 2
 1013 1400 977 1423 940 1423 c 0
 903 1423 867 1400 867 1355 c 2
 867 806 l 1
 810 938 679 1013 532 1013 c 0
 240 1013 87 771 87 501 c 0
 87 224 222 -21 515 -21 c 0
530 80 m 0
 302 83 234 309 234 494 c 0
 234 688 313 912 545 912 c 0
 775 912 866 705 866 501 c 0
 866 279 788 80 530 80 c 0
EndSplineSet
EndChar

StartChar: dagger
Encoding: 452 8224 183
Width: 1158
VWidth: 0
GlyphClass: 2
Flags: HW
LayerCount: 2
Fore
SplineSet
578 0 m 0
 615 0 650 23 650 68 c 2
 650 988 l 1
 939 988 l 2
 979 988 999 1018 999 1051 c 0
 999 1082 979 1114 939 1114 c 2
 650 1114 l 1
 650 1409 l 2
 650 1454 615 1478 578 1478 c 0
 542 1478 508 1456 508 1409 c 2
 508 1114 l 1
 214 1114 l 2
 175 1114 156 1084 156 1051 c 0
 156 1017 175 988 214 988 c 2
 508 988 l 1
 508 68 l 2
 508 23 542 0 578 0 c 0
EndSplineSet
EndChar

StartChar: daggerdbl
Encoding: 453 8225 184
Width: 1158
VWidth: 0
GlyphClass: 2
Flags: HW
LayerCount: 2
Fore
SplineSet
578 -1 m 0
 615 -1 650 22 650 67 c 2
 650 355 l 1
 936 355 l 2
 977 355 998 384 998 418 c 0
 998 449 977 480 936 480 c 2
 650 480 l 1
 650 993 l 1
 936 993 l 2
 977 993 998 1022 998 1056 c 0
 998 1087 977 1118 936 1118 c 2
 650 1118 l 1
 650 1409 l 2
 650 1456 615 1478 578 1478 c 0
 544 1478 508 1456 508 1409 c 2
 508 1118 l 1
 217 1118 l 2
 176 1118 157 1086 157 1055 c 0
 157 1024 177 993 217 993 c 2
 508 993 l 1
 508 480 l 1
 217 480 l 2
 176 480 157 448 157 417 c 0
 157 386 177 355 217 355 c 2
 508 355 l 1
 508 67 l 2
 508 22 544 -1 578 -1 c 0
EndSplineSet
EndChar

StartChar: uni030F
Encoding: 408 783 185
Width: 569
VWidth: 0
GlyphClass: 4
Flags: HW
LayerCount: 2
Fore
SplineSet
305 1136 m 0
 327 1136 340 1152 340 1171 c 0
 339 1181 338 1190 329 1200 c 2
 53 1503 l 1
 37 1519 24 1524 7 1524 c 0
 -37 1524 -80 1480 -80 1439 c 0
 -80 1424 -73 1409 -58 1397 c 2
 267 1151 l 1
 281 1139 294 1136 305 1136 c 0
606 1136 m 0
 627 1136 641 1150 641 1169 c 0
 641 1180 638 1191 629 1201 c 2
 353 1503 l 2
 338 1519 325 1524 308 1524 c 0
 265 1524 221 1481 221 1440 c 0
 221 1425 228 1409 243 1397 c 2
 569 1150 l 2
 583 1139 595 1136 606 1136 c 0
EndSplineSet
EndChar

StartChar: degree
Encoding: 111 176 188
Width: 819
VWidth: 0
GlyphClass: 2
Flags: HW
LayerCount: 2
Fore
SplineSet
410 903 m 0
 289 903 201 986 201 1103 c 0
 201 1217 288 1305 408 1305 c 0
 527 1305 619 1217 619 1103 c 0
 619 986 528 903 410 903 c 0
410 809 m 0
 577 809 717 940 717 1103 c 0
 717 1265 577 1399 410 1399 c 0
 239 1399 103 1265 103 1103 c 0
 103 940 241 809 410 809 c 0
EndSplineSet
EndChar

StartChar: dieresis
Encoding: 103 168 189
Width: 569
VWidth: 0
GlyphClass: 4
Flags: HW
LayerCount: 2
Fore
SplineSet
100 1211 m 0
 166 1211 200 1257 200 1302 c 0
 200 1346 166 1390 100 1390 c 0
 35 1390 1 1346 1 1302 c 0
 1 1257 35 1211 100 1211 c 0
470 1211 m 0
 535 1211 569 1257 569 1302 c 0
 569 1346 535 1390 470 1390 c 0
 405 1390 370 1346 370 1302 c 0
 370 1257 404 1211 470 1211 c 0
EndSplineSet
EndChar

StartChar: divide
Encoding: 182 247 190
Width: 1345
VWidth: 0
GlyphClass: 2
Flags: HW
LayerCount: 2
Fore
SplineSet
216 449 m 2
 1135 449 l 2
 1176 449 1196 480 1196 514 c 0
 1196 547 1176 580 1135 580 c 2
 216 580 l 2
 175 580 155 547 155 514 c 0
 155 480 175 449 216 449 c 2
673 -6 m 0
 739 -6 772 38 772 84 c 0
 772 126 739 172 673 172 c 0
 609 172 574 126 574 84 c 0
 574 38 608 -6 673 -6 c 0
673 858 m 0
 739 858 772 901 772 947 c 0
 772 992 739 1035 673 1035 c 0
 609 1035 574 992 574 947 c 0
 574 901 608 858 673 858 c 0
EndSplineSet
EndChar

StartChar: dollar
Encoding: 4 36 191
Width: 1292
VWidth: 0
GlyphClass: 2
Flags: HW
PickledData: "(dp1
S'com.typemytype.robofont.layerData'
p2
(dp3
S'b'
(dp4
S'name'
p5
S'dollar'
p6
sS'lib'
p7
(dp8
sS'unicodes'
p9
(tsS'width'
p10
I1274
sS'contours'
p11
(tsS'components'
p12
(tsS'anchors'
p13
(tsss."
LayerCount: 2
Fore
SplineSet
606 0 m 2
 606 -41 635 -61 665 -61 c 0
 696 -61 727 -40 727 0 c 2
 727 208.296642572 l 1
 912.181796201 226.510692718 1048 320.741352736 1048 509 c 0
 1048 631 990 732 783 783 c 2
 600 828 l 1
 441 866 408 885 408 975 c 0
 408 1088 510 1136 669 1136 c 0
 791 1136 890 1088 937 1071 c 0
 947 1068 956 1066 964 1066 c 0
 995 1066 1012 1089 1012 1113 c 0
 1012 1131 1002 1150 981 1162 c 0
 938.056622497 1185.57675628 840.519514621 1223.33370226 726 1234.67448864 c 1
 726 1438 l 2
 726 1478 694 1499 663 1499 c 0
 633 1499 604 1479 604 1438 c 2
 604 1236.09611651 l 1
 430.022306869 1224.00675046 270 1152.52131843 270 970 c 0
 270 794 386 753 560 711 c 2
 748 666 l 2
 876 635 923 587 923 494 c 0
 923 372 823 308 668 307 c 0
 550 307 444 345 365 394 c 0
 350 403 336 407 323 407 c 0
 293 407 272 384 272 358 c 0
 272 342 280 325 299 311 c 0
 358.405437295 267.319531401 479.629534709 219.059902793 606 207.558550872 c 1
 606 0 l 2
EndSplineSet
EndChar

StartChar: dotaccent
Encoding: 402 729 192
Width: 578
VWidth: 0
GlyphClass: 4
Flags: HW
LayerCount: 2
Fore
SplineSet
278 1200 m 0
 344 1200 381 1244 381 1293 c 0
 381 1337 344 1384 278 1384 c 0
 212 1384 176 1337 176 1293 c 0
 176 1244 212 1200 278 1200 c 0
EndSplineSet
EndChar

StartChar: dotlessi
Encoding: 240 305 193
Width: 467
VWidth: 0
GlyphClass: 2
Flags: HW
LayerCount: 2
Fore
SplineSet
232 0 m 0
 268 0 307 26 307 75 c 2
 307 916 l 2
 307 964 270 989 235 989 c 0
 198 989 160 964 160 916 c 2
 160 75 l 2
 160 23 195 0 232 0 c 0
EndSplineSet
EndChar

StartChar: uni0237
Encoding: 396 567 194
Width: 468
VWidth: 0
GlyphClass: 2
Flags: HW
LayerCount: 2
Fore
SplineSet
2 -376 m 0
 297 -376 308 -284 308 -36 c 2
 308 919 l 2
 308 966 268 990 236 990 c 0
 202 990 162 966 162 920 c 2
 162 -81 l 2
 162 -240 147 -258 15 -258 c 0
 11 -258 7 -258 3 -258 c 0
 -33 -258 -52 -289 -52 -319 c 0
 -52 -348 -34 -376 2 -376 c 0
EndSplineSet
EndChar

StartChar: e
Encoding: 69 101 195
Width: 1140
VWidth: 0
GlyphClass: 2
Flags: HW
PickledData: "(dp1
S'b'
(dp2
sS'anchors'
p3
(tsS'lib'
p4
(dp5
sS'unicodes'
p6
(tsS'width'
p7
I1132
sS'contours'
p8
(tsS'components'
p9
(tsS'com.typemytype.robofont.layerData'
p10
(dp11
S'b'
(dp12
S'name'
p13
S'e'
sg4
(dp14
sg6
(tsg7
I1132
sg8
(tsg9
(tsg3
(tsssg13
S'e'
s."
AnchorPoint: "ogonek" 735 22 basechar 0
LayerCount: 2
Fore
SplineSet
578 -21 m 0
 785 -21 897 61 970 130 c 0
 987 146 994 164 994 180 c 0
 994 207 974 228 948 228 c 0
 936 228 923 224 910 213 c 0
 830 148 737 85 585 85 c 0
 404 89 242 213 244 472 c 1
 956 472 l 2
 1000 472 1020 497 1020 525 c 0
 1012 784 900 1013 573 1013 c 0
 271 1013 97 770 97 493 c 0
 97 173 313 -21 576 -21 c 0
 577 -21 577 -21 578 -21 c 0
249 565 m 1
 262 744 373 912 585 912 c 0
 790 912 879 756 890 565 c 1
 249 565 l 1
EndSplineSet
EndChar

StartChar: eight
Encoding: 24 56 203
Width: 1150
VWidth: 0
GlyphClass: 2
Flags: HW
PickledData: "(dp1
S'com.typemytype.robofont.layerData'
p2
(dp3
S'b'
(dp4
S'name'
p5
S'eight'
p6
sS'lib'
p7
(dp8
sS'unicodes'
p9
(tsS'width'
p10
I1160
sS'contours'
p11
(tsS'components'
p12
(tsS'anchors'
p13
(tsss."
LayerCount: 2
Fore
SplineSet
575 -22 m 0
 829 -22 1046 108 1046 374 c 0
 1046 553 951 678 759 732 c 1
 937 775 1025 892 1025 1061 c 0
 1025 1313 815 1430 575 1430 c 0
 339 1430 127 1313 127 1061 c 0
 127 907 202 775 395 732 c 1
 206 694 106 547 106 374 c 0
 106 108 321 -22 575 -22 c 0
575 100 m 0
 408 100 264 188 264 371 c 0
 264 560 405 658 575 658 c 0
 745 658 886 560 886 371 c 0
 886 188 745 100 575 100 c 0
575 809 m 0
 395 809 277 895 277 1061 c 0
 277 1239 424 1313 575 1313 c 0
 728 1313 875 1239 875 1061 c 0
 875 895 757 809 575 809 c 0
EndSplineSet
EndChar

StartChar: ellipsis
Encoding: 455 8230 204
Width: 1735
VWidth: 0
GlyphClass: 2
Flags: HW
LayerCount: 2
Fore
SplineSet
289 -1 m 0
 355 -1 391 45 391 92 c 0
 391 135 355 182 289 182 c 0
 223 182 187 136 187 92 c 0
 187 45 222 -1 289 -1 c 0
867 -1 m 0
 934 -1 969 45 969 92 c 0
 969 135 935 182 867 182 c 0
 801 182 765 136 765 92 c 0
 765 45 800 -1 867 -1 c 0
1445 -1 m 0
 1512 -1 1547 45 1547 92 c 0
 1547 135 1513 182 1445 182 c 0
 1379 182 1344 136 1344 92 c 0
 1344 45 1379 -1 1445 -1 c 0
EndSplineSet
EndChar

StartChar: emdash
Encoding: 445 8212 206
Width: 2048
VWidth: 0
GlyphClass: 2
Flags: HW
LayerCount: 2
Fore
SplineSet
68 460 m 2
 1980 460 l 2
 2025 460 2046 493 2046 526 c 0
 2046 559 2025 593 1980 593 c 2
 68 593 l 2
 23 593 2 560 2 527 c 0
 2 493 23 460 68 460 c 2
EndSplineSet
EndChar

StartChar: emptyset
Encoding: 467 8709 207
Width: 1745
VWidth: 0
GlyphClass: 2
Flags: HW
LayerCount: 2
Fore
SplineSet
639 246 m 1
 1223 1007 l 1
 1309 920 1360 801 1360 669 c 0
 1360 389 1137 190 874 190 c 0
 787 190 708 210 639 246 c 1
544 312 m 1
 446 400 386 527 386 669 c 0
 386 941 599 1148 874 1148 c 0
 971 1148 1059 1122 1132 1078 c 1
 544 312 l 1
364 58 m 0
 364 31 386 -3 419 -3 c 0
 449 -3 473 30 495 59 c 2
 577 166 l 1
 666 119 768 92 874 92 c 0
 1206 92 1478 352 1478 669 c 0
 1478 839 1403 988 1288 1092 c 1
 1381 1212 l 1
 1397 1235 1420 1260 1420 1286 c 0
 1420 1315 1398 1345 1367 1345 c 0
 1349 1345 1331 1338 1314 1316 c 2
 1195 1161 l 1
 1100 1218 989 1251 874 1251 c 0
 526 1251 267 977 267 669 c 0
 267 489 352 333 481 229 c 1
 402 127 l 1
 385 107 364 78 364 58 c 0
EndSplineSet
EndChar

StartChar: endash
Encoding: 444 8211 208
Width: 1024
VWidth: 0
GlyphClass: 2
Flags: HW
LayerCount: 2
Fore
SplineSet
68 460 m 2
 955 460 l 2
 1000 460 1021 493 1021 526 c 0
 1021 559 1000 593 955 593 c 2
 68 593 l 2
 23 593 2 560 2 527 c 0
 2 493 23 460 68 460 c 2
EndSplineSet
EndChar

StartChar: eng
Encoding: 266 331 209
Width: 1151
VWidth: 0
GlyphClass: 2
Flags: HW
PickledData: "(dp1
S'com.typemytype.robofont.layerData'
p2
(dp3
S'b'
(dp4
S'name'
p5
S'eng'
p6
sS'lib'
p7
(dp8
sS'unicodes'
p9
(tsS'width'
p10
I1158
sS'contours'
p11
(tsS'components'
p12
(tsS'anchors'
p13
(tsss."
LayerCount: 2
Fore
SplineSet
401 -267 m 0
 499 -299 586 -315 663 -315 c 0
 873 -315 997 -194 997 47 c 2
 997 623 l 2
 997 897 859 1013 636 1013 c 0
 488 1013 355 942 309 808 c 1
 309 921 l 2
 309 966 272 988 236 988 c 0
 200 988 162 966 162 919 c 2
 162 68 l 2
 162 21 198 0 234 0 c 0
 271 0 309 24 309 68 c 2
 309 607 l 1
 324 805 444 912 605 912 c 0
 771 912 850 810 850 625 c 2
 850 70 l 2
 850 -127 788 -203 658 -203 c 0
 598 -203 522 -187 432 -158 c 0
 425 -156 417 -155 411 -155 c 0
 379 -155 359 -182 359 -210 c 0
 359 -233 372 -257 401 -267 c 0
EndSplineSet
EndChar

StartChar: equal
Encoding: 29 61 211
Width: 1345
VWidth: 0
GlyphClass: 2
Flags: HW
LayerCount: 2
Fore
SplineSet
227 237 m 2
 1122 237 l 2
 1158 237 1184 268 1184 300 c 0
 1184 336 1158 365 1120 365 c 2
 223 365 l 2
 187 365 160 336 160 300 c 0
 160 267 189 237 227 237 c 2
227 625 m 2
 1122 625 l 2
 1158 625 1184 656 1184 689 c 0
 1184 724 1158 754 1122 754 c 2
 223 754 l 2
 187 754 160 724 160 689 c 0
 160 655 189 625 227 625 c 2
EndSplineSet
EndChar

StartChar: estimated
Encoding: 465 8494 212
Width: 1132
VWidth: 0
GlyphClass: 2
Flags: HW
LayerCount: 2
Fore
SplineSet
600 -12 m 0
 782 -12 888 35 982 115 c 0
 1008 137 1019 159 1019 177 c 0
 1019 199 1003 214 980 214 c 0
 955 214 938 201 921 183 c 0
 826 85 712 39 604 39 c 0
 428 39 327 159 315 491 c 1
 942 491 l 2
 990 491 1007 541 1007 577 c 0
 1007 786 927 1013 577 1013 c 0
 231 1013 115 759 115 512 c 0
 115 183 268 -12 600 -12 c 0
317 562 m 1
 328 796 421 968 591 968 c 0
 764 968 825 817 836 562 c 1
 317 562 l 1
EndSplineSet
EndChar

StartChar: eth
Encoding: 175 240 213
Width: 1158
VWidth: 0
GlyphClass: 2
Flags: HW
PickledData: "(dp1
S'com.typemytype.robofont.layerData'
p2
(dp3
S'b'
(dp4
S'name'
p5
S'eth'
p6
sS'lib'
p7
(dp8
sS'unicodes'
p9
(tsS'width'
p10
I1230
sS'contours'
p11
(tsS'components'
p12
(tsS'anchors'
p13
(tsss."
LayerCount: 2
Fore
SplineSet
550 -33 m 0
 949 -33 1069 281 1069 616 c 0
 1069 748 1057 901 1022 1051 c 1
 1157 1051 l 2
 1196 1051 1218 1082 1218 1113 c 0
 1218 1143 1199 1173 1157 1173 c 2
 985 1173 l 1
 936 1302 829 1521 729 1521 c 0
 688 1521 653 1490 653 1452 c 0
 653 1436 659 1419 674 1403 c 0
 735 1333 780 1253 812 1173 c 1
 638 1173 l 2
 596 1173 575 1142 575 1112 c 0
 575 1081 596 1051 638 1051 c 2
 854 1051 l 1
 890 906 895 781 896 670 c 1
 833 816 690 886 528 886 c 0
 249 886 90 698 90 436 c 0
 90 170 263 -33 550 -33 c 0
567 99 m 0
 367 99 257 237 257 426 c 0
 257 603 340 767 543 767 c 0
 759 767 876 616 876 417 c 0
 876 248 747 99 567 99 c 0
EndSplineSet
EndChar

StartChar: exclam
Encoding: 1 33 214
Width: 795
VWidth: 0
GlyphClass: 2
Flags: HW
LayerCount: 2
Fore
SplineSet
376 425 m 2
 377 393 396 377 415 377 c 0
 434 377 453 392 456 425 c 1
 500 1405 l 2
 501 1459 459 1486 416 1486 c 0
 373 1486 331 1459 333 1405 c 2
 376 425 l 2
EndSplineSet
Refer: 312 46 N 1 0 0 1 130 -3 2
EndChar

StartChar: f
Encoding: 70 102 216
Width: 691
VWidth: 0
GlyphClass: 2
Flags: HW
PickledData: "(dp1
S'b'
(dp2
sS'anchors'
p3
(tsS'lib'
p4
(dp5
sS'unicodes'
p6
(tsS'width'
p7
I723
sS'contours'
p8
(tsS'components'
p9
(tsS'com.typemytype.robofont.layerData'
p10
(dp11
S'b'
(dp12
S'name'
p13
S'f'
sg4
(dp14
sg6
(tsg7
I696
sg8
(tsg9
(tsg3
(tsssg13
S'f'
s."
LayerCount: 2
Fore
SplineSet
318 0 m 0
 356 0 392 25 392 73 c 2
 392 882 l 1
 579 882 l 2
 620 882 630 901 630 930 c 0
 630 958 620 979 579 979 c 2
 392 979 l 1
 392 1047 l 2
 392 1291 425 1327 541 1327 c 2
 626 1327 l 2
 662 1327 679 1354 679 1381 c 0
 679 1408 662 1436 628 1436 c 2
 509 1436 l 2
 362 1436 246 1374 246 1113 c 2
 246 979 l 1
 100 979 l 2
 59 979 45 958 45 930 c 0
 45 903 59 882 100 882 c 2
 246 882 l 1
 246 73 l 2
 246 24 283 0 318 0 c 0
EndSplineSet
EndChar

StartChar: uniFB01
Encoding: 483 64257 217
Width: 1156
VWidth: 0
GlyphClass: 2
Flags: HW
LayerCount: 2
Fore
SplineSet
315 1 m 0
 353 1 390 26 390 74 c 2
 390 871 l 1
 849 871 l 1
 849 75 l 2
 849 23 884 0 920 0 c 0
 957 0 996 26 996 75 c 2
 996 916 l 2
 996 968 955 990 918 990 c 2
 390 990 l 1
 390 1022 l 2
 390 1258 398 1323 509 1323 c 0
 555 1323 590 1309 633 1309 c 0
 666 1309 685 1339 685 1370 c 0
 685 1393 673 1417 643 1424 c 0
 588 1439 535 1447 485 1447 c 0
 338 1447 243 1361 243 1104 c 2
 243 990 l 1
 99 990 l 2
 58 990 38 961 38 931 c 0
 38 902 58 871 99 871 c 2
 243 871 l 1
 243 74 l 2
 243 25 280 1 315 1 c 0
923 1248 m 0
 988 1248 1025 1290 1025 1337 c 0
 1025 1383 988 1425 923 1425 c 0
 857 1425 819 1383 819 1337 c 0
 819 1290 857 1248 923 1248 c 0
EndSplineSet
EndChar

StartChar: five
Encoding: 21 53 218
Width: 1150
VWidth: 0
GlyphClass: 2
Flags: HW
PickledData: "(dp1
S'com.typemytype.robofont.layerData'
p2
(dp3
S'b'
(dp4
S'name'
p5
S'five'
p6
sS'lib'
p7
(dp8
sS'unicodes'
p9
(tsS'width'
p10
I1160
sS'contours'
p11
(tsS'components'
p12
(tsS'anchors'
p13
(tsss."
LayerCount: 2
Fore
SplineSet
601 -22 m 0
 887 -22 1072 158 1072 435 c 0
 1072 696 914 891 637 891 c 0
 416 891 314 754 314 754 c 1
 316 1283 l 1
 921 1283 l 2
 966 1283 986 1310 986 1344 c 0
 986 1377 966 1405 921 1405 c 2
 262 1405 l 2
 211 1405 187 1375 187 1334 c 2
 187 659 l 2
 187 627 239 602 280 602 c 0
 298 602 314 607 322 619 c 0
 382 710 515 766 624 766 c 0
 803 766 918 629 918 439 c 0
 918 237 814 107 597 107 c 0
 454 107 346 168 272 239 c 0
 263 248 252 252 241 252 c 0
 206 252 168 216 168 180 c 0
 168 167 173 154 185 143 c 0
 313 27 435 -22 601 -22 c 0
EndSplineSet
EndChar

StartChar: uniFB02
Encoding: 484 64258 220
Width: 1156
VWidth: 0
GlyphClass: 2
Flags: HW
LayerCount: 2
Fore
SplineSet
315 1 m 0
 353 1 390 26 390 74 c 2
 390 871 l 1
 557 871 l 2
 597 871 617 901 617 931 c 0
 617 961 597 990 557 990 c 2
 390 990 l 1
 390 1024 l 2
 390 1257 407 1335 517 1335 c 2
 774 1335 l 1
 774 75 l 2
 774 23 809 0 846 0 c 0
 882 0 921 26 921 75 c 2
 921 1349 l 2
 921 1400 885 1423 849 1423 c 0
 812 1423 778 1400 775 1354 c 1
 769 1362 697 1446 484 1446 c 0
 343 1446 243 1358 243 1104 c 2
 243 990 l 1
 99 990 l 2
 58 990 38 961 38 931 c 0
 38 902 58 871 99 871 c 2
 243 871 l 1
 243 74 l 2
 243 25 280 1 315 1 c 0
EndSplineSet
EndChar

StartChar: florin
Encoding: 318 402 221
Width: 1158
VWidth: 0
GlyphClass: 2
Flags: HW
LayerCount: 2
Fore
SplineSet
45 -535 m 0
 192 -535 357 -445 462 -20 c 0
 526 242 584 548 645 817 c 1
 842 817 l 2
 886 817 908 850 908 882 c 0
 908 915 886 949 842 949 c 2
 674 949 l 1
 753 1291 833 1428 968 1428 c 0
 1031 1428 1060 1455 1060 1485 c 0
 1060 1511 1034 1538 985 1538 c 0
 791 1538 618 1376 539 949 c 1
 355 949 l 2
 311 949 288 917 288 883 c 0
 288 849 311 817 355 817 c 2
 511 817 l 1
 451 548 394 243 330 -18 c 0
 246 -359 133 -415 62 -418 c 0
 0 -422 -30 -454 -30 -483 c 0
 -30 -511 -7 -535 45 -535 c 0
EndSplineSet
EndChar

StartChar: foundryicon
Encoding: 488 -1 222
Width: 1347
VWidth: 0
GlyphClass: 2
Flags: HW
LayerCount: 2
Fore
SplineSet
485 405 m 1
 485 672 l 1
 591 672 l 1
 761 523 l 1
 761 672 l 1
 867 672 l 1
 867 405 l 1
 761 405 l 1
 591 552 l 1
 591 405 l 1
 485 405 l 1
280 2 m 1
 669 278 l 1
 1066 2 l 1
 922 461 l 1
 1313 755 l 1
 828 755 l 1
 669 1215 l 1
 519 755 l 1
 34 755 l 1
 423 461 l 1
 280 2 l 1
EndSplineSet
EndChar

StartChar: four
Encoding: 20 52 223
Width: 1150
VWidth: 0
GlyphClass: 2
Flags: HW
PickledData: "(dp1
S'com.typemytype.robofont.layerData'
p2
(dp3
S'b'
(dp4
S'name'
p5
S'four'
p6
sS'lib'
p7
(dp8
sS'unicodes'
p9
(tsS'width'
p10
I1160
sS'contours'
p11
(tsS'components'
p12
(tsS'anchors'
p13
(tsss."
LayerCount: 2
Fore
SplineSet
831 1 m 0
 870 1 909 25 909 74 c 2
 909 320 l 1
 1070 320 l 2
 1111 320 1131 351 1131 381 c 0
 1131 412 1111 443 1070 443 c 2
 910 443 l 1
 910 1311 l 2
 910 1390 856 1424 796 1424 c 0
 746 1424 700 1401 668 1352 c 2
 97 473 l 2
 83 451 76 428 76 408 c 0
 76 359 114 320 170 320 c 2
 751 320 l 1
 751 74 l 2
 751 25 792 1 831 1 c 0
232 443 m 1
 751 1257 l 1
 751 443 l 1
 232 443 l 1
EndSplineSet
EndChar

StartChar: uni2074
Encoding: 460 8308 224
Width: 718
VWidth: 0
GlyphClass: 2
Flags: HW
LayerCount: 2
Fore
SplineSet
482 560 m 0
 505 560 527 575 527 605 c 2
 527 750 l 1
 624 750 l 2
 649 750 660 766 660 784 c 0
 660 803 647 819 624 819 c 2
 527 819 l 1
 527 1331 l 2
 527 1379 497 1399 461 1399 c 0
 432 1399 405 1386 386 1356 c 2
 44 839 l 2
 36 828 32 816 32 803 c 0
 32 775 53 750 86 750 c 2
 435 750 l 1
 435 605 l 2
 435 575 458 560 482 560 c 0
114 819 m 1
 435 1309 l 1
 435 819 l 1
 114 819 l 1
EndSplineSet
EndChar

StartChar: fraction
Encoding: 459 8260 225
Width: 581
VWidth: 0
GlyphClass: 2
Flags: HW
LayerCount: 2
Fore
SplineSet
44 -75 m 0
 71 -75 98 -61 109 -27 c 2
 598 1442 l 2
 601 1453 603 1462 603 1468 c 0
 603 1508 569 1531 534 1531 c 0
 507 1531 478 1516 468 1482 c 1
 -17 13 l 2
 -20 2 -22 -7 -22 -13 c 0
 -22 -53 11 -75 44 -75 c 0
EndSplineSet
EndChar

StartChar: g
Encoding: 71 103 226
Width: 1160
VWidth: 0
GlyphClass: 2
Flags: HW
PickledData: "(dp1
S'b'
(dp2
sS'anchors'
p3
(tsS'lib'
p4
(dp5
sS'unicodes'
p6
(tsS'width'
p7
I1207
sS'contours'
p8
(tsS'components'
p9
(tsS'com.typemytype.robofont.layerData'
p10
(dp11
S'b'
(dp12
S'name'
p13
S'g'
sg4
(dp14
sg6
(tsg7
I1167
sg8
(tsg9
(tsg3
(tsssg13
S'g'
s."
LayerCount: 2
Fore
SplineSet
551 -410 m 0
 834 -410 1011 -277 1011 -4 c 2
 1011 922 l 2
 1011 966 978 989 942 989 c 0
 909 989 875 967 873 926 c 1
 873 795 l 1
 816 928 704 1013 529 1013 c 0
 238 1013 87 770 87 490 c 0
 87 237 233 0 533 0 c 0
 706 0 822 104 867 226 c 1
 867 0 l 2
 867 -197 773 -304 543 -304 c 0
 411 -304 308 -266 254 -245 c 0
 248 -243 243 -242 237 -242 c 0
 208 -242 186 -268 186 -296 c 0
 186 -315 196 -336 223 -348 c 0
 282 -374 389 -410 551 -410 c 0
557 99 m 0
 377 99 234 225 234 496 c 0
 234 729 335 912 554 912 c 0
 795 912 866 692 866 500 c 0
 866 257 729 99 557 99 c 0
EndSplineSet
EndChar

StartChar: germandbls
Encoding: 158 223 232
Width: 1270
VWidth: 0
GlyphClass: 2
Flags: HW
LayerCount: 2
Fore
SplineSet
830 -29 m 0
 1027 -29 1191 93 1191 305 c 0
 1191 614 754 603 754 791 c 0
 754 889 994 986 994 1145 c 0
 994 1347 808 1453 611 1453 c 0
 308 1453 172 1270 172 995 c 2
 172 71 l 2
 172 23 207 0 243 0 c 0
 281 0 318 24 318 71 c 2
 318 961 l 1
 321 1136 377 1336 595 1336 c 0
 714 1336 839 1277 839 1149 c 0
 839 1014 598 950 598 778 c 0
 598 520 1038 521 1038 299 c 0
 1038 159 954 91 825 91 c 0
 743 91 686 128 644 193 c 0
 631 213 612 222 594 222 c 0
 560 222 527 195 527 158 c 0
 527 146 530 134 537 121 c 0
 592 20 695 -29 830 -29 c 0
EndSplineSet
EndChar

StartChar: grave
Encoding: 64 96 233
Width: 569
VWidth: 0
GlyphClass: 4
Flags: HW
LayerCount: 2
Fore
SplineSet
466 1193 m 0
 488 1193 500 1208 500 1228 c 0
 500 1238 498 1247 489 1258 c 2
 214 1561 l 1
 198 1576 185 1581 168 1581 c 0
 125 1581 82 1536 82 1496 c 0
 82 1481 89 1466 104 1455 c 2
 428 1208 l 2
 442 1198 454 1193 466 1193 c 0
EndSplineSet
EndChar

StartChar: greater
Encoding: 30 62 234
Width: 1345
VWidth: 0
GlyphClass: 2
Flags: HW
PickledData: "(dp1
S'com.typemytype.robofont.layerData'
p2
(dp3
S'b'
(dp4
S'name'
p5
S'less'
p6
sS'lib'
p7
(dp8
sS'unicodes'
p9
(tsS'width'
p10
I1340
sS'contours'
p11
(tsS'components'
p12
(tsS'anchors'
p13
(tsss."
LayerCount: 2
Fore
SplineSet
235 33 m 2
 1135 435 l 2
 1163 447 1178 471 1178 495 c 0
 1178 517 1165 538 1137 550 c 2
 239 934 l 2
 232 937 225 938 219 938 c 0
 189 938 163 908 163 880 c 0
 163 864 171 848 193 839 c 2
 1008 494 l 1
 190 129 l 2
 174 122 168 107 168 90 c 0
 168 61 187 29 216 29 c 0
 222 29 229 30 235 33 c 2
EndSplineSet
EndChar

StartChar: greaterequal
Encoding: 480 8805 235
Width: 1169
VWidth: 0
GlyphClass: 2
Flags: HW
LayerCount: 2
Fore
SplineSet
156 222 m 0
 165 222 173 224 183 228 c 2
 1074 608 l 1
 1116 627 1134 653 1134 683 c 0
 1134 713 1116 739 1076 756 c 2
 181 1156 l 2
 171 1160 162 1162 153 1162 c 0
 117 1162 92 1131 92 1099 c 0
 92 1077 104 1058 130 1046 c 2
 941 684 l 1
 132 342 l 2
 105 331 93 310 93 287 c 0
 93 253 121 222 156 222 c 0
160 14 m 2
 1008 14 l 2
 1044 14 1061 40 1061 66 c 0
 1061 92 1044 119 1008 119 c 2
 160 119 l 2
 125 119 107 93 107 66 c 0
 107 41 125 14 160 14 c 2
EndSplineSet
EndChar

StartChar: guillemotleft
Encoding: 106 171 236
Width: 1151
VWidth: 0
GlyphClass: 2
Flags: HW
LayerCount: 2
Fore
SplineSet
471 125 m 0
 498 125 521 145 521 173 c 0
 522 181 520 189 517 196 c 2
 352 545 l 1
 518 896 l 2
 521 902 521 910 521 915 c 0
 521 944 499 965 470 965 c 0
 449 965 424 952 408 921 c 1
 200 545 l 1
 409 166 l 2
 426 134 450 125 471 125 c 0
847 125 m 0
 874 125 898 146 898 174 c 0
 898 182 897 189 894 196 c 2
 729 545 l 1
 895 896 l 2
 897 901 898 907 898 915 c 0
 898 944 874 965 846 965 c 0
 825 965 801 953 783 921 c 2
 575 545 l 1
 785 166 l 2
 802 134 826 125 847 125 c 0
EndSplineSet
EndChar

StartChar: guillemotright
Encoding: 122 187 237
Width: 1151
VWidth: 0
GlyphClass: 2
Flags: HW
LayerCount: 2
Fore
SplineSet
299 125 m 0
 319 125 344 135 361 166 c 2
 570 545 l 1
 361 923 l 2
 344 953 319 965 299 965 c 0
 271 965 248 944 248 915 c 0
 248 909 249 902 252 896 c 2
 418 545 l 1
 252 194 l 2
 249 187 248 179 248 173 c 0
 248 146 271 125 299 125 c 0
676 125 m 0
 696 125 721 135 738 166 c 2
 947 545 l 1
 738 923 l 2
 721 953 696 965 676 965 c 0
 648 965 624 944 624 915 c 0
 624 909 625 902 629 896 c 1
 795 545 l 1
 629 194 l 2
 625 186 624 179 624 173 c 0
 624 145 648 125 676 125 c 0
EndSplineSet
EndChar

StartChar: guilsinglleft
Encoding: 457 8249 238
Width: 578
VWidth: 0
GlyphClass: 2
Flags: HW
LayerCount: 2
Fore
SplineSet
384 124 m 0
 413 124 435 144 435 173 c 0
 435 182 433 190 430 197 c 2
 267 545 l 1
 430 893 l 2
 434 900 435 909 435 915 c 0
 435 944 413 965 384 965 c 0
 362 965 337 952 321 921 c 1
 113 545 l 1
 321 168 l 2
 339 135 362 124 384 124 c 0
EndSplineSet
EndChar

StartChar: guilsinglright
Encoding: 458 8250 239
Width: 578
VWidth: 0
GlyphClass: 2
Flags: HW
LayerCount: 2
Fore
SplineSet
195 124 m 0
 216 124 242 135 259 168 c 1
 467 545 l 1
 259 921 l 2
 242 952 215 965 195 965 c 0
 166 965 143 944 143 915 c 0
 143 908 145 900 149 893 c 2
 313 545 l 1
 149 197 l 2
 145 188 143 181 143 174 c 0
 143 145 166 124 195 124 c 0
EndSplineSet
EndChar

StartChar: h
Encoding: 72 104 240
Width: 1141
VWidth: 0
GlyphClass: 2
Flags: HW
PickledData: "(dp1
S'segmentType'
p2
S'curve'
p3
sS'b'
(dp4
sS'anchors'
p5
(tsS'lib'
p6
(dp7
sS'unicodes'
p8
(tsS'width'
p9
I1195
sS'points'
p10
(dp11
sS'contours'
p12
(dp13
sS'components'
p14
(tsS'y'
I113
sS'x'
I137
sS'com.typemytype.robofont.layerData'
p15
(dp16
S'b'
(dp17
S'name'
p18
S'h'
sg6
(dp19
sg8
(tsg9
I1148
sg12
(tsg14
(tsg5
(tsssg18
S'h'
s."
LayerCount: 2
Fore
SplineSet
234 0 m 0
 271 0 308 23 308 69 c 2
 308 578 l 2
 308 799 451 895 621 895 c 0
 763 895 850 819 850 647 c 2
 850 69 l 2
 850 23 886 0 922 0 c 0
 959 0 997 23 997 69 c 2
 997 633 l 2
 997 908 835 1013 643 1013 c 0
 507 1013 360 947 308 817 c 1
 308 1357 l 2
 308 1401 273 1423 236 1423 c 0
 200 1423 162 1400 162 1357 c 2
 162 69 l 2
 162 23 198 0 234 0 c 0
EndSplineSet
EndChar

StartChar: hungarumlaut
Encoding: 406 733 243
Width: 569
VWidth: 0
GlyphClass: 4
Flags: HW
LayerCount: 2
Fore
SplineSet
21 1103 m 0
 32 1103 46 1107 61 1118 c 2
 384 1364 l 2
 399 1375 405 1390 405 1406 c 0
 405 1448 362 1490 319 1490 c 0
 301 1490 285 1483 271 1467 c 2
 -1 1169 l 2
 -11 1158 -14 1148 -14 1137 c 0
 -14 1117 -1 1103 21 1103 c 0
323 1103 m 0
 334 1103 347 1107 362 1118 c 2
 685 1364 l 2
 700 1375 707 1391 707 1407 c 0
 707 1448 663 1490 620 1490 c 0
 602 1490 586 1483 572 1467 c 2
 300 1169 l 2
 290 1158 288 1148 288 1137 c 0
 288 1119 301 1103 323 1103 c 0
EndSplineSet
EndChar

StartChar: hyphen
Encoding: 13 45 244
Width: 704
VWidth: 0
GlyphClass: 2
Flags: HW
LayerCount: 2
Fore
SplineSet
111 472 m 2
 595 472 l 2
 639 472 664 492 664 525 c 0
 664 560 638 581 595 581 c 2
 111 581 l 2
 67 581 41 560 41 525 c 0
 41 492 67 472 111 472 c 2
EndSplineSet
EndChar

StartChar: i
Encoding: 73 105 245
Width: 489
VWidth: 0
GlyphClass: 2
Flags: HW
LayerCount: 2
Fore
SplineSet
250 0 m 0
 287 0 326 26 326 75 c 2
 326 916 l 2
 326 965 289 989 254 989 c 0
 217 989 179 965 179 916 c 2
 179 75 l 2
 179 23 214 0 250 0 c 0
251 1240 m 0
 313 1240 355 1279 355 1337 c 0
 355 1394 314 1433 252 1433 c 0
 191 1433 149 1394 149 1337 c 0
 149 1279 190 1240 251 1240 c 0
EndSplineSet
EndChar

StartChar: infinity
Encoding: 475 8734 254
Width: 1599
VWidth: 0
GlyphClass: 2
Flags: HW
LayerCount: 2
Fore
SplineSet
413 268 m 0
 580 268 693 389 802 513 c 1
 945 351 1051 268 1180 268 c 0
 1342 268 1495 394 1495 594 c 2
 1495 596 l 2
 1495 782 1371 909 1192 909 c 0
 1019 909 914 782 809 662 c 1
 700 792 582 909 427 909 c 0
 242 909 103 772 103 585 c 0
 103 406 247 268 413 268 c 0
425 361 m 2
 290 361 207 463 207 587 c 0
 207 711 282 818 412 818 c 0
 562 818 657 694 748 582 c 1
 663 493 560 361 427 361 c 2
 425 361 l 2
1189 361 m 0
 1077 361 996 440 860 591 c 1
 932 666 1043 818 1183 818 c 2
 1186 818 l 2
 1303 818 1394 732 1394 587 c 0
 1394 476 1321 361 1189 361 c 0
EndSplineSet
EndChar

StartChar: integral
Encoding: 476 8747 255
Width: 730
VWidth: 0
GlyphClass: 2
Flags: HW
LayerCount: 2
Fore
SplineSet
159 -329 m 0
 307 -329 449 -239 449 187 c 0
 449 517 422 901 422 1220 c 0
 422 1516 474 1635 598 1635 c 0
 649 1635 679 1662 679 1691 c 0
 679 1719 651 1746 587 1746 c 0
 400 1746 285 1603 285 1233 c 0
 285 914 315 522 315 189 c 0
 315 -168 221 -211 139 -211 c 0
 88 -211 60 -239 60 -268 c 0
 60 -298 91 -329 159 -329 c 0
EndSplineSet
EndChar

StartChar: j
Encoding: 74 106 258
Width: 492
VWidth: 0
GlyphClass: 2
Flags: HW
LayerCount: 2
Fore
SplineSet
22 -376 m 0
 323 -376 333 -284 333 -37 c 2
 333 916 l 2
 333 965 296 989 260 989 c 0
 223 989 185 965 185 916 c 2
 185 -78 l 2
 185 -244 167 -258 23 -258 c 0
 -14 -258 -33 -288 -33 -318 c 0
 -33 -347 -15 -376 22 -376 c 0
256 1240 m 0
 318 1240 360 1279 360 1337 c 0
 360 1394 319 1433 257 1433 c 0
 196 1433 154 1394 154 1337 c 0
 154 1279 194 1240 256 1240 c 0
EndSplineSet
EndChar

StartChar: k
Encoding: 75 107 260
Width: 974
VWidth: 0
GlyphClass: 2
Flags: HW
PickledData: "(dp1
S'com.typemytype.robofont.layerData'
p2
(dp3
S'b'
(dp4
S'name'
p5
S'k'
sS'lib'
p6
(dp7
sS'unicodes'
p8
(tsS'width'
p9
I984
sS'contours'
p10
((dp11
S'points'
p12
((dp13
S'segmentType'
p14
S'line'
p15
sS'x'
I318
sS'smooth'
p16
I0
sS'y'
I536
s(dp17
g14
S'line'
p18
sS'x'
I793
sg16
I1
sS'y'
I27
s(dp19
S'y'
I9
sS'x'
I809
sg16
I0
s(dp20
S'y'
I1
sS'x'
I828
sg16
I0
s(dp21
g14
S'curve'
p22
sS'x'
I845
sg16
I1
sS'y'
I1
s(dp23
S'y'
I1
sS'x'
I883
sg16
I0
s(dp24
S'y'
I33
sS'x'
I922
sg16
I0
s(dp25
g14
S'curve'
p26
sS'x'
I922
sg16
I1
sS'y'
I71
s(dp27
S'y'
I84
sS'x'
I922
sg16
I0
s(dp28
S'y'
I99
sS'x'
I918
sg16
I0
s(dp29
g14
S'curve'
p30
sS'x'
I906
sg16
I1
sS'y'
I112
s(dp31
g14
S'line'
p32
sS'x'
I492
sg16
I0
sS'y'
I554
s(dp33
g14
S'line'
p34
sS'x'
I873
sg16
I1
sS'y'
I889
s(dp35
S'y'
I902
sS'x'
I888
sg16
I0
s(dp36
S'y'
I918
sS'x'
I894
sg16
I0
s(dp37
g14
S'curve'
p38
sS'x'
I894
sg16
I1
sS'y'
I933
s(dp39
S'y'
I968
sS'x'
I894
sg16
I0
s(dp40
S'y'
I1002
sS'x'
I858
sg16
I0
s(dp41
g14
S'curve'
p42
sS'x'
I821
sg16
I1
sS'y'
I1002
s(dp43
S'y'
I1002
sS'x'
I802
sg16
I0
s(dp44
S'y'
I994
sS'x'
I785
sg16
I0
s(dp45
g14
S'curve'
p46
sS'x'
I770
sg16
I0
sS'y'
I979
s(dp47
g14
S'line'
p48
sS'x'
I318
sg16
I0
sS'y'
I574
stp49
stp50
sS'components'
p51
(tsS'anchors'
p52
(tsss."
LayerCount: 2
Fore
SplineSet
233 0 m 0
 271 0 308 26 308 75 c 2
 308 542 l 1
 790 25 l 2
 805 9 823 2 839 2 c 0
 874 2 906 34 906 69 c 0
 906 84 900 98 887 112 c 2
 469 556 l 1
 861 897 l 2
 877 911 884 927 884 942 c 0
 884 976 850 1005 816 1005 c 0
 804 1005 791 1001 780 992 c 2
 308 575 l 1
 308 1349 l 2
 308 1398 272 1423 236 1423 c 0
 200 1423 162 1398 162 1349 c 2
 162 75 l 2
 162 22 197 0 233 0 c 0
EndSplineSet
EndChar

StartChar: kgreenlandic
Encoding: 247 312 262
Width: 973
VWidth: 0
GlyphClass: 2
Flags: HW
PickledData: "(dp1
S'com.typemytype.robofont.layerData'
p2
(dp3
S'b'
(dp4
S'name'
p5
S'kgreenlandic'
p6
sS'lib'
p7
(dp8
sS'unicodes'
p9
(tsS'width'
p10
I1047
sS'contours'
p11
(tsS'components'
p12
(tsS'anchors'
p13
(tsss."
LayerCount: 2
Fore
SplineSet
232 0 m 0
 269 0 307 26 307 75 c 2
 307 511 l 1
 788 25 l 2
 804 9 821 3 837 3 c 0
 873 3 905 34 905 69 c 0
 905 84 900 98 886 112 c 2
 467 525 l 1
 860 897 l 2
 875 911 881 927 881 942 c 0
 881 976 849 1007 816 1007 c 0
 803 1007 790 1002 779 992 c 2
 307 544 l 1
 307 929 l 2
 307 978 270 1003 235 1003 c 0
 198 1003 160 978 160 929 c 2
 160 75 l 2
 160 22 196 0 232 0 c 0
EndSplineSet
EndChar

StartChar: l
Encoding: 76 108 263
Width: 490
VWidth: 0
GlyphClass: 2
Flags: HW
PickledData: "(dp1
S'com.typemytype.robofont.layerData'
p2
(dp3
S'b'
(dp4
S'name'
p5
S'l'
sS'lib'
p6
(dp7
sS'unicodes'
p8
(tsS'width'
p9
I511
sS'contours'
p10
(tsS'components'
p11
(tsS'anchors'
p12
(tsss."
LayerCount: 2
Fore
SplineSet
254 0 m 0
 291 0 329 26 329 75 c 2
 329 1349 l 2
 329 1398 293 1423 257 1423 c 0
 221 1423 183 1398 183 1349 c 2
 183 75 l 2
 183 23 217 0 254 0 c 0
EndSplineSet
EndChar

StartChar: less
Encoding: 28 60 268
Width: 1345
VWidth: 0
GlyphClass: 2
Flags: HW
PickledData: "(dp1
S'com.typemytype.robofont.layerData'
p2
(dp3
S'b'
(dp4
S'name'
p5
S'less'
p6
sS'lib'
p7
(dp8
sS'unicodes'
p9
(tsS'width'
p10
I1340
sS'contours'
p11
(tsS'components'
p12
(tsS'anchors'
p13
(tsss."
LayerCount: 2
Fore
SplineSet
1105 33 m 2
 1111 30 1118 29 1124 29 c 0
 1153 29 1172 61 1172 90 c 0
 1172 107 1166 122 1150 129 c 2
 332 494 l 1
 1147 839 l 2
 1169 848 1177 864 1177 880 c 0
 1177 908 1151 938 1121 938 c 0
 1115 938 1108 937 1101 934 c 2
 203 550 l 2
 175 538 162 517 162 495 c 0
 162 471 177 447 205 435 c 2
 1105 33 l 2
EndSplineSet
EndChar

StartChar: lessequal
Encoding: 479 8804 269
Width: 1169
VWidth: 0
GlyphClass: 2
Flags: HW
LayerCount: 2
Fore
SplineSet
1030 210 m 0
 1066 210 1090 243 1090 275 c 0
 1090 297 1081 316 1054 328 c 2
 243 689 l 1
 1052 1031 l 2
 1078 1043 1090 1065 1090 1085 c 0
 1090 1119 1064 1152 1026 1152 c 0
 1018 1152 1009 1150 1000 1146 c 2
 109 765 l 2
 68 747 50 719 50 690 c 0
 50 661 67 634 106 618 c 1
 1002 217 l 2
 1011 212 1021 210 1030 210 c 0
157 14 m 2
 1005 14 l 2
 1039 14 1058 41 1058 66 c 0
 1058 93 1041 119 1005 119 c 2
 157 119 l 2
 121 119 104 93 104 66 c 0
 104 41 122 14 157 14 c 2
EndSplineSet
EndChar

StartChar: logicalnot
Encoding: 107 172 270
Width: 1345
VWidth: 0
GlyphClass: 2
Flags: HW
LayerCount: 2
Fore
SplineSet
1118 228 m 0
 1151 228 1185 249 1185 292 c 2
 1185 715 l 2
 1185 749 1151 782 1117 782 c 2
 220 782 l 2
 179 782 162 750 162 716 c 0
 162 683 179 650 220 650 c 2
 1052 650 l 1
 1052 292 l 2
 1052 249 1084 228 1118 228 c 0
EndSplineSet
EndChar

StartChar: lozenge
Encoding: 481 9674 271
Width: 1183
VWidth: 0
GlyphClass: 2
Flags: HW
LayerCount: 2
Fore
SplineSet
589 -85 m 0
 612 -85 634 -72 650 -43 c 2
 1068 713 l 1
 650 1479 l 2
 635 1506 615 1517 592 1517 c 0
 571 1517 548 1503 533 1476 c 2
 117 713 l 1
 533 -50 l 2
 547 -76 566 -85 589 -85 c 0
589 77 m 1
 249 717 l 1
 586 1347 l 1
 593 1347 l 1
 933 711 l 1
 595 77 l 1
 589 77 l 1
EndSplineSet
EndChar

StartChar: lslash
Encoding: 257 322 272
Width: 631
VWidth: 0
GlyphClass: 2
Flags: HW
LayerCount: 2
Fore
SplineSet
109 586 m 0
 119 586 128 589 137 593 c 2
 567 842 l 2
 591 856 597 872 597 893 c 0
 597 928 570 961 532 961 c 0
 525 961 516 959 504 954 c 1
 79 708 l 2
 55 695 45 675 45 654 c 0
 45 620 72 586 109 586 c 0
EndSplineSet
Refer: 263 108 N 1 0 0 1 59 0 2
EndChar

StartChar: m
Encoding: 77 109 273
Width: 1833
VWidth: 0
GlyphClass: 2
Flags: HW
PickledData: "(dp1
S'b'
(dp2
sS'anchors'
p3
(tsS'lib'
p4
(dp5
sS'unicodes'
p6
(tsS'width'
p7
I1877
sS'contours'
p8
(tsS'components'
p9
(tsS'com.typemytype.robofont.layerData'
p10
(dp11
S'b'
(dp12
S'name'
p13
S'm'
sg4
(dp14
sg6
(tsg7
I1838
sg8
(tsg9
(tsg3
(tsssg13
S'm'
s."
LayerCount: 2
Fore
SplineSet
234 0 m 0
 272 0 310 22 310 68 c 2
 310 578 l 2
 310 797 434 913 618 913 c 0
 763 913 850 820 850 601 c 2
 850 69 l 2
 850 23 885 0 922 0 c 0
 958 0 996 23 996 69 c 2
 996 586 l 2
 996 822 1144 913 1303 913 c 0
 1453 913 1537 822 1537 644 c 2
 1537 68 l 2
 1537 22 1573 0 1610 0 c 0
 1646 0 1684 22 1684 68 c 2
 1684 633 l 2
 1684 908 1515 1013 1330 1013 c 0
 1148 1013 1017 936 964 772 c 1
 920 943 790 1013 636 1013 c 0
 483 1013 359 934 310 812 c 1
 310 925 l 2
 310 968 271 989 236 989 c 0
 200 989 162 966 162 923 c 2
 162 68 l 2
 162 22 198 0 234 0 c 0
EndSplineSet
EndChar

StartChar: macron
Encoding: 110 175 274
Width: 569
VWidth: 0
GlyphClass: 4
Flags: HW
AnchorPoint: "mid" 289 1299 mark 0
LayerCount: 2
Fore
SplineSet
48 1251 m 2
 527 1251 l 2
 569 1251 589 1272 589 1306 c 0
 589 1338 569 1362 527 1362 c 2
 48 1362 l 2
 4 1362 -17 1338 -17 1306 c 0
 -17 1272 4 1251 48 1251 c 2
EndSplineSet
EndChar

StartChar: minus
Encoding: 471 8722 275
Width: 684
VWidth: 0
GlyphClass: 2
Flags: HW
LayerCount: 2
Fore
SplineSet
99 460 m 2
 581 460 l 2
 626 460 647 493 647 526 c 0
 647 559 626 593 581 593 c 2
 99 593 l 2
 53 593 32 560 32 527 c 0
 32 494 54 460 99 460 c 2
EndSplineSet
EndChar

StartChar: mu
Encoding: 116 181 276
Width: 1151
VWidth: 0
GlyphClass: 2
Flags: HW
LayerCount: 2
Fore
SplineSet
230 -248 m 0
 266 -248 305 -223 305 -174 c 2
 305 44 l 1
 364 -3 440 -21 520 -21 c 0
 653 -21 790 45 846 161 c 1
 846 68 l 2
 846 23 882 0 919 0 c 0
 955 0 993 24 993 68 c 2
 993 921 l 2
 993 968 958 990 921 990 c 0
 884 990 846 966 846 921 c 2
 846 384 l 1
 833 184 700 84 540 84 c 0
 418 84 305 165 305 343 c 2
 305 920 l 2
 305 967 268 988 232 988 c 0
 195 988 158 967 158 920 c 2
 158 -174 l 2
 158 -226 193 -248 230 -248 c 0
EndSplineSet
EndChar

StartChar: multiply
Encoding: 150 215 277
Width: 1345
VWidth: 0
GlyphClass: 2
Flags: HW
LayerCount: 2
Fore
SplineSet
359 116 m 0
 376 116 391 124 403 135 c 2
 671 403 l 1
 929 147 l 2
 941 135 956 128 971 128 c 0
 1009 128 1040 161 1040 199 c 0
 1040 213 1035 229 1023 241 c 2
 765 497 l 1
 1033 766 l 2
 1047 780 1053 797 1053 811 c 0
 1053 845 1022 876 987 876 c 0
 971 876 956 869 942 856 c 2
 674 588 l 1
 416 847 l 2
 403 859 390 866 373 866 c 0
 336 866 303 831 303 796 c 0
 303 779 310 765 322 753 c 2
 580 494 l 1
 313 226 l 2
 298 212 292 195 292 181 c 0
 292 147 325 116 359 116 c 0
EndSplineSet
EndChar

StartChar: n
Encoding: 78 110 278
Width: 1146
VWidth: 0
GlyphClass: 2
Flags: HW
PickledData: "(dp1
S'segmentType'
p2
S'curve'
p3
sS'b'
(dp4
sS'anchors'
p5
(tsS'lib'
p6
(dp7
sS'unicodes'
p8
(tsS'width'
p9
I1195
sS'points'
p10
(dp11
sS'contours'
p12
(dp13
sS'components'
p14
(tsS'y'
I113
sS'x'
I137
sS'com.typemytype.robofont.layerData'
p15
(dp16
S'b'
(dp17
S'name'
p18
S'n'
sg6
(dp19
sg8
(tsg9
I1152
sg12
(tsg14
(tsg5
(tsssg18
S'n'
s."
LayerCount: 2
Fore
SplineSet
234 0 m 0
 271 0 309 24 309 68 c 2
 309 607 l 1
 324 805 444 912 605 912 c 4
 771 912 850 810 850 625 c 2
 850 68 l 2
 850 21 887 0 924 0 c 0
 960 0 997 21 997 68 c 2
 997 623 l 2
 997 897 859 1013 636 1013 c 4
 488 1013 355 942 309 808 c 5
 309 921 l 6
 309 966 272 988 236 988 c 4
 200 988 162 966 162 919 c 6
 162 68 l 2
 162 21 198 0 234 0 c 0
EndSplineSet
EndChar

StartChar: nine
Encoding: 25 57 283
Width: 1150
VWidth: 0
GlyphClass: 2
Flags: HW
PickledData: "(dp1
S'com.typemytype.robofont.layerData'
p2
(dp3
S'b'
(dp4
S'name'
p5
S'nine'
p6
sS'lib'
p7
(dp8
sS'unicodes'
p9
(tsS'width'
p10
I1160
sS'contours'
p11
(tsS'components'
p12
(tsS'anchors'
p13
(tsss."
LayerCount: 2
Fore
SplineSet
93 960 m 0
 93 696 253 506 534 506 c 0
 735 506 868 643 892 752 c 1
 892 384 837 107 499 107 c 0
 426 107 338 125 248 169 c 0
 239 174 229 176 221 176 c 0
 186 176 161 140 161 106 c 0
 161 85 170 65 192 54 c 0
 279 10 385 -22 496 -22 c 0
 1008 -22 1057 474 1057 789 c 0
 1057 1112 953 1430 554 1430 c 0
 267 1430 93 1225 93 960 c 0
543 622 m 0
 542 622 542 622 541 622 c 0
 339 622 250 782 250 960 c 0
 250 1151 354 1304 564 1304 c 0
 781 1304 877 1131 877 961 c 0
 877 764 759 622 543 622 c 0
EndSplineSet
EndChar

StartChar: notequal
Encoding: 478 8800 284
Width: 1163
VWidth: 0
GlyphClass: 2
Flags: HW
LayerCount: 2
Fore
SplineSet
340 -3 m 0
 366 -3 387 9 402 39 c 2
 524 296 l 1
 1037 296 l 2
 1080 296 1102 328 1102 362 c 0
 1102 393 1080 424 1037 424 c 2
 584 424 l 1
 707 686 l 1
 1037 686 l 2
 1080 686 1101 718 1101 749 c 0
 1101 783 1079 814 1037 814 c 2
 766 814 l 1
 857 1004 l 2
 862 1015 865 1026 865 1037 c 0
 865 1075 831 1099 797 1099 c 0
 771 1099 746 1086 732 1057 c 2
 619 814 l 1
 145 814 l 2
 102 814 81 783 81 751 c 0
 81 717 103 686 145 686 c 2
 559 686 l 1
 436 424 l 1
 145 424 l 2
 102 424 81 393 81 362 c 0
 81 328 103 296 145 296 c 2
 378 296 l 1
 281 92 l 1
 274 80 274 69 273 59 c 0
 273 21 306 -3 340 -3 c 0
EndSplineSet
EndChar

StartChar: numbersign
Encoding: 3 35 286
Width: 1158
VWidth: 0
GlyphClass: 2
Flags: HW
PickledData: "(dp1
S'com.typemytype.robofont.layerData'
p2
(dp3
S'b'
(dp4
S'name'
p5
S'numbersign'
p6
sS'lib'
p7
(dp8
sS'unicodes'
p9
(tsS'width'
p10
I1169
sS'contours'
p11
(tsS'components'
p12
(tsS'anchors'
p13
(tsss."
LayerCount: 2
Fore
SplineSet
280 -53 m 0
 308 -53 341 -33 347 6 c 2
 415 462 l 1
 685 462 l 1
 621 18 l 2
 620 13 620 8 620 3 c 0
 620 -38 653 -53 684 -53 c 0
 714 -53 744 -33 751 6 c 1
 818 462 l 1
 971 462 l 2
 1013 462 1035 492 1035 523 c 0
 1035 555 1012 587 971 587 c 2
 838 587 l 1
 878 864 l 1
 1028 864 l 2
 1070 864 1090 895 1090 927 c 0
 1090 959 1069 991 1028 991 c 2
 897 991 l 1
 957 1397 l 2
 958 1400 958 1404 958 1407 c 0
 958 1442 923 1459 892 1459 c 0
 861 1459 829 1440 822 1400 c 1
 762 991 l 1
 492 991 l 1
 552 1397 l 2
 553 1401 553 1404 553 1408 c 0
 553 1444 518 1459 487 1459 c 0
 457 1459 424 1440 417 1400 c 1
 358 991 l 1
 185 991 l 2
 143 991 122 960 122 928 c 0
 122 896 144 864 185 864 c 2
 339 864 l 1
 299 587 l 1
 129 587 l 2
 87 587 67 556 67 524 c 0
 67 493 88 462 129 462 c 2
 281 462 l 1
 273 406 216 18 216 18 c 1
 215 13 215 8 215 3 c 0
 215 -38 249 -53 280 -53 c 0
433 587 m 1
 474 864 l 1
 744 864 l 1
 703 587 l 1
 433 587 l 1
EndSplineSet
EndChar

StartChar: o
Encoding: 79 111 287
Width: 1135
VWidth: 0
GlyphClass: 2
Flags: HW
PickledData: "(dp1
S'b'
(dp2
sS'anchors'
p3
(tsS'com.typemytype.robofont.layerData'
p4
(dp5
S'b'
(dp6
S'name'
p7
S'o'
sS'lib'
p8
(dp9
sS'unicodes'
p10
(tsS'width'
p11
I1144
sS'contours'
p12
(tsS'components'
p13
(tsg3
(tsssg10
(tsS'com.typemytype.robofont.guides'
p14
(tsg11
I1199
sg12
(tsg13
(tsg8
(dp15
sg7
S'o'
s."
LayerCount: 2
Fore
SplineSet
921 495 m 4
 921 248 798 80 575 80 c 0
 360 80 234 249 234 495 c 5
 234 746 362 912 577 912 c 4
 794 912 921 743 921 495 c 4
577 -21 m 0
 862 -21 1068 174 1068 495 c 4
 1068 814 864 1013 577 1013 c 4
 292 1013 87 815 87 495 c 4
 87 174 293 -21 577 -21 c 0
EndSplineSet
EndChar

StartChar: oe
Encoding: 274 339 292
Width: 1830
VWidth: 0
GlyphClass: 2
Flags: HW
LayerCount: 2
Fore
SplineSet
1281 -30 m 0
 1482 -30 1664 72 1664 162 c 0
 1664 189 1645 210 1617 210 c 0
 1605 210 1591 206 1575 194 c 0
 1514 144 1418 92 1322 92 c 0
 1100 92 1015 259 1012 464 c 1
 1660 464 l 2
 1704 464 1721 495 1721 525 c 0
 1713 803 1586 1019 1289 1019 c 0
 1121 1019 1001 924 933 789 c 1
 862 924 737 1019 555 1019 c 0
 236 1019 87 759 87 494 c 0
 87 232 236 -29 555 -29 c 0
 735 -29 859 69 930 207 c 1
 995 67 1113 -30 1281 -30 c 0
555 90 m 0
 333 90 243 311 243 494 c 0
 243 679 333 900 555 900 c 0
 776 900 859 678 859 491 c 0
 859 309 768 90 555 90 c 0
1015 577 m 1
 1026 747 1119 902 1289 902 c 0
 1470 902 1559 763 1573 577 c 1
 1015 577 l 1
EndSplineSet
EndChar

StartChar: ogonek
Encoding: 404 731 293
Width: 569
VWidth: 0
GlyphClass: 4
Flags: HW
AnchorPoint: "ogonek" 243 0 mark 0
LayerCount: 2
Fore
SplineSet
424 -419 m 1
 424 -347 l 1
 307 -347 213 -312 213 -203 c 0
 213 -153 233 -86 280 0 c 1
 215 0 l 1
 118 -113 76 -210 76 -284 c 0
 76 -384 153 -442 276 -442 c 0
 320 -442 370 -434 424 -419 c 1
EndSplineSet
EndChar

StartChar: one
Encoding: 17 49 297
Width: 1150
VWidth: 0
GlyphClass: 2
Flags: HW
PickledData: "(dp1
S'com.typemytype.robofont.layerData'
p2
(dp3
S'b'
(dp4
S'name'
p5
S'one'
p6
sS'lib'
p7
(dp8
sS'unicodes'
p9
(tsS'width'
p10
I1160
sS'contours'
p11
(tsS'components'
p12
(tsS'anchors'
p13
(tsss."
LayerCount: 2
Fore
SplineSet
645 0 m 0
 687 0 726 24 726 75 c 2
 727 1346 l 2
 727 1400 689 1424 650 1424 c 0
 635 1424 616 1419 603 1411 c 2
 272 1198 l 1
 253 1184 244 1169 244 1152 c 0
 244 1119 273 1090 307 1090 c 0
 319 1090 329 1094 340 1100 c 2
 566 1247 l 1
 566 75 l 2
 566 24 606 0 645 0 c 0
EndSplineSet
EndChar

StartChar: onehalf
Encoding: 124 189 298
Width: 1543
VWidth: 0
GlyphClass: 2
Flags: HW
LayerCount: 2
Fore
SplineSet
962 0 m 2
 1392 0 l 2
 1419 0 1432 20 1432 40 c 0
 1432 59 1418 80 1392 80 c 2
 1002 80 l 1
 1148 213 1423 451 1423 639 c 0
 1423 770 1304 837 1175 837 c 0
 1078 837 942 777 942 728 c 0
 942 711 956 696 977 696 c 0
 988 696 999 699 1011 707 c 0
 1049 730 1109 756 1169 756 c 0
 1246 756 1323 713 1323 632 c 0
 1323 477 1016 208 900 95 c 0
 891 88 891 66 891 49 c 0
 891 22 911 0 962 0 c 2
391 562 m 0
 415 562 438 577 438 606 c 2
 438 1330 l 2
 438 1363 416 1376 395 1376 c 0
 386 1376 377 1373 369 1369 c 2
 171 1243 l 2
 161 1236 156 1227 156 1215 c 0
 156 1197 170 1178 192 1178 c 0
 199 1178 205 1180 212 1185 c 2
 347 1272 l 1
 347 606 l 2
 347 577 369 562 391 562 c 0
500 -90 m 0
 522 -90 541 -78 550 -52 c 2
 1030 1359 l 2
 1033 1367 1033 1373 1033 1380 c 0
 1033 1411 1007 1430 980 1430 c 0
 958 1430 936 1417 928 1391 c 2
 451 -19 l 2
 448 -26 447 -33 447 -40 c 0
 447 -71 474 -90 500 -90 c 0
EndSplineSet
EndChar

StartChar: onequarter
Encoding: 123 188 299
Width: 1527
VWidth: 0
GlyphClass: 2
Flags: HW
PickledData: "(dp1
S'com.typemytype.robofont.layerData'
p2
(dp3
S'b'
(dp4
S'name'
p5
S'onequarter'
p6
sS'lib'
p7
(dp8
sS'unicodes'
p9
(tsS'width'
p10
I1543
sS'contours'
p11
(tsS'components'
p12
(tsS'anchors'
p13
(tsss."
LayerCount: 2
Fore
SplineSet
1271 1 m 0
 1294 1 1316 16 1316 46 c 2
 1316 191 l 1
 1413 191 l 2
 1438 191 1450 207 1450 225 c 0
 1450 244 1436 260 1413 260 c 2
 1316 260 l 1
 1316 772 l 2
 1316 820 1286 840 1250 840 c 0
 1222 840 1194 827 1175 797 c 2
 833 280 l 2
 825 269 821 258 821 244 c 0
 821 216 842 191 876 191 c 2
 1226 191 l 1
 1226 46 l 2
 1226 16 1248 1 1271 1 c 0
391 562 m 0
 415 562 438 577 438 606 c 2
 438 1330 l 2
 438 1363 416 1376 395 1376 c 0
 386 1376 377 1373 369 1369 c 2
 171 1243 l 2
 161 1236 156 1227 156 1215 c 0
 156 1197 170 1178 192 1178 c 0
 199 1178 205 1180 212 1185 c 2
 347 1272 l 1
 347 606 l 2
 347 577 369 562 391 562 c 0
501 -90 m 0
 523 -90 543 -78 551 -52 c 2
 1031 1359 l 2
 1034 1367 1035 1373 1035 1380 c 0
 1035 1411 1008 1430 981 1430 c 0
 959 1430 937 1417 929 1391 c 2
 452 -19 l 2
 449 -26 449 -33 449 -40 c 0
 449 -71 475 -90 501 -90 c 0
905 260 m 1
 1226 750 l 1
 1226 260 l 1
 905 260 l 1
EndSplineSet
EndChar

StartChar: uni00B9
Encoding: 120 185 300
Width: 686
VWidth: 0
GlyphClass: 2
Flags: HW
LayerCount: 2
Fore
SplineSet
426 562 m 0
 449 562 472 577 472 606 c 2
 472 1330 l 2
 472 1363 451 1376 430 1376 c 0
 421 1376 412 1373 404 1369 c 2
 206 1243 l 2
 196 1236 191 1227 191 1215 c 0
 191 1197 205 1178 227 1178 c 0
 234 1178 240 1180 247 1185 c 2
 382 1272 l 1
 382 606 l 2
 382 577 404 562 426 562 c 0
EndSplineSet
EndChar

StartChar: ordfeminine
Encoding: 105 170 301
Width: 1036
VWidth: 0
GlyphClass: 2
Flags: HW
LayerCount: 2
Fore
SplineSet
405 698 m 0
 512 698 617 751 660 844 c 1
 660 769 l 2
 660 736 687 720 714 720 c 0
 741 720 768 737 768 769 c 2
 769 1251 l 2
 769 1431 660 1510 480 1510 c 0
 363 1510 267 1476 201 1414 c 0
 190 1404 184 1394 184 1383 c 0
 184 1360 201 1339 228 1339 c 0
 235 1339 246 1340 255 1348 c 0
 317 1387 370 1416 478 1416 c 0
 587 1416 660 1377 660 1258 c 2
 660 1190 l 1
 630 1193 598 1194 570 1194 c 0
 316 1194 141 1124 141 934 c 0
 141 786 257 698 405 698 c 0
427 787 m 1
 333 790 257 835 257 936 c 0
 257 1082 428 1102 660 1102 c 1
 660 1028 l 1
 651 868 553 790 427 787 c 1
EndSplineSet
EndChar

StartChar: ordmasculine
Encoding: 121 186 302
Width: 1126
VWidth: 0
GlyphClass: 2
Flags: HW
LayerCount: 2
Fore
SplineSet
544 792 m 0
 360 792 286 964 286 1105 c 0
 286 1246 360 1418 544 1418 c 0
 729 1418 803 1246 803 1106 c 0
 803 964 729 792 544 792 c 0
544 701 m 0
 806 701 926 901 926 1105 c 0
 926 1307 806 1510 544 1510 c 0
 284 1510 164 1307 164 1105 c 0
 164 901 284 701 544 701 c 0
EndSplineSet
EndChar

StartChar: oslash
Encoding: 183 248 303
Width: 1133
VWidth: 0
GlyphClass: 2
Flags: HW
LayerCount: 2
Fore
SplineSet
361 -183 m 0
 386 -183 409 -171 421 -140 c 2
 870 1099 l 2
 873 1108 873 1114 873 1121 c 0
 873 1158 842 1179 810 1179 c 0
 783 1179 758 1166 746 1135 c 2
 301 -101 l 2
 299 -108 298 -116 298 -124 c 0
 298 -161 328 -183 361 -183 c 0
EndSplineSet
Refer: 287 111 N 1 0 0 1 0 0 2
EndChar

StartChar: p
Encoding: 80 112 306
Width: 1175
VWidth: 0
GlyphClass: 2
Flags: HW
PickledData: "(dp1
S'b'
(dp2
sS'anchors'
p3
(tsS'lib'
p4
(dp5
sS'unicodes'
p6
(tsS'width'
p7
I1207
sS'contours'
p8
(tsS'components'
p9
(tsS'com.typemytype.robofont.layerData'
p10
(dp11
S'b'
(dp12
S'name'
p13
S'p'
sg4
(dp14
sg6
(tsg7
I1181
sg8
(tsg9
(tsg3
(tsssg13
S'p'
s."
LayerCount: 2
Fore
SplineSet
235 -378 m 0
 272 -378 309 -356 309 -311 c 2
 309 185 l 1
 365 53 496 -21 644 -21 c 0
 935 -21 1088 221 1088 490 c 0
 1088 768 953 1013 660 1013 c 0
 510 1013 374 944 309 804 c 1
 309 922 l 2
 309 952 293 988 234 988 c 0
 197 988 162 967 162 922 c 2
 162 -311 l 2
 162 -356 199 -378 235 -378 c 0
630 80 m 0
 401 80 310 287 310 491 c 0
 310 712 388 912 645 912 c 1
 874 908 941 683 941 498 c 0
 941 304 863 80 630 80 c 0
EndSplineSet
EndChar

StartChar: paragraph
Encoding: 117 182 307
Width: 1327
VWidth: 0
GlyphClass: 2
Flags: HW
LayerCount: 2
Fore
SplineSet
598 -281 m 0
 633 -281 669 -258 669 -213 c 2
 669 1300 l 1
 903 1300 l 1
 903 -213 l 2
 903 -258 939 -281 974 -281 c 0
 1010 -281 1046 -258 1046 -213 c 2
 1046 1318 l 2
 1046 1369 1036 1424 942 1424 c 2
 585 1424 l 2
 299 1424 131 1284 131 1041 c 0
 131 837 312 669 526 669 c 1
 526 -213 l 2
 526 -258 562 -281 598 -281 c 0
EndSplineSet
EndChar

StartChar: parenleft
Encoding: 8 40 308
Width: 583
VWidth: 0
GlyphClass: 2
Flags: HW
LayerCount: 2
Fore
SplineSet
420 -216 m 0
 449 -216 477 -195 477 -163 c 0
 477 -154 476 -147 474 -142 c 0
 376 121 317 386 317 637 c 0
 317 888 376 1155 474 1418 c 0
 478 1425 478 1432 478 1438 c 0
 478 1470 449 1493 420 1493 c 0
 400 1493 378 1485 367 1458 c 0
 257 1195 156 917 156 636 c 0
 156 357 255 84 364 -174 c 0
 378 -204 398 -216 420 -216 c 0
EndSplineSet
EndChar

StartChar: parenright
Encoding: 9 41 309
Width: 583
VWidth: 0
GlyphClass: 2
Flags: HW
LayerCount: 2
Fore
SplineSet
164 -216 m 0
 186 -216 207 -204 220 -174 c 0
 330 85 429 357 429 636 c 0
 429 918 328 1195 218 1458 c 0
 205 1485 184 1492 164 1492 c 0
 136 1492 106 1470 106 1438 c 0
 106 1431 107 1425 110 1418 c 0
 208 1154 268 888 268 637 c 0
 268 386 209 122 111 -142 c 0
 108 -150 106 -157 106 -163 c 0
 106 -195 135 -216 164 -216 c 0
EndSplineSet
EndChar

StartChar: partialdiff
Encoding: 466 8706 310
Width: 1131
VWidth: 0
GlyphClass: 2
Flags: HW
LayerCount: 2
Fore
SplineSet
505 -24 m 0
 847 -24 1025 348 1025 821 c 0
 1025 1361 800 1601 497 1601 c 0
 386 1601 274 1571 166 1522 c 0
 140 1510 130 1492 130 1470 c 0
 130 1436 156 1404 190 1404 c 0
 199 1404 206 1406 213 1408 c 0
 306 1445 399 1473 487 1473 c 0
 710 1473 880 1302 880 864 c 0
 880 794 879 781 878 770 c 1
 874 773 724 972 528 972 c 0
 295 972 88 769 88 449 c 0
 88 216 221 -24 505 -24 c 0
517 100 m 2
 349 100 235 248 235 452 c 0
 235 673 380 851 552 851 c 0
 718 851 827 715 858 621 c 1
 831 347 709 100 519 100 c 2
 517 100 l 2
EndSplineSet
EndChar

StartChar: percent
Encoding: 5 37 311
Width: 2056
VWidth: 0
GlyphClass: 2
Flags: HW
LayerCount: 2
Fore
SplineSet
596 -72 m 0
 613 -72 629 -68 640 -48 c 2
 1439 1350 l 2
 1444 1359 1445 1368 1445 1377 c 0
 1445 1409 1421 1433 1393 1433 c 0
 1375 1433 1353 1422 1338 1396 c 2
 543 1 l 2
 539 -7 537 -13 537 -20 c 0
 537 -50 566 -72 596 -72 c 0
561 738 m 0
 410 738 356 886 356 1020 c 0
 356 1152 409 1300 561 1300 c 0
 713 1300 766 1152 766 1020 c 0
 766 886 713 738 561 738 c 0
561 641 m 0
 771 641 893 816 893 1020 c 0
 893 1213 781 1398 561 1398 c 0
 351 1398 230 1224 230 1020 c 0
 230 814 351 641 561 641 c 0
1494 67 m 0
 1341 67 1290 216 1290 349 c 0
 1290 481 1340 629 1494 629 c 0
 1646 629 1698 482 1698 349 c 0
 1698 217 1647 67 1494 67 c 0
1494 -31 m 0
 1704 -31 1825 146 1825 349 c 0
 1825 543 1714 726 1494 726 c 0
 1286 726 1163 552 1163 349 c 0
 1163 146 1283 -31 1494 -31 c 0
EndSplineSet
EndChar

StartChar: period
Encoding: 14 46 312
Width: 578
VWidth: 0
GlyphClass: 2
Flags: HW
LayerCount: 2
Fore
SplineSet
289 -1 m 0
 355 -1 391 45 391 92 c 0
 391 135 355 182 289 182 c 0
 223 182 187 136 187 92 c 0
 187 45 222 -1 289 -1 c 0
EndSplineSet
EndChar

StartChar: periodcentered
Encoding: 118 183 313
Width: 578
VWidth: 0
GlyphClass: 2
Flags: HW
LayerCount: 2
Fore
SplineSet
266 427 m 0
 332 427 368 473 368 520 c 0
 368 567 332 612 266 612 c 0
 198 612 162 567 162 520 c 0
 162 473 198 427 266 427 c 0
EndSplineSet
EndChar

StartChar: perthousand
Encoding: 456 8240 314
Width: 2299
VWidth: 0
GlyphClass: 2
Flags: HW
LayerCount: 2
Fore
SplineSet
353 -72 m 0
 370 -72 385 -68 396 -48 c 2
 1196 1350 l 2
 1201 1359 1202 1368 1202 1377 c 0
 1202 1409 1178 1433 1150 1433 c 0
 1131 1433 1110 1422 1095 1396 c 2
 300 1 l 2
 296 -7 294 -13 294 -20 c 0
 294 -50 323 -72 353 -72 c 0
373 740 m 0
 221 740 168 889 168 1021 c 0
 168 1152 221 1302 373 1302 c 0
 526 1302 577 1152 577 1021 c 0
 577 891 527 740 373 740 c 0
372 644 m 0
 582 644 700 821 700 1023 c 0
 700 1222 580 1398 374 1398 c 0
 164 1398 47 1221 47 1020 c 0
 47 820 164 644 372 644 c 0
1147 66 m 0
 994 66 943 215 943 347 c 0
 943 477 994 628 1147 628 c 0
 1300 628 1351 477 1351 347 c 0
 1351 216 1301 66 1147 66 c 0
1147 -31 m 0
 1356 -31 1474 147 1474 347 c 0
 1474 548 1354 724 1148 724 c 0
 937 724 820 546 820 346 c 0
 820 146 940 -31 1147 -31 c 0
1892 66 m 0
 1739 66 1688 215 1688 347 c 0
 1688 476 1738 628 1892 628 c 0
 2045 628 2097 477 2097 347 c 0
 2097 217 2046 66 1892 66 c 0
1892 -31 m 0
 2102 -31 2218 147 2218 347 c 0
 2218 549 2099 724 1894 724 c 0
 1683 724 1565 546 1565 346 c 0
 1565 146 1684 -31 1892 -31 c 0
EndSplineSet
EndChar

StartChar: pi
Encoding: 417 960 315
Width: 1182
VWidth: 0
GlyphClass: 2
Flags: HW
PickledData: "(dp1
S'com.typemytype.robofont.layerData'
p2
(dp3
S'b'
(dp4
S'name'
p5
S'pi'
p6
sS'lib'
p7
(dp8
sS'unicodes'
p9
(tsS'width'
p10
I1285
sS'contours'
p11
(tsS'components'
p12
(tsS'anchors'
p13
(tsss."
LayerCount: 2
Fore
SplineSet
948 -23 m 0
 993 -14 1007 -2 1007 20 c 0
 1007 62 954 141 954 295 c 2
 954 937 l 1
 1031 937 l 2
 1076 937 1098 966 1098 999 c 0
 1098 1030 1076 1062 1031 1062 c 2
 214 1062 l 2
 157 1062 130 1030 130 999 c 0
 130 966 157 937 214 937 c 2
 284 937 l 1
 284 570 201 255 132 65 c 0
 127 52 125 39 125 28 c 0
 125 -14 156 -38 191 -38 c 0
 221 -38 254 -19 272 23 c 0
 349 212 415 664 428 937 c 1
 805 937 l 1
 805 272 l 2
 805 115 817 -26 921 -26 c 0
 929 -26 939 -25 948 -23 c 0
EndSplineSet
EndChar

StartChar: plus
Encoding: 11 43 316
Width: 1345
VWidth: 0
GlyphClass: 2
Flags: HW
LayerCount: 2
Fore
SplineSet
672 4 m 0
 705 4 738 30 738 65 c 2
 738 431 l 1
 1121 431 l 2
 1157 431 1185 462 1185 495 c 0
 1185 530 1158 559 1121 559 c 2
 738 559 l 1
 738 928 l 2
 738 964 706 990 672 990 c 0
 637 990 605 965 605 928 c 2
 605 559 l 1
 224 559 l 2
 188 559 160 531 160 495 c 0
 160 463 187 431 224 431 c 2
 605 431 l 1
 605 65 l 2
 605 30 635 4 672 4 c 0
EndSplineSet
EndChar

StartChar: plusminus
Encoding: 112 177 317
Width: 1345
VWidth: 0
GlyphClass: 2
Flags: HW
LayerCount: 2
Fore
SplineSet
670 207 m 0
 704 207 738 228 738 269 c 2
 738 531 l 1
 1118 531 l 2
 1161 531 1183 564 1183 596 c 0
 1183 629 1161 660 1118 660 c 2
 738 660 l 1
 738 925 l 2
 738 967 706 988 672 988 c 0
 639 988 605 966 605 925 c 2
 605 660 l 1
 227 660 l 2
 184 660 163 628 163 597 c 0
 163 563 185 531 227 531 c 2
 605 531 l 1
 605 269 l 2
 605 227 637 207 670 207 c 0
227 0 m 2
 1118 0 l 2
 1161 0 1184 33 1184 64 c 0
 1184 98 1163 128 1118 128 c 2
 227 128 l 2
 184 128 161 98 161 64 c 0
 161 33 184 0 227 0 c 2
EndSplineSet
EndChar

StartChar: product
Encoding: 469 8719 318
Width: 1446
VWidth: 0
GlyphClass: 2
Flags: HW
LayerCount: 2
Fore
SplineSet
352 0 m 0
 388 0 425 23 425 71 c 2
 425 1296 l 1
 1017 1296 l 1
 1017 71 l 2
 1017 23 1053 0 1090 0 c 0
 1126 0 1163 23 1163 71 c 2
 1164 1296 l 1
 1310 1296 l 2
 1351 1296 1371 1328 1371 1361 c 0
 1371 1395 1351 1427 1310 1427 c 2
 131 1427 l 2
 85 1427 62 1393 62 1361 c 0
 62 1328 85 1296 132 1296 c 2
 279 1296 l 1
 279 71 l 2
 279 23 315 0 352 0 c 0
EndSplineSet
EndChar

StartChar: q
Encoding: 81 113 319
Width: 1175
VWidth: 0
GlyphClass: 2
Flags: HW
PickledData: "(dp1
S'b'
(dp2
sS'anchors'
p3
(tsS'lib'
p4
(dp5
sS'unicodes'
p6
(tsS'width'
p7
I1207
sS'contours'
p8
(tsS'components'
p9
(tsS'com.typemytype.robofont.layerData'
p10
(dp11
S'b'
(dp12
S'name'
p13
S'p'
sg4
(dp14
sg6
(tsg7
I1181
sg8
(tsg9
(tsg3
(tsssg13
S'p'
s."
LayerCount: 2
Fore
SplineSet
940 -378 m 0
 977 -378 1013 -356 1013 -311 c 2
 1013 922 l 2
 1013 967 978 988 941 988 c 0
 882 988 867 952 867 922 c 2
 867 804 l 1
 801 944 666 1013 515 1013 c 0
 222 1013 87 768 87 490 c 0
 87 221 240 -21 532 -21 c 0
 679 -21 810 53 867 185 c 1
 867 -311 l 2
 867 -356 903 -378 940 -378 c 0
545 80 m 0
 313 80 234 304 234 498 c 0
 234 683 302 908 530 912 c 1
 788 912 866 712 866 491 c 0
 866 287 775 80 545 80 c 0
EndSplineSet
EndChar

StartChar: question
Encoding: 31 63 320
Width: 1029
VWidth: 0
GlyphClass: 2
Flags: HW
LayerCount: 2
Fore
SplineSet
346 435 m 2
 345 390 385 367 422 367 c 0
 457 367 490 387 490 428 c 2
 489 545 l 1
 490 707 882 800 882 1088 c 0
 882 1339 702 1434 488 1434 c 0
 397 1434 299 1417 208 1394 c 0
 166 1384 150 1354 150 1324 c 0
 150 1291 171 1255 209 1255 c 0
 248 1255 414 1294 451 1294 c 0
 588 1294 721 1262 721 1078 c 0
 721 827 357 772 347 573 c 1
 346 435 l 2
424 -7 m 0
 490 -7 526 39 526 86 c 0
 526 131 491 176 424 176 c 0
 357 176 322 132 322 86 c 0
 322 39 357 -7 424 -7 c 0
EndSplineSet
EndChar

StartChar: quotedbl
Encoding: 2 34 322
Width: 610
VWidth: 0
GlyphClass: 2
Flags: HW
LayerCount: 2
Fore
SplineSet
172 1000 m 0
 196 1000 220 1013 224 1062 c 2
 250 1417 l 2
 250 1419 250 1420 250 1422 c 0
 250 1460 210 1480 173 1480 c 0
 133 1480 94 1463 94 1417 c 0
 94 1415 94 1412 94 1410 c 2
 121 1062 l 2
 125 1011 148 1000 172 1000 c 0
430 1000 m 0
 454 1000 478 1010 482 1062 c 2
 509 1417 l 2
 512 1457 470 1480 431 1480 c 0
 392 1480 349 1458 352 1417 c 2
 379 1062 l 2
 383 1014 404 1000 430 1000 c 0
EndSplineSet
EndChar

StartChar: quotedblbase
Encoding: 451 8222 323
Width: 1143
VWidth: 0
GlyphClass: 2
Flags: HW
PickledData: "(dp1
S'b'
(dp2
sS'anchors'
p3
(tsS'lib'
p4
(dp5
sS'unicodes'
p6
(tsS'width'
p7
I1161
sS'contours'
p8
(tsS'components'
p9
(tsS'com.typemytype.robofont.layerData'
p10
(dp11
S'b'
(dp12
S'name'
p13
S'quotedblbase'
p14
sg4
(dp15
sg6
(tsg7
I1146
sg8
(tsg9
(tsg3
(tsssg13
S'quotedblbase'
p16
s."
LayerCount: 2
Fore
SplineSet
292 -228 m 2
 326 -228 l 2
 327 -228 328 -228 329 -228 c 0
 356 -228 369 -216 382 -185 c 2
 509 117 l 2
 511 121 512 128 512 135 c 0
 512 151 504 171 475 173 c 1
 394 173 l 1
 362 172 329 164 321 117 c 2
 268 -185 l 2
 267 -188 267 -192 267 -197 c 0
 267 -210 271 -227 292 -228 c 2
680 -228 m 2
 715 -228 l 2
 716 -228 717 -228 718 -228 c 0
 745 -228 758 -216 771 -185 c 2
 897 117 l 2
 899 121 901 128 901 135 c 0
 901 151 892 171 863 173 c 1
 782 173 l 1
 750 172 717 164 709 117 c 2
 656 -185 l 2
 655 -188 655 -192 655 -197 c 0
 655 -210 659 -227 680 -228 c 2
EndSplineSet
EndChar

StartChar: quotedblleft
Encoding: 449 8220 324
Width: 1143
VWidth: 0
GlyphClass: 2
Flags: HW
PickledData: "(dp1
S'b'
(dp2
sS'anchors'
p3
(tsS'lib'
p4
(dp5
sS'unicodes'
p6
(tsS'width'
p7
I1161
sS'contours'
p8
(tsS'components'
p9
(tsS'com.typemytype.robofont.layerData'
p10
(dp11
S'b'
(dp12
S'name'
p13
S'quotedblleft'
p14
sg4
(dp15
sg6
(tsg7
I1146
sg8
(tsg9
(tsg3
(tsssg13
S'quotedblleft'
p16
s."
LayerCount: 2
Fore
SplineSet
287 1025 m 2
 369 1025 l 1
 401 1026 434 1034 442 1081 c 2
 495 1381 l 2
 497 1393 499 1424 471 1424 c 2
 436 1424 l 2
 407 1424 393 1413 380 1381 c 2
 253 1081 l 2
 251 1077 250 1070 250 1063 c 0
 250 1046 258 1025 287 1025 c 2
644 1025 m 2
 725 1025 l 1
 757 1026 790 1034 798 1081 c 2
 852 1381 l 2
 853 1384 853 1388 853 1393 c 0
 853 1407 849 1424 828 1424 c 2
 793 1424 l 2
 764 1424 750 1413 737 1381 c 2
 610 1081 l 2
 608 1077 607 1070 607 1063 c 0
 607 1046 615 1025 644 1025 c 2
EndSplineSet
EndChar

StartChar: quotedblright
Encoding: 450 8221 325
Width: 1143
VWidth: 0
GlyphClass: 2
Flags: HW
PickledData: "(dp1
S'b'
(dp2
sS'anchors'
p3
(tsS'lib'
p4
(dp5
sS'unicodes'
p6
(tsS'width'
p7
I1161
sS'contours'
p8
(tsS'components'
p9
(tsS'com.typemytype.robofont.layerData'
p10
(dp11
S'b'
(dp12
S'name'
p13
S'quotedblright'
p14
sg4
(dp15
sg6
(tsg7
I1146
sg8
(tsg9
(tsg3
(tsssg13
S'quotedblright'
p16
s."
LayerCount: 2
Fore
SplineSet
288 1024 m 2
 323 1024 l 2
 352 1024 366 1035 379 1067 c 2
 506 1368 l 2
 508 1372 509 1379 509 1386 c 0
 509 1403 501 1424 472 1424 c 2
 391 1424 l 1
 359 1423 326 1415 318 1368 c 2
 264 1067 l 2
 263 1064 263 1060 263 1055 c 0
 263 1041 267 1024 287 1024 c 0
 288 1024 l 2
647 1024 m 2
 682 1024 l 2
 711 1024 725 1035 738 1067 c 2
 865 1368 l 2
 867 1372 868 1379 868 1386 c 0
 868 1403 860 1424 831 1424 c 2
 749 1424 l 1
 717 1423 684 1415 676 1368 c 2
 623 1067 l 2
 622 1064 622 1060 622 1055 c 0
 622 1041 626 1024 646 1024 c 0
 647 1024 l 2
EndSplineSet
EndChar

StartChar: quoteleft
Encoding: 446 8216 326
Width: 578
VWidth: 0
GlyphClass: 2
Flags: HW
PickledData: "(dp1
S'b'
(dp2
sS'anchors'
p3
(tsS'lib'
p4
(dp5
sS'unicodes'
p6
(tsS'width'
p7
I615
sS'contours'
p8
(tsS'components'
p9
(tsS'com.typemytype.robofont.layerData'
p10
(dp11
S'b'
(dp12
S'name'
p13
S'quoteleft'
p14
sg4
(dp15
sg6
(tsg7
I584
sg8
(tsg9
(tsg3
(tsssg13
S'quoteleft'
p16
s."
LayerCount: 2
Fore
SplineSet
197 1025 m 2
 278 1025 l 1
 310 1026 343 1034 351 1081 c 2
 404 1381 l 2
 405 1384 405 1388 405 1393 c 0
 405 1407 401 1424 380 1424 c 2
 345 1424 l 2
 316 1424 303 1413 289 1381 c 2
 163 1081 l 2
 161 1077 159 1070 159 1063 c 0
 159 1046 168 1025 197 1025 c 2
EndSplineSet
EndChar

StartChar: quoteright
Encoding: 447 8217 327
Width: 578
VWidth: 0
GlyphClass: 2
Flags: HW
PickledData: "(dp1
S'b'
(dp2
sS'anchors'
p3
(tsS'lib'
p4
(dp5
sS'unicodes'
p6
(tsS'width'
p7
I615
sS'contours'
p8
(tsS'components'
p9
(tsS'com.typemytype.robofont.layerData'
p10
(dp11
S'b'
(dp12
S'name'
p13
S'quoteright'
p14
sg4
(dp15
sg6
(tsg7
I584
sg8
(tsg9
(tsg3
(tsssg13
S'quoteright'
p16
s."
LayerCount: 2
Fore
SplineSet
204 1025 m 2
 238 1025 l 2
 267 1025 281 1036 294 1068 c 2
 421 1368 l 2
 423 1372 424 1379 424 1386 c 0
 424 1403 416 1424 387 1424 c 2
 306 1424 l 1
 274 1423 241 1415 233 1368 c 2
 180 1068 l 2
 179 1065 179 1061 179 1056 c 0
 179 1042 183 1025 204 1025 c 2
EndSplineSet
EndChar

StartChar: quotesinglbase
Encoding: 448 8218 328
Width: 578
VWidth: 0
GlyphClass: 2
Flags: HW
PickledData: "(dp1
S'com.typemytype.robofont.layerData'
p2
(dp3
S'b'
(dp4
S'name'
p5
S'quotesinglbase'
p6
sS'lib'
p7
(dp8
sS'unicodes'
p9
(tsS'width'
p10
I615
sS'contours'
p11
(tsS'components'
p12
(tsS'anchors'
p13
(tsss."
LayerCount: 2
Fore
SplineSet
204 -217 m 2
 238 -217 l 2
 269 -217 281 -206 294 -174 c 2
 421 127 l 2
 423 131 424 138 424 145 c 0
 424 162 416 183 387 183 c 2
 306 183 l 1
 274 182 241 174 233 127 c 2
 180 -174 l 2
 179 -177 179 -181 179 -186 c 0
 179 -199 183 -216 204 -217 c 2
EndSplineSet
EndChar

StartChar: quotesingle
Encoding: 7 39 329
Width: 578
VWidth: 0
GlyphClass: 2
Flags: HW
LayerCount: 2
Fore
SplineSet
288 1000 m 0
 313 1000 338 1002 340 1043 c 1
 368 1417 l 1
 368 1459 330 1480 290 1480 c 0
 249 1480 211 1458 211 1417 c 1
 211 1417 235 1092 238 1043 c 0
 241 1002 265 1000 288 1000 c 0
EndSplineSet
EndChar

StartChar: r
Encoding: 82 114 330
Width: 706
VWidth: 0
GlyphClass: 2
Flags: HW
PickledData: "(dp1
S'b'
(dp2
sS'anchors'
p3
(tsS'lib'
p4
(dp5
sS'unicodes'
p6
(tsS'width'
p7
I763
sS'contours'
p8
(tsS'components'
p9
(tsS'com.typemytype.robofont.layerData'
p10
(dp11
S'b'
(dp12
S'name'
p13
S'r'
sg4
(dp14
sg6
(tsg7
I715
sg8
(tsg9
(tsg3
(tsssg13
S'r'
s."
LayerCount: 2
Fore
SplineSet
236 0 m 0
 274 0 312 23 312 67 c 2
 312 625 l 2
 312 735 387 891 593 891 c 0
 636 891 655 919 655 949 c 0
 655 982 633 1016 598 1016 c 0
 438 1016 342 914 312 799 c 1
 312 917 l 2
 311 963 275 986 238 986 c 0
 202 986 165 964 165 919 c 2
 165 67 l 2
 165 21 200 0 236 0 c 0
EndSplineSet
EndChar

StartChar: radical
Encoding: 474 8730 332
Width: 1275
VWidth: 0
GlyphClass: 2
Flags: HW
LayerCount: 2
Fore
SplineSet
178 553 m 0
 134 553 94 516 94 473 c 0
 94 463 95 454 101 446 c 1
 344 -43 l 1
 363 -117 418 -139 473 -139 c 0
 533 -139 582 -117 605 -47 c 1
 1157 1443 l 2
 1160 1453 1161 1459 1161 1467 c 0
 1161 1507 1126 1535 1087 1535 c 0
 1051 1535 1027 1514 1014 1481 c 2
 474 41 l 1
 471 40 l 1
 247 506 l 1
 234 536 207 553 178 553 c 0
EndSplineSet
EndChar

StartChar: registered
Encoding: 109 174 335
Width: 1650
VWidth: 0
GlyphClass: 2
Flags: HW
LayerCount: 2
Fore
SplineSet
632 393 m 0
 660 393 689 410 689 444 c 2
 689 735 l 1
 840 735 l 1
 1049 415 l 2
 1060 397 1075 390 1089 390 c 0
 1117 390 1144 416 1144 444 c 0
 1144 452 1142 460 1137 468 c 2
 949 736 l 1
 1080 748 1180 790 1180 939 c 0
 1180 1072 1111 1141 909 1141 c 2
 650 1141 l 2
 598 1141 578 1100 578 1069 c 2
 578 444 l 2
 578 409 605 393 632 393 c 0
689 828 m 1
 689 1046 l 1
 889 1046 l 2
 979 1046 1062 1033 1062 942 c 0
 1062 828 972 828 885 828 c 2
 885 828 793 828 735 828 c 0
 689 828 l 1
831 205 m 0
 494 205 250 439 250 763 c 0
 250 1085 494 1320 831 1320 c 0
 1166 1320 1408 1085 1408 763 c 0
 1408 439 1166 205 831 205 c 0
831 97 m 0
 1214 97 1529 399 1529 763 c 0
 1529 1131 1214 1433 831 1433 c 0
 444 1433 130 1131 130 763 c 0
 130 399 444 97 831 97 c 0
EndSplineSet
EndChar

StartChar: ring
Encoding: 403 730 336
Width: 569
VWidth: 0
GlyphClass: 4
Flags: HW
LayerCount: 2
Fore
SplineSet
285 1258 m 0
 216 1258 174 1299 174 1365 c 0
 174 1431 216 1472 285 1472 c 0
 354 1472 396 1431 396 1365 c 0
 396 1299 354 1258 285 1258 c 0
285 1185 m 0
 400 1185 471 1254 471 1365 c 0
 471 1476 400 1544 285 1544 c 0
 169 1544 98 1476 98 1365 c 0
 98 1254 169 1185 285 1185 c 0
EndSplineSet
EndChar

StartChar: s
Encoding: 83 115 337
Width: 1008
VWidth: 0
GlyphClass: 2
Flags: HW
PickledData: "(dp1
S'b'
(dp2
sS'anchors'
p3
(tsS'lib'
p4
(dp5
sS'unicodes'
p6
(tsS'width'
p7
F1006.76
sS'contours'
p8
(tsS'components'
p9
(tsS'com.typemytype.robofont.layerData'
p10
(dp11
S'b'
(dp12
S'name'
p13
S's'
sg4
(dp14
sg6
(tsg7
I1007
sg8
(tsg9
(tsg3
(tsssg13
S's'
s."
LayerCount: 2
Fore
SplineSet
511 1012 m 0
 317 1012 121 946 121 744 c 0
 121 568 237 527 411 485 c 2
 599 440 l 2
 727 409 774 361 774 268 c 0
 774 146 674 82 519 81 c 0
 401 81 295 119 216 168 c 0
 201 177 187 181 174 181 c 0
 144 181 123 158 123 132 c 0
 123 116 131 99 150 85 c 0
 218 35 367 -21 512 -21 c 0
 730 -20 899 73 899 283 c 0
 899 405 841 506 634 557 c 2
 451 602 l 1
 292 640 259 659 259 749 c 0
 259 862 361 910 520 910 c 0
 642 910 741 862 788 845 c 0
 798 842 807 840 815 840 c 0
 846 840 863 863 863 887 c 0
 863 905 853 924 832 936 c 0
 781 964 653 1012 511 1012 c 0
EndSplineSet
EndChar

StartChar: section
Encoding: 102 167 343
Width: 1158
VWidth: 0
GlyphClass: 2
Flags: HW
LayerCount: 2
Fore
SplineSet
824 1353 m 0
 871 1353 889 1388 889 1418 c 0
 889 1440 876 1462 847 1470 c 0
 777 1491 699 1510 622 1510 c 0
 433 1510 252 1435 252 1230 c 0
 252 1095 339 1045 444 983 c 1
 339 940 223 853 223 733 c 0
 223 417 766 498 766 283 c 0
 766 142 629 92 509 92 c 0
 416 92 349 104 294 125 c 1
 282 128 272 130 263 130 c 0
 222 130 211 98 211 68 c 0
 211 46 223 24 252 13 c 0
 337 -18 436 -32 529 -32 c 0
 731 -32 927 65 927 283 c 0
 927 424 827 493 705 541 c 1
 808 585 922 674 922 794 c 0
 922 1060 413 1029 413 1235 c 0
 413 1356 544 1387 644 1387 c 0
 703 1387 805 1353 824 1353 c 0
581 581 m 1
 506 612 374 655 374 750 c 0
 374 854 462 889 542 940 c 1
 622 897 771 873 771 769 c 0
 771 668 660 626 581 581 c 1
EndSplineSet
EndChar

StartChar: semicolon
Encoding: 27 59 344
Width: 578
VWidth: 0
GlyphClass: 2
Flags: HW
LayerCount: 2
Fore
SplineSet
313 833 m 0
 379 833 416 879 416 926 c 0
 416 971 380 1016 313 1016 c 0
 247 1016 212 972 212 926 c 0
 212 879 246 833 313 833 c 0
EndSplineSet
Refer: 177 44 N 1 0 0 1 5 120 2
EndChar

StartChar: seven
Encoding: 23 55 345
Width: 1150
VWidth: 0
GlyphClass: 2
Flags: HW
PickledData: "(dp1
S'com.typemytype.robofont.layerData'
p2
(dp3
S'b'
(dp4
S'name'
p5
S'seven'
p6
sS'lib'
p7
(dp8
sS'unicodes'
p9
(tsS'width'
p10
I1160
sS'contours'
p11
(tsS'components'
p12
(tsS'anchors'
p13
(tsss."
LayerCount: 2
Fore
SplineSet
411 0 m 0
 440 0 467 13 480 45 c 2
 1004 1266 l 1
 1014 1286 1017 1311 1017 1332 c 0
 1017 1380 982 1411 923 1411 c 2
 159 1411 l 2
 113 1411 91 1380 91 1346 c 0
 91 1313 113 1282 159 1282 c 2
 846 1282 l 1
 337 108 l 2
 332 97 329 86 329 76 c 0
 329 31 368 0 411 0 c 0
EndSplineSet
EndChar

StartChar: six
Encoding: 22 54 346
Width: 1150
VWidth: 0
GlyphClass: 2
Flags: HW
PickledData: "(dp1
S'com.typemytype.robofont.layerData'
p2
(dp3
S'b'
(dp4
S'name'
p5
S'nine'
p6
sS'lib'
p7
(dp8
sS'unicodes'
p9
(tsS'width'
p10
I1160
sS'contours'
p11
(tsS'components'
p12
(tsS'anchors'
p13
(tsss."
LayerCount: 2
Fore
SplineSet
1059 448 m 0
 1059 713 899 902 619 902 c 0
 417 902 284 766 260 656 c 1
 260 1024 315 1301 653 1301 c 0
 726 1301 814 1283 904 1239 c 0
 913 1234 922 1232 930 1232 c 0
 965 1232 991 1269 991 1303 c 0
 991 1324 982 1344 960 1355 c 0
 873 1399 767 1430 656 1430 c 0
 144 1430 95 934 95 620 c 0
 95 296 199 -22 598 -22 c 0
 885 -22 1059 183 1059 448 c 0
588 105 m 0
 371 105 276 277 276 447 c 0
 276 645 393 786 609 787 c 0
 813 787 902 627 902 448 c 0
 902 257 798 105 588 105 c 0
EndSplineSet
EndChar

StartChar: slash
Encoding: 15 47 347
Width: 735
VWidth: 0
GlyphClass: 2
Flags: HW
LayerCount: 2
Fore
SplineSet
121 -181 m 0
 148 -181 175 -166 186 -132 c 2
 675 1337 l 2
 678 1348 680 1358 680 1364 c 0
 680 1404 646 1427 612 1427 c 0
 582 1427 556 1412 545 1378 c 2
 60 -92 l 2
 57 -103 55 -112 55 -118 c 0
 55 -158 88 -181 121 -181 c 0
EndSplineSet
EndChar

StartChar: slashbar
Encoding: 65549 -1 348
Width: 600
VWidth: 0
GlyphClass: 2
Flags: HW
LayerCount: 2
Fore
SplineSet
83 641 m 2
 668 833 l 2
 699 843 713 868 713 893 c 0
 713 926 690 958 652 958 c 0
 645 958 637 957 628 954 c 2
 43 763 l 2
 9 752 -6 726 -6 700 c 0
 -6 668 17 636 56 636 c 0
 64 636 73 638 83 641 c 2
EndSplineSet
EndChar

StartChar: sterling
Encoding: 98 163 350
Width: 1358
VWidth: 0
GlyphClass: 2
Flags: HW
PickledData: "(dp1
S'com.typemytype.robofont.layerData'
p2
(dp3
S'b'
(dp4
S'name'
p5
S'sterling'
p6
sS'lib'
p7
(dp8
sS'unicodes'
p9
(tsS'width'
p10
I1361
sS'contours'
p11
(tsS'components'
p12
(tsS'anchors'
p13
(tsss."
LayerCount: 2
Fore
SplineSet
226 -1 m 2
 1071 -1 l 2
 1093 -1 1104 29 1104 60 c 0
 1104 91 1093 122 1071 122 c 2
 484 122 l 1
 484 768 l 1
 869 768 l 2
 888 768 898 796 898 824 c 0
 898 851 889 877 869 877 c 2
 484 877 l 1
 484 1007 l 2
 484 1240 512 1319 730 1319 c 0
 818 1319 877 1305 952 1293 c 0
 953 1293 954 1293 955 1293 c 0
 981 1293 995 1337 995 1368 c 0
 995 1384 992 1396 984 1398 c 0
 891 1423 792 1435 709 1435 c 0
 498 1435 337 1351 337 1095 c 2
 337 877 l 1
 193 877 l 2
 173 877 163 849 163 822 c 0
 163 795 173 768 193 768 c 2
 337 768 l 1
 337 122 l 1
 223 122 l 2
 202 122 191 93 191 63 c 0
 191 32 203 -1 226 -1 c 2
EndSplineSet
EndChar

StartChar: summation
Encoding: 470 8721 351
Width: 1149
VWidth: 0
GlyphClass: 2
Flags: HW
LayerCount: 2
Fore
SplineSet
99 -198 m 2
 1103 -198 l 2
 1149 -198 1172 -163 1172 -128 c 0
 1172 -93 1149 -58 1103 -58 c 2
 242 -58 l 1
 780 633 l 1
 281 1302 l 1
 1071 1302 l 2
 1113 1302 1134 1332 1134 1365 c 0
 1134 1396 1113 1427 1071 1427 c 2
 130 1427 l 2
 77 1427 59 1399 59 1370 c 0
 59 1352 66 1336 73 1325 c 2
 607 612 l 1
 48 -100 l 2
 39 -112 35 -125 35 -141 c 0
 35 -169 51 -198 99 -198 c 2
EndSplineSet
EndChar

StartChar: t
Encoding: 84 116 352
Width: 718
VWidth: 0
GlyphClass: 2
Flags: HW
PickledData: "(dp1
S'b'
(dp2
sS'anchors'
p3
(tsS'lib'
p4
(dp5
sS'unicodes'
p6
(tsS'width'
p7
I768
sS'contours'
p8
(tsS'components'
p9
(tsS'com.typemytype.robofont.layerData'
p10
(dp11
S'b'
(dp12
S'name'
p13
S't'
sg4
(dp14
sg6
(tsg7
I706
sg8
((dp15
S'points'
p16
((dp17
S'segmentType'
p18
S'curve'
p19
sS'x'
I317
sS'smooth'
p20
I1
sS'y'
I0
s(dp21
S'y'
I0
sS'x'
I358
sg20
I0
s(dp22
S'y'
I27
sS'x'
I398
sg20
I0
s(dp23
g18
S'curve'
p24
sS'x'
I398
sg20
I1
sS'y'
I79
s(dp25
g18
S'line'
p26
sS'x'
I398
sg20
I0
sS'y'
I876
s(dp27
g18
S'line'
p28
sS'x'
I578
sg20
I1
sS'y'
I876
s(dp29
S'y'
I876
sS'x'
I621
sg20
I0
s(dp30
S'y'
I897
sS'x'
I634
sg20
I0
s(dp31
g18
S'curve'
p32
sS'x'
I634
sg20
I1
sS'y'
I928
s(dp33
S'y'
I957
sS'x'
I634
sg20
I0
s(dp34
S'y'
I981
sS'x'
I621
sg20
I0
s(dp35
g18
S'curve'
p36
sS'x'
I578
sg20
I1
sS'y'
I981
s(dp37
g18
S'line'
p38
sS'x'
I398
sg20
I0
sS'y'
I981
s(dp39
g18
S'line'
p40
sS'x'
I398
sg20
I1
sS'y'
I1053
s(dp41
S'y'
I1285
sS'x'
I398
sg20
I0
s(dp42
S'y'
I1318
sS'x'
I432
sg20
I0
s(dp43
g18
S'curve'
p44
sS'x'
I544
sg20
I1
sS'y'
I1318
s(dp45
g18
S'line'
p46
sS'x'
I629
sg20
I1
sS'y'
I1318
s(dp47
S'y'
I1318
sS'x'
I706
sg20
I0
s(dp48
S'y'
I1438
sS'x'
I703
sg20
I0
s(dp49
g18
S'curve'
p50
sS'x'
I630
sg20
I1
sS'y'
I1438
s(dp51
g18
S'line'
p52
sS'x'
I510
sg20
I1
sS'y'
I1438
s(dp53
S'y'
I1438
sS'x'
I357
sg20
I0
s(dp54
S'y'
I1371
sS'x'
I238
sg20
I0
s(dp55
g18
S'curve'
p56
sS'x'
I238
sg20
I1
sS'y'
I1112
s(dp57
g18
S'line'
p58
sS'x'
I238
sg20
I0
sS'y'
I981
s(dp59
g18
S'line'
p60
sS'x'
I98
sg20
I1
sS'y'
I981
s(dp61
S'y'
I981
sS'x'
I55
sg20
I0
s(dp62
S'y'
I957
sS'x'
I39
sg20
I0
s(dp63
g18
S'curve'
p64
sS'x'
I39
sg20
I1
sS'y'
I928
s(dp65
S'y'
I899
sS'x'
I39
sg20
I0
s(dp66
S'y'
I876
sS'x'
I55
sg20
I0
s(dp67
g18
S'curve'
p68
sS'x'
I98
sg20
I1
sS'y'
I876
s(dp69
g18
S'line'
p70
sS'x'
I238
sg20
I0
sS'y'
I876
s(dp71
g18
S'line'
p72
sS'x'
I238
sg20
I1
sS'y'
I79
s(dp73
S'y'
I26
sS'x'
I238
sg20
I0
s(dp74
S'y'
I0
sS'x'
I278
sg20
I0
stp75
stp76
sg9
(tsg3
(tsssg13
S't'
s."
LayerCount: 2
Fore
SplineSet
462 -19 m 0
 483 -19 503 -20 523 -20 c 0
 592 -20 649 -14 649 42 c 0
 649 71 628 100 587 100 c 0
 586 100 585 100 584 100 c 2
 521 97 l 2
 518 97 515 97 512 97 c 0
 425 97 377 140 377 300 c 2
 377 882 l 1
 569 882 l 2
 610 882 625 900 625 929 c 0
 625 959 610 979 569 979 c 2
 377 979 l 1
 377 1276 l 2
 377 1317 347 1338 317 1338 c 0
 291 1338 249 1306 248 1275 c 2
 231 979 l 1
 99 979 l 2
 58 979 41 959 41 930 c 0
 41 901 58 882 99 882 c 2
 231 882 l 1
 231 288 l 2
 231 51 336 -19 462 -19 c 0
EndSplineSet
EndChar

StartChar: thorn
Encoding: 189 254 357
Width: 1150
VWidth: 0
GlyphClass: 2
Flags: HW
LayerCount: 2
Fore
SplineSet
210 -343 m 0
 246 -343 281 -318 281 -269 c 2
 281 171 l 1
 370 36 498 -29 647 -29 c 0
 942 -29 1061 245 1061 499 c 0
 1061 763 941 1019 641 1019 c 0
 505 1019 359 954 286 830 c 1
 286 1357 l 2
 286 1401 251 1423 214 1423 c 0
 178 1423 140 1400 140 1357 c 2
 140 -269 l 2
 140 -318 175 -343 210 -343 c 0
621 91 m 0
 365 91 286 289 286 514 c 0
 286 713 375 899 604 899 c 0
 829 899 906 696 906 508 c 0
 906 327 850 91 621 91 c 0
EndSplineSet
EndChar

StartChar: three
Encoding: 19 51 358
Width: 1150
VWidth: 0
GlyphClass: 2
Flags: HW
PickledData: "(dp1
S'com.typemytype.robofont.layerData'
p2
(dp3
S'b'
(dp4
S'name'
p5
S'three'
p6
sS'lib'
p7
(dp8
sS'unicodes'
p9
(tsS'width'
p10
I1160
sS'contours'
p11
(tsS'components'
p12
(tsS'anchors'
p13
(tsss."
LayerCount: 2
Fore
SplineSet
543 -22 m 0
 781 -22 1022 92 1022 368 c 0
 1022 558 898 699 730 733 c 1
 869 768 985 878 985 1047 c 0
 985 1315 783 1430 532 1430 c 0
 382 1430 217 1365 185 1351 c 0
 163 1339 153 1319 153 1298 c 0
 153 1262 180 1223 215 1223 c 0
 221 1223 228 1224 235 1227 c 0
 265 1238 361 1301 540 1301 c 0
 695 1301 823 1210 823 1053 c 0
 823 876 695 788 500 788 c 2
 444 788 l 2
 402 788 379 758 379 724 c 0
 379 691 402 666 444 666 c 2
 508 666 l 2
 711 666 863 552 863 361 c 0
 863 204 725 107 544 107 c 0
 427 107 329 144 264 175 c 0
 255 178 247 179 239 179 c 0
 204 179 178 151 178 119 c 0
 178 94 194 67 231 48 c 0
 317 1 446 -22 543 -22 c 0
EndSplineSet
EndChar

StartChar: threequarters
Encoding: 125 190 359
Width: 1582
VWidth: 0
GlyphClass: 2
Flags: HW
PickledData: "(dp1
S'com.typemytype.robofont.layerData'
p2
(dp3
S'b'
(dp4
S'name'
p5
S'threequarters'
p6
sS'lib'
p7
(dp8
sS'unicodes'
p9
(tsS'width'
p10
I1603
sS'contours'
p11
(tsS'components'
p12
(tsS'anchors'
p13
(tsss."
LayerCount: 2
Fore
SplineSet
291 538 m 0
 431 538 564 608 564 767 c 0
 564 879 489 959 387 983 c 1
 493 993 549 1072 549 1175 c 0
 549 1332 414 1401 278 1401 c 0
 200 1401 54 1372 54 1320 c 0
 54 1298 68 1279 94 1279 c 0
 113 1279 202 1320 287 1320 c 0
 377 1320 455 1268 455 1175 c 0
 455 1067 362 1022 264 1019 c 2
 229 1018 l 2
 203 1017 191 999 191 979 c 0
 191 960 203 941 229 941 c 2
 274 941 l 2
 374 941 469 877 469 765 c 0
 469 671 401 619 294 619 c 0
 227 619 162 636 123 658 c 0
 116 661 109 662 103 662 c 0
 79 662 65 642 65 623 c 0
 65 573 213 538 291 538 c 0
1281 1 m 0
 1304 1 1327 16 1327 46 c 2
 1327 191 l 1
 1423 191 l 2
 1449 191 1460 207 1460 225 c 0
 1460 244 1446 260 1423 260 c 2
 1327 260 l 1
 1327 772 l 2
 1327 820 1297 840 1260 840 c 0
 1231 840 1204 827 1186 797 c 1
 843 280 l 2
 835 269 831 257 831 244 c 0
 831 216 853 191 886 191 c 2
 1235 191 l 1
 1235 46 l 2
 1235 16 1258 1 1281 1 c 0
527 -90 m 0
 549 -90 569 -78 577 -52 c 2
 1055 1359 l 2
 1058 1365 1059 1373 1059 1380 c 0
 1059 1411 1033 1430 1007 1430 c 0
 984 1430 962 1417 954 1391 c 2
 478 -19 l 2
 475 -26 474 -33 474 -40 c 0
 474 -71 500 -90 527 -90 c 0
914 260 m 1
 1235 750 l 1
 1235 260 l 1
 914 260 l 1
EndSplineSet
EndChar

StartChar: uni00B3
Encoding: 114 179 360
Width: 784
VWidth: 0
GlyphClass: 2
Flags: HW
PickledData: "(dp1
S'com.typemytype.robofont.layerData'
p2
(dp3
S'b'
(dp4
S'name'
p5
S'threesuperior'
p6
sS'lib'
p7
(dp8
sS'unicodes'
p9
(tsS'width'
p10
I818
sS'contours'
p11
(tsS'components'
p12
(tsS'anchors'
p13
(tsss."
LayerCount: 2
Fore
SplineSet
392 531 m 0
 534 531 665 601 665 759 c 0
 665 872 589 952 487 976 c 1
 587 999 651 1062 651 1167 c 0
 651 1325 514 1394 378 1394 c 0
 299 1394 156 1365 156 1313 c 0
 156 1293 172 1272 196 1272 c 0
 215 1272 306 1312 388 1312 c 0
 477 1312 556 1260 556 1166 c 0
 556 1058 464 1015 366 1012 c 2
 331 1011 l 1
 305 1009 293 992 293 972 c 0
 293 953 305 935 331 935 c 2
 375 935 l 2
 475 935 571 870 571 758 c 0
 571 661 503 611 396 611 c 0
 331 611 261 627 225 650 c 0
 219 654 212 656 206 656 c 0
 185 656 167 635 167 616 c 0
 167 566 315 531 392 531 c 0
EndSplineSet
EndChar

StartChar: tilde
Encoding: 405 732 361
Width: 569
VWidth: 0
GlyphClass: 4
Flags: HW
LayerCount: 2
Fore
SplineSet
33 1177 m 0
 51 1177 69 1186 85 1205 c 0
 109 1232 133 1243 162 1243 c 0
 232 1243 318 1177 394 1177 c 0
 483 1177 539 1234 562 1303 c 0
 563 1307 571 1310 571 1317 c 0
 571 1341 556 1356 532 1356 c 0
 531 1356 l 0
 496 1356 456 1288 411 1288 c 0
 345 1288 260 1351 172 1351 c 0
 84 1351 31 1300 1 1228 c 0
 -2 1222 -3 1216 -3 1209 c 0
 -3 1188 14 1177 33 1177 c 0
EndSplineSet
EndChar

StartChar: trademark
Encoding: 463 8482 362
Width: 1933
VWidth: 0
GlyphClass: 2
Flags: HW
LayerCount: 2
Fore
SplineSet
871 654 m 0
 901 654 932 674 932 712 c 2
 932 1190 l 1
 1180 694 l 1
 1191 668 1211 659 1233 659 c 0
 1256 659 1276 672 1288 694 c 2
 1534 1190 l 1
 1534 712 l 2
 1534 673 1564 654 1595 654 c 0
 1626 654 1656 674 1656 712 c 2
 1656 1262 l 2
 1656 1336 1615 1368 1564 1368 c 0
 1528 1368 1492 1348 1465 1294 c 2
 1235 835 l 1
 1003 1294 l 2
 975 1348 937 1369 903 1369 c 0
 853 1369 810 1336 810 1262 c 2
 810 712 l 2
 810 674 840 654 871 654 c 0
359 655 m 0
 390 655 422 674 422 713 c 2
 422 1277 l 1
 613 1277 l 2
 643 1277 657 1300 657 1322 c 0
 657 1346 643 1369 613 1369 c 2
 106 1369 l 2
 76 1369 61 1346 61 1323 c 0
 61 1300 77 1277 106 1277 c 2
 299 1277 l 1
 299 713 l 2
 299 674 329 655 359 655 c 0
EndSplineSet
EndChar

StartChar: two
Encoding: 18 50 363
Width: 1147
VWidth: 0
GlyphClass: 2
Flags: HW
PickledData: "(dp1
S'com.typemytype.robofont.layerData'
p2
(dp3
S'b'
(dp4
S'name'
p5
S'two'
p6
sS'lib'
p7
(dp8
sS'unicodes'
p9
(tsS'width'
p10
I1160
sS'contours'
p11
(tsS'components'
p12
(tsS'anchors'
p13
(tsss."
LayerCount: 2
Fore
SplineSet
263 0 m 2
 939 0 l 2
 989 0 1014 30 1014 61 c 0
 1014 92 988 123 939 123 c 2
 313 123 l 1
 788 600 l 1
 959 763 1023 886 1023 1040 c 0
 1023 1257 842 1437 602 1437 c 0
 396 1437 297 1378 194 1314 c 0
 171 1300 162 1280 162 1261 c 0
 162 1228 190 1196 225 1196 c 0
 234 1196 244 1199 254 1204 c 0
 330 1244 388 1308 592 1308 c 0
 746 1308 874 1197 874 1021 c 0
 874 915 819 822 702 703 c 2
 181 171 l 2
 151 140 137 111 137 86 c 0
 137 35 190 0 263 0 c 2
EndSplineSet
EndChar

StartChar: uni00B2
Encoding: 113 178 364
Width: 743
VWidth: 0
GlyphClass: 2
Flags: HW
LayerCount: 2
Fore
SplineSet
163 562 m 2
 594 562 l 2
 620 562 634 582 634 602 c 0
 634 621 619 642 594 642 c 2
 203 642 l 1
 351 773 624 1013 624 1200 c 0
 624 1332 506 1399 376 1399 c 0
 280 1399 142 1340 142 1290 c 0
 142 1273 157 1258 179 1258 c 0
 190 1258 201 1261 212 1269 c 0
 251 1292 311 1319 370 1319 c 0
 448 1319 525 1274 525 1193 c 0
 525 1042 222 766 101 657 c 0
 93 651 91 642 91 632 c 0
 91 626 92 619 92 613 c 0
 92 583 113 562 163 562 c 2
EndSplineSet
EndChar

StartChar: u
Encoding: 85 117 365
Width: 1146
VWidth: 0
GlyphClass: 2
Flags: HW
PickledData: "(dp1
S'b'
(dp2
sS'anchors'
p3
(tsS'lib'
p4
(dp5
sS'unicodes'
p6
(tsS'width'
p7
I1195
sS'contours'
p8
(tsS'components'
p9
(tsS'com.typemytype.robofont.layerData'
p10
(dp11
S'b'
(dp12
S'name'
p13
S'u'
sg4
(dp14
sg6
(tsg7
I1152
sg8
((dp15
S'points'
p16
((dp17
S'segmentType'
p18
S'curve'
p19
sS'x'
I915
sS'smooth'
p20
I1
sS'y'
I991
s(dp21
S'y'
I991
sS'x'
I875
sg20
I0
s(dp22
S'y'
I965
sS'x'
I834
sg20
I0
s(dp23
g18
S'curve'
p24
sS'x'
I834
sg20
I1
sS'y'
I916
s(dp25
g18
S'line'
p26
sS'x'
I834
sg20
I0
sS'y'
I395
s(dp27
S'y'
I198
sS'x'
I821
sg20
I0
s(dp28
S'y'
I90
sS'x'
I698
sg20
I0
s(dp29
g18
S'curve'
p30
sS'x'
I542
sg20
I1
sS'y'
I90
s(dp31
S'y'
I90
sS'x'
I385
sg20
I0
s(dp32
S'y'
I187
sS'x'
I306
sg20
I0
s(dp33
g18
S'curve'
p34
sS'x'
I306
sg20
I1
sS'y'
I367
s(dp35
g18
S'line'
p36
sS'x'
I306
sg20
I1
sS'y'
I916
s(dp37
S'y'
I967
sS'x'
I306
sg20
I0
s(dp38
S'y'
I991
sS'x'
I266
sg20
I0
s(dp39
g18
S'curve'
p40
sS'x'
I226
sg20
I1
sS'y'
I991
s(dp41
S'y'
I991
sS'x'
I186
sg20
I0
s(dp42
S'y'
I967
sS'x'
I146
sg20
I0
s(dp43
g18
S'curve'
p44
sS'x'
I146
sg20
I1
sS'y'
I916
s(dp45
g18
S'line'
p46
sS'x'
I146
sg20
I1
sS'y'
I369
s(dp47
S'y'
I96
sS'x'
I146
sg20
I0
s(dp48
S'y'
S'-20'
p49
sS'x'
I294
sg20
I0
s(dp50
g18
S'curve'
p51
sS'x'
I507
sg20
I1
sS'y'
S'-20'
p52
s(dp53
S'y'
S'-20'
p54
sS'x'
I656
sg20
I0
s(dp55
S'y'
I49
sS'x'
I786
sg20
I0
s(dp56
g18
S'curve'
p57
sS'x'
I834
sg20
I0
sS'y'
I179
s(dp58
g18
S'line'
p59
sS'x'
I834
sg20
I1
sS'y'
I73
s(dp60
S'y'
I24
sS'x'
I834
sg20
I0
s(dp61
S'y'
I0
sS'x'
I874
sg20
I0
s(dp62
g18
S'curve'
p63
sS'x'
I913
sg20
I1
sS'y'
I0
s(dp64
S'y'
I0
sS'x'
I953
sg20
I0
s(dp65
S'y'
I24
sS'x'
I994
sg20
I0
s(dp66
g18
S'curve'
p67
sS'x'
I994
sg20
I1
sS'y'
I75
s(dp68
g18
S'line'
p69
sS'x'
I994
sg20
I1
sS'y'
I916
s(dp70
S'y'
I967
sS'x'
I994
sg20
I0
s(dp71
S'y'
I991
sS'x'
I955
sg20
I0
stp72
stp73
sg9
(tsg3
(tsssg13
S'u'
s."
AnchorPoint: "ogonek" 909 18 basechar 0
LayerCount: 2
Fore
SplineSet
510 -21 m 0
 659 -21 791 50 837 184 c 1
 837 67 l 2
 837 22 874 0 910 0 c 0
 946 0 984 22 984 69 c 2
 984 921 l 2
 984 968 949 989 912 989 c 0
 876 989 837 965 837 921 c 2
 837 385 l 1
 822 186 700 80 539 80 c 0
 373 80 296 182 296 367 c 2
 296 921 l 2
 296 968 259 989 222 989 c 0
 186 989 149 968 149 921 c 2
 149 369 l 2
 149 95 293 -21 510 -21 c 0
EndSplineSet
EndChar

StartChar: underscore
Encoding: 63 95 373
Width: 1024
VWidth: 0
GlyphClass: 2
Flags: HW
LayerCount: 2
Fore
SplineSet
54 -254 m 2
 966 -254 l 2
 1004 -254 1023 -224 1023 -196 c 0
 1023 -165 1004 -136 966 -136 c 2
 54 -136 l 2
 18 -136 -1 -165 -1 -196 c 0
 -1 -224 18 -254 54 -254 c 2
EndSplineSet
EndChar

StartChar: uni00AD
Encoding: 108 173 375
Width: 687
VWidth: 0
GlyphClass: 2
Flags: HW
LayerCount: 2
Fore
SplineSet
111 471 m 2
 579 471 l 2
 621 471 647 492 647 525 c 0
 647 560 621 583 579 583 c 2
 109 583 l 2
 67 583 40 560 40 525 c 0
 40 492 68 471 111 471 c 2
EndSplineSet
EndChar

StartChar: uni02C9
Encoding: 400 713 439
Width: 569
VWidth: 0
GlyphClass: 4
Flags: HW
LayerCount: 2
Fore
SplineSet
41 1326 m 2
 535 1326 l 2
 576 1326 597 1348 597 1382 c 0
 597 1414 576 1437 535 1437 c 2
 41 1437 l 2
 -3 1437 -25 1414 -25 1382 c 0
 -25 1348 -3 1326 41 1326 c 2
EndSplineSet
EndChar

StartChar: uni0307
Encoding: 407 775 440
Width: 600
VWidth: 0
GlyphClass: 2
Flags: HW
LayerCount: 2
Fore
SplineSet
322 428 m 0
 388 428 424 473 424 520 c 0
 424 566 388 612 322 612 c 0
 254 612 219 566 219 520 c 0
 219 473 255 428 322 428 c 0
EndSplineSet
EndChar

StartChar: uni03A9
Encoding: 415 937 441
Width: 1504
VWidth: 0
GlyphClass: 2
Flags: HW
LayerCount: 2
Fore
SplineSet
309 0 m 2
 772 0 l 1
 534 344 328 677 328 922 c 0
 328 1158 476 1314 856 1314 c 0
 1238 1314 1386 1158 1386 922 c 0
 1386 677 1180 344 942 0 c 1
 1405 0 l 2
 1435 0 1450 32 1450 65 c 0
 1450 98 1435 130 1405 130 c 2
 1130 130 l 1
 1351 378 1528 670 1528 922 c 0
 1528 1236 1380 1460 856 1460 c 0
 390 1460 186 1232 186 922 c 0
 186 670 364 373 584 130 c 1
 309 130 l 2
 279 130 264 98 264 65 c 0
 264 32 279 0 309 0 c 2
EndSplineSet
EndChar

StartChar: uni03BC
Encoding: 416 956 442
Width: 1145
VWidth: 0
GlyphClass: 2
Flags: HW
LayerCount: 2
Fore
SplineSet
220 -269 m 0
 253 -269 295 -247 295 -200 c 2
 295 501 l 1
 149 501 l 1
 149 -200 l 2
 149 -248 186 -269 220 -269 c 0
EndSplineSet
Refer: 365 117 N 1 0 0 1 0 0 2
EndChar

StartChar: afii61289
Encoding: 462 8467 461
Width: 718
VWidth: 0
GlyphClass: 2
Flags: HW
LayerCount: 2
Fore
SplineSet
461 -17 m 0
 480 -17 499 -17 518 -17 c 0
 590 -17 652 -11 652 47 c 0
 652 77 630 108 587 108 c 0
 586 108 584 108 583 108 c 2
 518 105 l 2
 514 105 510 105 507 105 c 0
 422 105 379 153 379 304 c 2
 379 876 l 1
 604 1042 676 1124 676 1258 c 0
 676 1371 620 1494 464 1494 c 0
 349 1494 233 1415 232 1199 c 2
 231 879 l 1
 54 740 l 2
 39 728 32 714 32 701 c 0
 32 680 49 662 71 662 c 0
 81 662 90 664 103 674 c 2
 231 774 l 1
 231 289 l 2
 231 60 334 -17 461 -17 c 0
464 1348 m 0
 505 1348 546 1316 546 1249 c 0
 546 1149 489 1067 379 981 c 1
 379 1210 l 2
 379 1315 422 1348 464 1348 c 0
EndSplineSet
EndChar

StartChar: v
Encoding: 86 118 470
Width: 1019
VWidth: 0
GlyphClass: 2
Flags: HW
PickledData: "(dp1
S'com.typemytype.robofont.layerData'
p2
(dp3
S'b'
(dp4
S'name'
p5
S'v'
sS'lib'
p6
(dp7
sS'unicodes'
p8
(tsS'width'
p9
I1027
sS'contours'
p10
((dp11
S'points'
p12
((dp13
S'segmentType'
p14
S'line'
p15
sS'x'
I518
sS'smooth'
p16
I0
sS'y'
I0
s(dp17
S'y'
I0
sS'x'
I589
sg16
I0
s(dp18
S'y'
I36
sS'x'
I618
sg16
I0
s(dp19
g14
S'curve'
p20
sS'x'
I654
sg16
I1
sS'y'
I121
s(dp21
g14
S'line'
p22
sS'x'
I979
sg16
I1
sS'y'
I890
s(dp23
S'y'
I940
sS'x'
I1000
sg16
I0
s(dp24
S'y'
I991
sS'x'
I968
sg16
I0
s(dp25
g14
S'curve'
p26
sS'x'
I907
sg16
I1
sS'y'
I991
s(dp27
S'y'
I991
sS'x'
I878
sg16
I0
s(dp28
S'y'
I975
sS'x'
I850
sg16
I0
s(dp29
g14
S'curve'
p30
sS'x'
I836
sg16
I1
sS'y'
I940
s(dp31
g14
S'line'
p32
sS'x'
I518
sg16
I0
sS'y'
I166
stp33
s(dp34
g12
((dp35
g14
S'curve'
p36
sS'x'
I518
sg16
I0
sS'y'
I0
s(dp37
g14
S'line'
p38
sS'x'
I518
sg16
I0
sS'y'
I166
s(dp39
g14
S'line'
p40
sS'x'
I200
sg16
I1
sS'y'
I940
s(dp41
S'y'
I975
sS'x'
I186
sg16
I0
s(dp42
S'y'
I991
sS'x'
I158
sg16
I0
s(dp43
g14
S'curve'
p44
sS'x'
I129
sg16
I1
sS'y'
I991
s(dp45
S'y'
I991
sS'x'
I68
sg16
I0
s(dp46
S'y'
I940
sS'x'
I36
sg16
I0
s(dp47
g14
S'curve'
p48
sS'x'
I57
sg16
I1
sS'y'
I890
s(dp49
g14
S'line'
p50
sS'x'
I382
sg16
I1
sS'y'
I121
s(dp51
S'y'
I36
sS'x'
I418
sg16
I0
s(dp52
S'y'
I0
sS'x'
I447
sg16
I0
stp53
stp54
sS'components'
p55
(tsS'anchors'
p56
(tsss."
LayerCount: 2
Fore
SplineSet
514 1 m 0
 580 1 605 33 639 113 c 2
 973 896 l 2
 976 902 977 909 977 916 c 0
 977 953 938 990 900 990 c 0
 877 990 855 977 841 942 c 2
 514 154 l 1
 188 942 l 2
 174 977 152 990 129 990 c 0
 91 990 52 953 52 916 c 0
 52 909 53 902 56 896 c 2
 390 113 l 2
 424 33 449 1 514 1 c 0
EndSplineSet
EndChar

StartChar: w
Encoding: 87 119 471
Width: 1698
VWidth: 0
GlyphClass: 2
Flags: HW
PickledData: "(dp1
S'b'
(dp2
sS'anchors'
p3
(tsS'lib'
p4
(dp5
sS'unicodes'
p6
(tsS'width'
p7
I1742
sS'contours'
p8
(tsS'components'
p9
(tsS'com.typemytype.robofont.layerData'
p10
(dp11
S'b'
(dp12
S'name'
p13
S'w'
sg4
(dp14
sg6
(tsg7
I1699
sg8
((dp15
S'points'
p16
((dp17
S'segmentType'
p18
S'curve'
p19
sS'x'
I477
sS'smooth'
p20
I1
sS'y'
I0
s(dp21
S'y'
I0
sS'x'
I524
sg20
I0
s(dp22
S'y'
I30
sS'x'
I564
sg20
I0
s(dp23
g18
S'curve'
p24
sS'x'
I588
sg20
I0
sS'y'
I96
s(dp25
g18
S'line'
p26
sS'x'
I859
sg20
I0
sS'y'
I839
s(dp27
g18
S'line'
p28
sS'x'
I859
sg20
I0
sS'y'
I991
s(dp29
S'y'
I991
sS'x'
I808
sg20
I0
s(dp30
S'y'
I959
sS'x'
I771
sg20
I0
s(dp31
g18
S'curve'
p32
sS'x'
I750
sg20
I1
sS'y'
I899
s(dp33
g18
S'line'
p34
sS'x'
I488
sg20
I0
sS'y'
I173
s(dp35
g18
S'line'
p36
sS'x'
I223
sg20
I1
sS'y'
I936
s(dp37
S'y'
I974
sS'x'
I210
sg20
I0
s(dp38
S'y'
I991
sS'x'
I183
sg20
I0
s(dp39
g18
S'curve'
p40
sS'x'
I152
sg20
I1
sS'y'
I991
s(dp41
S'y'
I991
sS'x'
I112
sg20
I0
s(dp42
S'y'
I962
sS'x'
I79
sg20
I0
s(dp43
g18
S'curve'
p44
sS'x'
I79
sg20
I1
sS'y'
I916
s(dp45
S'y'
I909
sS'x'
I79
sg20
I0
s(dp46
S'y'
I899
sS'x'
I81
sg20
I0
s(dp47
g18
S'curve'
p48
sS'x'
I84
sg20
I0
sS'y'
I888
s(dp49
g18
S'line'
p50
sS'x'
I372
sg20
I1
sS'y'
I88
s(dp51
S'y'
I26
sS'x'
I394
sg20
I0
s(dp52
S'y'
I0
sS'x'
I433
sg20
I0
stp53
s(dp54
g16
((dp55
g18
S'curve'
p56
sS'x'
I1241
sg20
I1
sS'y'
I0
s(dp57
S'y'
I0
sS'x'
I1285
sg20
I0
s(dp58
S'y'
I26
sS'x'
I1324
sg20
I0
s(dp59
g18
S'curve'
p60
sS'x'
I1346
sg20
I1
sS'y'
I88
s(dp61
g18
S'line'
p62
sS'x'
I1634
sg20
I0
sS'y'
I888
s(dp63
S'y'
I899
sS'x'
I1637
sg20
I0
s(dp64
S'y'
I909
sS'x'
I1639
sg20
I0
s(dp65
g18
S'curve'
p66
sS'x'
I1639
sg20
I1
sS'y'
I916
s(dp67
S'y'
I962
sS'x'
I1639
sg20
I0
s(dp68
S'y'
I991
sS'x'
I1606
sg20
I0
s(dp69
g18
S'curve'
p70
sS'x'
I1566
sg20
I1
sS'y'
I991
s(dp71
S'y'
I991
sS'x'
I1535
sg20
I0
s(dp72
S'y'
I974
sS'x'
I1508
sg20
I0
s(dp73
g18
S'curve'
p74
sS'x'
I1495
sg20
I1
sS'y'
I936
s(dp75
g18
S'line'
p76
sS'x'
I1230
sg20
I0
sS'y'
I173
s(dp77
g18
S'line'
p78
sS'x'
I968
sg20
I1
sS'y'
I899
s(dp79
S'y'
I959
sS'x'
I947
sg20
I0
s(dp80
S'y'
I991
sS'x'
I910
sg20
I0
s(dp81
g18
S'curve'
p82
sS'x'
I859
sg20
I0
sS'y'
I991
s(dp83
g18
S'line'
p84
sS'x'
I859
sg20
I0
sS'y'
I839
s(dp85
g18
S'line'
p86
sS'x'
I1130
sg20
I0
sS'y'
I96
s(dp87
S'y'
I30
sS'x'
I1154
sg20
I0
s(dp88
S'y'
I0
sS'x'
I1194
sg20
I0
stp89
stp90
sg9
(tsg3
(tsssg13
S'w'
s."
LayerCount: 2
Fore
SplineSet
1241 0 m 0
 1281 0 1317 24 1338 80 c 2
 1635 892 l 2
 1639 903 1641 913 1641 922 c 0
 1641 962 1608 987 1574 987 c 0
 1547 987 1520 972 1508 938 c 2
 1232 161 l 1
 961 902 l 2
 941 958 907 989 859 989 c 0
 811 989 777 958 758 902 c 1
 487 161 l 1
 211 938 l 2
 199 972 172 987 145 987 c 0
 111 987 77 962 77 922 c 0
 77 913 79 903 83 892 c 2
 381 80 l 2
 402 24 437 0 478 0 c 0
 521 0 557 30 578 87 c 2
 859 850 l 1
 1141 87 l 2
 1162 30 1198 0 1241 0 c 0
EndSplineSet
EndChar

StartChar: x
Encoding: 88 120 476
Width: 1035
VWidth: 0
GlyphClass: 2
Flags: HW
PickledData: "(dp1
S'com.typemytype.robofont.layerData'
p2
(dp3
S'b'
(dp4
S'name'
p5
S'x'
sS'lib'
p6
(dp7
sS'unicodes'
p8
(tsS'width'
p9
I1039
sS'contours'
p10
(tsS'components'
p11
(tsS'anchors'
p12
(tsss."
LayerCount: 2
Fore
SplineSet
873 0 m 0
 914 0 943 35 943 72 c 0
 943 86 938 98 928 112 c 2
 610 512 l 1
 908 891 l 2
 917 903 922 915 922 928 c 0
 922 961 889 989 855 989 c 0
 837 989 818 981 804 962 c 2
 530 613 l 1
 256 958 l 2
 238 980 217 989 196 989 c 0
 155 989 127 956 127 917 c 0
 127 903 130 890 142 876 c 2
 435 508 l 1
 105 99 l 2
 97 89 93 77 93 65 c 0
 93 31 126 0 163 0 c 0
 183 0 199 9 212 26 c 2
 513 410 l 1
 814 32 l 1
 831 9 852 0 873 0 c 0
EndSplineSet
EndChar

StartChar: y
Encoding: 89 121 477
Width: 1021
VWidth: 0
GlyphClass: 2
Flags: HW
PickledData: "(dp1
S'com.typemytype.robofont.layerData'
p2
(dp3
S'b'
(dp4
S'name'
p5
S'y'
sS'lib'
p6
(dp7
sS'unicodes'
p8
(tsS'width'
p9
I1029
sS'contours'
p10
((dp11
S'points'
p12
((dp13
S'segmentType'
p14
S'line'
p15
sS'x'
I502
sS'smooth'
p16
I0
sS'y'
I10
s(dp17
g14
S'line'
p18
sS'x'
I585
sg16
I0
sS'y'
I181
s(dp19
g14
S'line'
p20
sS'x'
I241
sg16
I1
sS'y'
I931
s(dp21
S'y'
I966
sS'x'
I225
sg16
I0
s(dp22
S'y'
I984
sS'x'
I201
sg16
I0
s(dp23
g14
S'curve'
p24
sS'x'
I171
sg16
I1
sS'y'
I984
s(dp25
S'y'
I984
sS'x'
I117
sg16
I0
s(dp26
S'y'
I936
sS'x'
I64
sg16
I0
s(dp27
g14
S'curve'
p28
sS'x'
I91
sg16
I0
sS'y'
I887
stp29
s(dp30
g12
((dp31
g14
S'curve'
p32
sS'x'
I365
sg16
I1
sS'y'
S'-388'
p33
s(dp34
S'y'
S'-388'
p35
sS'x'
I396
sg16
I0
s(dp36
S'y'
S'-373'
p37
sS'x'
I424
sg16
I0
s(dp38
g14
S'curve'
p39
sS'x'
I442
sg16
I1
sS'y'
S'-334'
p40
s(dp41
g14
S'line'
p42
sS'x'
I1009
sg16
I1
sS'y'
I888
s(dp43
S'y'
I898
sS'x'
I1013
sg16
I0
s(dp44
S'y'
I908
sS'x'
I1016
sg16
I0
s(dp45
g14
S'curve'
p46
sS'x'
I1016
sg16
I1
sS'y'
I918
s(dp47
S'y'
I962
sS'x'
I1018
sg16
I0
s(dp48
S'y'
I990
sS'x'
I978
sg16
I0
s(dp49
g14
S'curve'
p50
sS'x'
I938
sg16
I1
sS'y'
I990
s(dp51
S'y'
I990
sS'x'
I910
sg16
I0
s(dp52
S'y'
I977
sS'x'
I883
sg16
I0
s(dp53
g14
S'curve'
p54
sS'x'
I866
sg16
I0
sS'y'
I941
s(dp55
g14
S'line'
p56
sS'x'
I299
sg16
I1
sS'y'
S'-286'
p57
s(dp58
S'y'
S'-344'
p59
sS'x'
I272
sg16
I0
s(dp60
S'y'
S'-388'
p61
sS'x'
I316
sg16
I0
stp62
stp63
sS'components'
p64
(tsS'anchors'
p65
(tsss."
LayerCount: 2
Fore
SplineSet
445 -329 m 2
 1005 895 l 2
 1008 903 1009 910 1009 918 c 0
 1009 957 973 988 936 988 c 0
 912 988 887 974 872 942 c 2
 549 234 l 1
 222 947 l 2
 208 978 183 991 159 991 c 0
 122 991 86 961 86 920 c 0
 86 910 88 898 93 887 c 2
 474 68 l 1
 311 -290 l 2
 306 -302 303 -313 303 -323 c 0
 303 -359 335 -383 369 -383 c 0
 398 -383 428 -367 445 -329 c 2
EndSplineSet
EndChar

StartChar: yen
Encoding: 100 165 481
Width: 1163
VWidth: 0
GlyphClass: 2
Flags: HW
LayerCount: 2
Fore
SplineSet
192 300 m 2
 1038 300 l 2
 1079 300 1098 328 1098 358 c 0
 1098 389 1079 418 1038 418 c 2
 192 418 l 2
 151 418 132 389 132 360 c 0
 132 330 152 300 192 300 c 2
192 546 m 2
 1038 546 l 2
 1079 546 1098 574 1098 605 c 0
 1098 636 1079 665 1038 665 c 2
 192 665 l 2
 151 665 132 636 132 607 c 0
 132 576 152 546 192 546 c 2
EndSplineSet
Refer: 124 89 N 1 0 0 1 0 0 2
EndChar

StartChar: z
Encoding: 90 122 483
Width: 925
VWidth: 0
GlyphClass: 2
Flags: HW
LayerCount: 2
Fore
SplineSet
168 0 m 2
 759 0 l 2
 802 0 824 30 824 60 c 0
 824 88 802 118 759 118 c 2
 255 118 l 1
 807 854 l 2
 823 877 831 897 831 917 c 0
 831 959 799 989 742 989 c 2
 157 989 l 2
 117 989 96 959 96 930 c 0
 96 901 116 874 157 874 c 2
 657 874 l 1
 107 135 l 2
 91 114 84 93 84 74 c 0
 84 32 115 0 168 0 c 2
EndSplineSet
EndChar

StartChar: zero
Encoding: 16 48 487
Width: 1158
VWidth: 0
GlyphClass: 2
Flags: HW
LayerCount: 2
Fore
SplineSet
578 107 m 0
 296 107 265 458 265 700 c 0
 265 965 300 1301 578 1301 c 0
 860 1301 894 962 894 700 c 0
 894 461 863 107 578 107 c 0
578 -22 m 0
 969 -22 1062 325 1062 700 c 0
 1062 1100 962 1430 578 1430 c 0
 197 1430 95 1103 95 700 c 0
 95 321 189 -22 578 -22 c 0
EndSplineSet
EndChar

StartChar: uni0358
Encoding: 412 856 490
Width: 600
VWidth: 0
Flags: HW
LayerCount: 2
Fore
SplineSet
322 428 m 0
 388 428 424 473 424 520 c 0
 424 566 388 612 322 612 c 0
 254 612 219 566 219 520 c 0
 219 473 255 428 322 428 c 0
EndSplineSet
EndChar

